SplineFontDB: 3.0
FontName: Samim-Bold
FullName: Samim Bold
FamilyName: Samim
Weight: Bold
Copyright: Copyright (c) 2003 by Bitstream, Inc. All Rights Reserved.\nCopyright (c) 2006 by Tavmjong Bah. All Rights Reserved.\nDejaVu changes are in public domain\nCopyright (c) 2015 by Saber Rastikerdar. All Rights Reserved.
Version: 0.1
ItalicAngle: 0
UnderlinePosition: -100
UnderlineWidth: 100
Ascent: 1536
Descent: 512
LayerCount: 2
Layer: 0 1 "Back"  1
Layer: 1 1 "Fore"  0
XUID: [1021 502 1027637223 4089234]
UniqueID: 4008865
FSType: 0
OS2Version: 1
OS2_WeightWidthSlopeOnly: 0
OS2_UseTypoMetrics: 1
CreationTime: 1431850356
ModificationTime: 1446381712
PfmFamily: 33
TTFWeight: 700
TTFWidth: 5
LineGap: 0
VLineGap: 0
Panose: 2 11 6 3 3 8 4 2 2 4
OS2TypoAscent: 2250
OS2TypoAOffset: 0
OS2TypoDescent: -750
OS2TypoDOffset: 0
OS2TypoLinegap: 0
OS2WinAscent: 2250
OS2WinAOffset: 0
OS2WinDescent: 750
OS2WinDOffset: 0
HheadAscent: 2250
HheadAOffset: 0
HheadDescent: -750
HheadDOffset: 0
OS2SubXSize: 1331
OS2SubYSize: 1433
OS2SubXOff: 0
OS2SubYOff: 286
OS2SupXSize: 1331
OS2SupYSize: 1433
OS2SupXOff: 0
OS2SupYOff: 983
OS2StrikeYSize: 102
OS2StrikeYPos: 530
OS2Vendor: 'PfEd'
OS2CodePages: 600001ff.dfff0000
Lookup: 1 0 0 "'case' Case-Sensitive Forms in Latin lookup 0"  {"'case' Case-Sensitive Forms in Latin lookup 0 subtable"  } ['case' ('DFLT' <'dflt' > 'latn' <'CAT ' 'ESP ' 'GAL ' 'dflt' > ) ]
Lookup: 6 1 0 "'ccmp' Glyph Composition/Decomposition lookup 2"  {"'ccmp' Glyph Composition/Decomposition lookup 2 subtable"  } ['ccmp' ('arab' <'KUR ' 'SND ' 'URD ' 'dflt' > 'hebr' <'dflt' > 'nko ' <'dflt' > ) ]
Lookup: 6 0 0 "'ccmp' Glyph Composition/Decomposition lookup 3"  {"'ccmp' Glyph Composition/Decomposition lookup 3 subtable"  } ['ccmp' ('cyrl' <'MKD ' 'SRB ' 'dflt' > 'grek' <'dflt' > 'latn' <'ISM ' 'KSM ' 'LSM ' 'MOL ' 'NSM ' 'ROM ' 'SKS ' 'SSM ' 'dflt' > ) ]

StartChar: exclam
Encoding: 33 33 1
Width: 877
GlyphClass: 2
Flags: W
LayerCount: 2
Fore
SplineSet
269.78 1403.42 m 1,0,-1
 608.18 1403.42 l 1,1,-1
 608.18 864.8 l 1,2,-1
 560.24 471.88 l 1,3,-1
 317.72 471.88 l 1,4,-1
 269.78 864.8 l 1,5,-1
 269.78 1403.42 l 1,0,-1
269.78 334.64 m 1,6,-1
 608.18 334.64 l 1,7,-1
 608.18 1.46484e-05 l 1,8,-1
 269.78 1.46484e-05 l 1,9,-1
 269.78 334.64 l 1,6,-1
EndSplineSet
EndChar

StartChar: quotedbl
Encoding: 34 34 2
Width: 1002
GlyphClass: 2
Flags: W
LayerCount: 2
Fore
SplineSet
819.68 1403.42 m 1,0,-1
 819.68 881.72 l 1,1,-1
 596.9 881.72 l 1,2,-1
 596.9 1403.42 l 1,3,-1
 819.68 1403.42 l 1,0,-1
406.08 1403.42 m 1,4,-1
 406.08 881.72 l 1,5,-1
 183.3 881.72 l 1,6,-1
 183.3 1403.42 l 1,7,-1
 406.08 1403.42 l 1,4,-1
EndSplineSet
EndChar

StartChar: numbersign
Encoding: 35 35 3
Width: 1613
GlyphClass: 2
Flags: W
LayerCount: 2
Fore
SplineSet
856.34 1381.8 m 1,0,-1
 766.1 1019.9 l 1,1,-1
 1014.26 1019.9 l 1,2,-1
 1105.44 1381.8 l 1,3,-1
 1313.18 1381.8 l 1,4,-1
 1222 1019.9 l 1,5,-1
 1482.38 1019.9 l 1,6,-1
 1482.38 819.68 l 1,7,-1
 1172.18 819.68 l 1,8,-1
 1107.32 562.12 l 1,9,-1
 1374.28 562.12 l 1,10,-1
 1374.28 360.02 l 1,11,-1
 1058.44 360.02 l 1,12,-1
 968.2 5.00488e-05 l 1,13,-1
 760.46 5.00488e-05 l 1,14,-1
 850.7 360.02 l 1,15,-1
 602.54 360.02 l 1,16,-1
 512.3 5.00488e-05 l 1,17,-1
 302.68 5.00488e-05 l 1,18,-1
 392.92 360.02 l 1,19,-1
 130.66 360.02 l 1,20,-1
 130.66 562.12 l 1,21,-1
 438.98 562.12 l 1,22,-1
 504.78 819.68 l 1,23,-1
 238.76 819.68 l 1,24,-1
 238.76 1019.9 l 1,25,-1
 556.48 1019.9 l 1,26,-1
 646.72 1381.8 l 1,27,-1
 856.34 1381.8 l 1,0,-1
962.56 819.68 m 1,28,-1
 714.4 819.68 l 1,29,-1
 648.6 562.12 l 1,30,-1
 896.76 562.12 l 1,31,-1
 962.56 819.68 l 1,28,-1
EndSplineSet
EndChar

StartChar: dollar
Encoding: 36 36 4
Width: 1339
GlyphClass: 2
Flags: W
LayerCount: 2
Fore
SplineSet
747.3 -282.94 m 1,0,-1
 595.02 -282.94 l 1,1,-1
 594.08 -2.44141e-06 l 1,2,3
 476.58 4.7002 476.58 4.7002 366.6 26.3203 c 128,-1,4
 256.62 47.9404 256.62 47.9404 152.28 86.4805 c 1,5,-1
 152.28 332.76 l 1,6,7
 260.38 277.301 260.38 277.301 370.83 247.69 c 128,-1,8
 481.28 218.08 481.28 218.08 595.02 214.32 c 1,9,-1
 595.02 506.66 l 1,10,-1
 564 512.3 l 1,11,12
 339.34 551.78 339.34 551.78 244.87 636.38 c 128,-1,13
 150.4 720.982 150.4 720.982 150.4 879.841 c 0,14,15
 150.4 1048.1 150.4 1048.1 265.55 1142.57 c 128,-1,16
 380.7 1237.04 380.7 1237.04 594.08 1245.5 c 1,17,-1
 595.02 1462.64 l 1,18,-1
 747.3 1462.64 l 1,19,-1
 747.3 1249.26 l 1,20,21
 841.3 1241.74 841.3 1241.74 935.3 1225.76 c 128,-1,22
 1029.3 1209.78 1029.3 1209.78 1124.24 1184.4 c 1,23,-1
 1124.24 945.642 l 1,24,25
 1030.24 985.122 1030.24 985.122 936.24 1007.21 c 128,-1,26
 842.24 1029.3 842.24 1029.3 747.3 1034 c 1,27,-1
 747.3 764.221 l 1,28,-1
 777.38 758.581 l 1,29,30
 1016.14 720.982 1016.14 720.982 1112.49 633.091 c 128,-1,31
 1208.84 545.201 1208.84 545.201 1208.84 373.181 c 0,32,33
 1208.84 200.221 1208.84 200.221 1094.16 107.631 c 128,-1,34
 979.48 15.0411 979.48 15.0411 747.3 1.88148 c 1,35,-1
 747.3 -282.94 l 1,0,-1
595.02 785.84 m 1,36,-1
 595.02 1031.18 l 1,37,38
 528.28 1027.42 528.28 1027.42 488.33 994.99 c 128,-1,39
 448.38 962.56 448.38 962.56 448.38 912.74 c 0,40,41
 448.38 857.28 448.38 857.28 485.04 825.79 c 128,-1,42
 521.7 794.3 521.7 794.3 595.02 785.84 c 1,36,-1
747.3 479.4 m 1,43,-1
 747.3 218.08 l 1,44,45
 829.08 219.02 829.08 219.02 869.97 250.04 c 128,-1,46
 910.86 281.06 910.86 281.06 910.86 343.1 c 0,47,48
 910.86 407.02 910.86 407.02 873.26 438.51 c 128,-1,49
 835.66 470 835.66 470 747.3 479.4 c 1,43,-1
EndSplineSet
EndChar

StartChar: percent
Encoding: 37 37 5
Width: 1928
GlyphClass: 2
Flags: W
LayerCount: 2
Fore
SplineSet
1491.78 579.04 m 128,-1,1
 1425.04 579.04 1425.04 579.04 1388.38 521.23 c 128,-1,2
 1351.72 463.42 1351.72 463.42 1351.72 356.26 c 0,3,4
 1351.72 248.16 1351.72 248.16 1387.91 190.35 c 128,-1,5
 1424.1 132.54 1424.1 132.54 1491.78 132.54 c 128,-1,6
 1559.46 132.54 1559.46 132.54 1595.18 190.35 c 128,-1,7
 1630.9 248.16 1630.9 248.16 1630.9 356.26 c 0,8,9
 1630.9 463.42 1630.9 463.42 1594.71 521.23 c 128,-1,0
 1558.52 579.04 1558.52 579.04 1491.78 579.04 c 128,-1,1
1491.78 736.96 m 128,-1,11
 1666.62 736.96 1666.62 736.96 1767.2 635.44 c 128,-1,12
 1867.78 533.92 1867.78 533.92 1867.78 356.26 c 128,-1,13
 1867.78 178.6 1867.78 178.6 1767.2 75.67 c 128,-1,14
 1666.62 -27.26 1666.62 -27.26 1491.78 -27.26 c 128,-1,15
 1316.94 -27.26 1316.94 -27.26 1215.89 75.67 c 128,-1,16
 1114.84 178.6 1114.84 178.6 1114.84 356.26 c 0,17,18
 1114.84 532.98 1114.84 532.98 1215.89 634.97 c 128,-1,10
 1316.94 736.96 1316.94 736.96 1491.78 736.96 c 128,-1,11
629.8 -27.2598 m 1,19,-1
 422.06 -27.2598 l 1,20,-1
 1299.08 1428.8 l 1,21,-1
 1507.76 1428.8 l 1,22,-1
 629.8 -27.2598 l 1,19,-1
437.1 1428.8 m 128,-1,24
 611.94 1428.8 611.94 1428.8 712.05 1326.81 c 128,-1,25
 812.16 1224.82 812.16 1224.82 812.16 1047.16 c 128,-1,26
 812.16 869.5 812.16 869.5 712.05 767.04 c 128,-1,27
 611.94 664.58 611.94 664.58 437.1 664.58 c 128,-1,28
 262.26 664.58 262.26 664.58 162.15 767.04 c 128,-1,29
 62.04 869.5 62.04 869.5 62.04 1047.16 c 128,-1,30
 62.04 1224.82 62.04 1224.82 162.15 1326.81 c 128,-1,23
 262.26 1428.8 262.26 1428.8 437.1 1428.8 c 128,-1,24
437.1 1270.88 m 0,31,32
 369.42 1270.88 369.42 1270.88 332.76 1212.6 c 128,-1,33
 296.1 1154.32 296.1 1154.32 296.1 1047.16 c 0,34,35
 296.1 939.06 296.1 939.06 332.76 880.31 c 128,-1,36
 369.42 821.56 369.42 821.56 437.1 821.56 c 128,-1,37
 504.78 821.56 504.78 821.56 540.97 880.31 c 128,-1,38
 577.16 939.06 577.16 939.06 577.16 1047.16 c 0,39,40
 577.16 1154.32 577.16 1154.32 540.5 1212.6 c 128,-1,41
 503.84 1270.88 503.84 1270.88 437.1 1270.88 c 0,31,32
EndSplineSet
EndChar

StartChar: ampersand
Encoding: 38 38 6
Width: 1678
GlyphClass: 2
Flags: W
LayerCount: 2
Fore
SplineSet
751.06 931.54 m 2,0,-1
 1135.52 508.54 l 1,1,2
 1185.34 574.34 1185.34 574.34 1211.19 656.12 c 128,-1,3
 1237.04 737.9 1237.04 737.9 1241.74 841.3 c 1,4,-1
 1534.08 841.3 l 1,5,6
 1519.98 670.22 1519.98 670.22 1467.81 536.74 c 128,-1,7
 1415.64 403.26 1415.64 403.26 1322.58 302.68 c 1,8,-1
 1598 -7.32422e-06 l 1,9,-1
 1199.44 -7.32422e-06 l 1,10,-1
 1107.32 102.46 l 1,11,12
 1008.62 36.6602 1008.62 36.6602 899.58 4.70019 c 128,-1,13
 790.54 -27.2598 790.54 -27.2598 668.34 -27.2598 c 0,14,15
 421.12 -27.2598 421.12 -27.2598 268.37 102.93 c 128,-1,16
 115.62 233.12 115.62 233.12 115.62 438.98 c 0,17,18
 115.62 576.22 115.62 576.22 182.83 681.97 c 128,-1,19
 250.04 787.72 250.04 787.72 402.32 887.36 c 1,20,21
 362.84 937.18 362.84 937.18 344.04 987 c 128,-1,22
 325.24 1036.82 325.24 1036.82 325.24 1091.34 c 0,23,24
 325.24 1244.56 325.24 1244.56 444.62 1336.68 c 128,-1,25
 564 1428.8 564 1428.8 762.34 1428.8 c 0,26,27
 847.88 1428.8 847.88 1428.8 940.47 1415.17 c 128,-1,28
 1033.06 1401.54 1033.06 1401.54 1133.64 1374.28 c 1,29,-1
 1133.64 1112.96 l 1,30,31
 1045.28 1158.08 1045.28 1158.08 966.32 1179.7 c 128,-1,32
 887.36 1201.32 887.36 1201.32 812.16 1201.32 c 0,33,34
 739.78 1201.32 739.78 1201.32 699.83 1173.59 c 128,-1,35
 659.88 1145.86 659.88 1145.86 659.88 1095.1 c 0,36,37
 659.88 1063.14 659.88 1063.14 682.91 1022.25 c 128,-1,38
 705.94 981.36 705.94 981.36 751.06 931.54 c 2,0,-1
564 698.42 m 1,39,40
 502.9 654.24 502.9 654.24 471.88 598.31 c 128,-1,41
 440.86 542.38 440.86 542.38 440.86 475.64 c 0,42,43
 440.86 367.54 440.86 367.54 520.76 291.4 c 128,-1,44
 600.66 215.26 600.66 215.26 712.52 215.26 c 0,45,46
 775.5 215.26 775.5 215.26 830.02 234.53 c 128,-1,47
 884.54 253.8 884.54 253.8 931.54 292.34 c 1,48,-1
 564 698.42 l 1,39,40
EndSplineSet
EndChar

StartChar: quotesingle
Encoding: 39 39 7
Width: 589
GlyphClass: 2
Flags: W
LayerCount: 2
Fore
SplineSet
406.08 1403.42 m 1,0,-1
 406.08 881.72 l 1,1,-1
 183.3 881.72 l 1,2,-1
 183.3 1403.42 l 1,3,-1
 406.08 1403.42 l 1,0,-1
EndSplineSet
EndChar

StartChar: parenleft
Encoding: 40 40 8
Width: 879
GlyphClass: 2
Flags: W
GlyphCompositionVertical: 3  uni239D%0,0,44,2703 uni239C%1,44,44,2731 uni239B%0,44,0,2740
LayerCount: 2
Fore
SplineSet
725.68 -253.8 m 1,0,-1
 446.5 -253.8 l 1,1,2
 302.68 -21.62 302.68 -21.62 234.06 187.53 c 128,-1,3
 165.44 396.68 165.44 396.68 165.44 602.54 c 128,-1,4
 165.44 808.4 165.44 808.4 234.53 1019.43 c 128,-1,5
 303.62 1230.46 303.62 1230.46 446.5 1460.76 c 1,6,-1
 725.68 1460.76 l 1,7,8
 605.36 1237.98 605.36 1237.98 545.2 1025.07 c 128,-1,9
 485.04 812.16 485.04 812.16 485.04 604.42 c 128,-1,10
 485.04 396.68 485.04 396.68 544.73 183.3 c 128,-1,11
 604.42 -30.08 604.42 -30.08 725.68 -253.8 c 1,0,-1
EndSplineSet
EndChar

StartChar: parenright
Encoding: 41 41 9
Width: 879
GlyphClass: 2
Flags: W
GlyphCompositionVertical: 3  uni23A0%0,0,44,2703 uni239F%1,44,44,2731 uni239E%0,44,0,2740
LayerCount: 2
Fore
SplineSet
154.16 -253.8 m 0,0,1
 274.48 -30.08 274.48 -30.08 334.64 183.3 c 128,-1,2
 394.8 396.68 394.8 396.68 394.8 604.42 c 128,-1,3
 394.8 812.16 394.8 812.16 334.64 1025.07 c 128,-1,4
 274.48 1237.98 274.48 1237.98 154.16 1460.76 c 1,5,-1
 433.34 1460.76 l 1,6,7
 576.22 1230.46 576.22 1230.46 645.31 1019.43 c 128,-1,8
 714.4 808.4 714.4 808.4 714.4 602.54 c 128,-1,9
 714.4 396.68 714.4 396.68 645.78 187.53 c 128,-1,10
 577.16 -21.6201 577.16 -21.6201 433.34 -253.8 c 1,11,-1
 154.16 -253.8 l 0,0,1
EndSplineSet
EndChar

StartChar: asterisk
Encoding: 42 42 10
Width: 1006
GlyphClass: 2
Flags: W
LayerCount: 2
Fore
SplineSet
968.2 1143.98 m 1,0,-1
 658 981.36 l 1,1,-1
 968.2 817.8 l 1,2,-1
 896.76 685.26 l 1,3,-1
 583.74 858.22 l 1,4,-1
 583.74 534.86 l 1,5,-1
 423.94 534.86 l 1,6,-1
 423.94 858.22 l 1,7,-1
 109.98 685.26 l 1,8,-1
 38.54 817.8 l 1,9,-1
 352.5 981.36 l 1,10,-1
 38.54 1143.98 l 1,11,-1
 109.98 1276.52 l 1,12,-1
 423.94 1105.44 l 1,13,-1
 423.94 1428.8 l 1,14,-1
 583.74 1428.8 l 1,15,-1
 583.74 1105.44 l 1,16,-1
 896.76 1276.52 l 1,17,-1
 968.2 1143.98 l 1,0,-1
EndSplineSet
EndChar

StartChar: plus
Encoding: 43 43 11
Width: 1613
GlyphClass: 2
Flags: W
LayerCount: 2
Fore
SplineSet
918.38 1206.96 m 1,0,-1
 918.38 714.4 l 1,1,-1
 1409.06 714.4 l 1,2,-1
 1409.06 492.56 l 1,3,-1
 918.38 492.56 l 1,4,-1
 918.38 -3.2959e-05 l 1,5,-1
 694.66 -3.2959e-05 l 1,6,-1
 694.66 492.56 l 1,7,-1
 203.98 492.56 l 1,8,-1
 203.98 714.4 l 1,9,-1
 694.66 714.4 l 1,10,-1
 694.66 1206.96 l 1,11,-1
 918.38 1206.96 l 1,0,-1
EndSplineSet
EndChar

StartChar: comma
Encoding: 44 44 12
Width: 731
GlyphClass: 2
Flags: W
LayerCount: 2
Fore
SplineSet
196.46 363.78 m 1,0,-1
 534.86 363.78 l 1,1,-1
 534.86 77.08 l 1,2,-1
 302.68 -273.54 l 1,3,-1
 102.46 -273.54 l 1,4,-1
 196.46 77.08 l 1,5,-1
 196.46 363.78 l 1,0,-1
EndSplineSet
EndChar

StartChar: hyphen
Encoding: 45 45 13
Width: 799
GlyphClass: 2
Flags: W
LayerCount: 2
Fore
SplineSet
104.34 690.9 m 1,0,-1
 694.66 690.9 l 1,1,-1
 694.66 417.36 l 1,2,-1
 104.34 417.36 l 1,3,-1
 104.34 690.9 l 1,0,-1
EndSplineSet
EndChar

StartChar: period
Encoding: 46 46 14
Width: 731
GlyphClass: 2
Flags: W
LayerCount: 2
Fore
SplineSet
196.46 363.78 m 1,0,-1
 534.86 363.78 l 1,1,-1
 534.86 -1.2207e-06 l 1,2,-1
 196.46 -1.2207e-06 l 1,3,-1
 196.46 363.78 l 1,0,-1
EndSplineSet
EndChar

StartChar: slash
Encoding: 47 47 15
Width: 703
GlyphClass: 2
Flags: W
LayerCount: 2
Fore
SplineSet
494.44 1403.42 m 1,0,-1
 703.12 1403.42 l 1,1,-1
 207.74 -178.6 l 1,2,-1
 -9.76562e-06 -178.6 l 1,3,-1
 494.44 1403.42 l 1,0,-1
EndSplineSet
EndChar

StartChar: colon
Encoding: 58 58 16
Width: 769
GlyphClass: 2
Flags: W
LayerCount: 2
Fore
SplineSet
215.26 1052.8 m 1,0,-1
 554.6 1052.8 l 1,1,-1
 554.6 689.02 l 1,2,-1
 215.26 689.02 l 1,3,-1
 215.26 1052.8 l 1,0,-1
215.26 363.78 m 1,4,-1
 554.6 363.78 l 1,5,-1
 554.6 -1.2207e-06 l 1,6,-1
 215.26 -1.2207e-06 l 1,7,-1
 215.26 363.78 l 1,4,-1
EndSplineSet
EndChar

StartChar: semicolon
Encoding: 59 59 17
Width: 769
GlyphClass: 2
Flags: W
LayerCount: 2
Fore
SplineSet
215.26 363.78 m 1,0,-1
 554.6 363.78 l 1,1,-1
 554.6 77.08 l 1,2,-1
 321.48 -273.54 l 1,3,-1
 121.26 -273.54 l 1,4,-1
 215.26 77.08 l 1,5,-1
 215.26 363.78 l 1,0,-1
215.26 1052.8 m 1,6,-1
 554.6 1052.8 l 1,7,-1
 554.6 689.02 l 1,8,-1
 215.26 689.02 l 1,9,-1
 215.26 1052.8 l 1,6,-1
EndSplineSet
EndChar

StartChar: less
Encoding: 60 60 18
Width: 1613
GlyphClass: 2
Flags: W
LayerCount: 2
Fore
SplineSet
1409.06 914.62 m 1,0,-1
 502.9 602.54 l 1,1,-1
 1409.06 292.34 l 1,2,-1
 1409.06 57.34 l 1,3,-1
 203.98 492.56 l 1,4,-1
 203.98 714.4 l 1,5,-1
 1409.06 1149.62 l 1,6,-1
 1409.06 914.62 l 1,0,-1
EndSplineSet
EndChar

StartChar: equal
Encoding: 61 61 19
Width: 1613
GlyphClass: 2
Flags: W
GlyphCompositionHorizontal: 2  equal%0,0,44,1433 equal%1,44,0,1433
LayerCount: 2
Fore
SplineSet
203.98 927.78 m 1,0,-1
 1409.06 927.78 l 1,1,-1
 1409.06 706.88 l 1,2,-1
 203.98 706.88 l 1,3,-1
 203.98 927.78 l 1,0,-1
203.98 500.08 m 1,4,-1
 1409.06 500.08 l 1,5,-1
 1409.06 277.3 l 1,6,-1
 203.98 277.3 l 1,7,-1
 203.98 500.08 l 1,4,-1
EndSplineSet
EndChar

StartChar: greater
Encoding: 62 62 20
Width: 1613
GlyphClass: 2
Flags: W
LayerCount: 2
Fore
SplineSet
203.98 914.62 m 1,0,-1
 203.98 1149.62 l 1,1,-1
 1409.06 714.4 l 1,2,-1
 1409.06 492.56 l 1,3,-1
 203.98 57.34 l 1,4,-1
 203.98 292.34 l 1,5,-1
 1111.08 602.54 l 1,6,-1
 203.98 914.62 l 1,0,-1
EndSplineSet
EndChar

StartChar: question
Encoding: 63 63 21
Width: 1116
GlyphClass: 2
Flags: W
LayerCount: 2
Fore
SplineSet
666.46 473.76 m 1,0,-1
 327.12 473.76 l 1,1,-1
 327.12 519.82 l 2,2,3
 327.12 596.9 327.12 596.9 358.14 656.59 c 128,-1,4
 389.16 716.28 389.16 716.28 488.8 808.4 c 1,5,-1
 548.96 862.92 l 2,6,7
 602.54 911.8 602.54 911.8 627.45 955.04 c 128,-1,8
 652.36 998.28 652.36 998.28 652.36 1041.52 c 0,9,10
 652.36 1107.32 652.36 1107.32 607.24 1144.45 c 128,-1,11
 562.12 1181.58 562.12 1181.58 481.28 1181.58 c 0,12,13
 405.14 1181.58 405.14 1181.58 316.78 1150.09 c 128,-1,14
 228.42 1118.6 228.42 1118.6 132.54 1056.56 c 1,15,-1
 132.54 1351.72 l 1,16,17
 246.28 1391.2 246.28 1391.2 340.28 1410 c 128,-1,18
 434.28 1428.8 434.28 1428.8 521.7 1428.8 c 0,19,20
 751.06 1428.8 751.06 1428.8 871.38 1335.27 c 128,-1,21
 991.7 1241.74 991.7 1241.74 991.7 1062.2 c 0,22,23
 991.7 970.08 991.7 970.08 955.04 897.23 c 128,-1,24
 918.38 824.38 918.38 824.38 830.02 740.72 c 1,25,-1
 769.86 687.14 l 1,26,27
 705.94 628.86 705.94 628.86 686.2 593.61 c 128,-1,28
 666.46 558.36 666.46 558.36 666.46 516.06 c 2,29,-1
 666.46 473.76 l 1,0,-1
327.12 334.64 m 1,30,-1
 666.46 334.64 l 1,31,-1
 666.46 1.46484e-05 l 1,32,-1
 327.12 1.46484e-05 l 1,33,-1
 327.12 334.64 l 1,30,-1
EndSplineSet
EndChar

StartChar: at
Encoding: 64 64 22
Width: 1925
GlyphClass: 2
Flags: W
LayerCount: 2
Fore
SplineSet
781.14 506.66 m 0,0,1
 781.14 391.04 781.14 391.04 830.49 324.3 c 128,-1,2
 879.84 257.56 879.84 257.56 964.44 257.56 c 0,3,4
 1048.1 257.56 1048.1 257.56 1097.92 324.77 c 128,-1,5
 1147.74 391.98 1147.74 391.98 1147.74 506.66 c 0,6,7
 1147.74 620.4 1147.74 620.4 1097.45 686.67 c 128,-1,8
 1047.16 752.94 1047.16 752.94 962.56 752.94 c 0,9,10
 879.84 752.94 879.84 752.94 830.49 686.67 c 128,-1,11
 781.14 620.4 781.14 620.4 781.14 506.66 c 0,0,1
1166.54 223.72 m 1,12,13
 1138.34 156.98 1138.34 156.98 1075.83 119.85 c 128,-1,14
 1013.32 82.7197 1013.32 82.7197 929.66 82.7197 c 0,15,16
 767.98 82.7197 767.98 82.7197 666.93 199.75 c 128,-1,17
 565.88 316.78 565.88 316.78 565.88 504.78 c 128,-1,18
 565.88 692.78 565.88 692.78 667.4 810.28 c 128,-1,19
 768.92 927.78 768.92 927.78 929.66 927.78 c 0,20,21
 1013.32 927.78 1013.32 927.78 1075.83 890.18 c 128,-1,22
 1138.34 852.58 1138.34 852.58 1166.54 785.84 c 1,23,-1
 1166.54 908.98 l 1,24,-1
 1363 908.98 l 1,25,-1
 1363 257.56 l 1,26,27
 1479.56 275.42 1479.56 275.42 1546.3 369.89 c 128,-1,28
 1613.04 464.36 1613.04 464.36 1613.04 611.94 c 0,29,30
 1613.04 705.94 1613.04 705.94 1585.78 788.19 c 128,-1,31
 1558.52 870.44 1558.52 870.44 1503.06 939.06 c 1,32,33
 1413.76 1053.74 1413.76 1053.74 1279.81 1115.78 c 128,-1,34
 1145.86 1177.82 1145.86 1177.82 989.82 1177.82 c 0,35,36
 880.78 1177.82 880.78 1177.82 781.14 1149.15 c 128,-1,37
 681.5 1120.48 681.5 1120.48 596.9 1065.02 c 0,38,39
 457.78 972.9 457.78 972.9 380.23 826.73 c 128,-1,40
 302.68 680.56 302.68 680.56 302.68 510.42 c 0,41,42
 302.68 370.36 302.68 370.36 352.97 247.69 c 128,-1,43
 403.26 125.02 403.26 125.02 498.2 31.0187 c 0,44,45
 592.2 -61.1004 592.2 -61.1004 713.93 -109.511 c 128,-1,46
 835.66 -157.921 835.66 -157.921 973.84 -157.921 c 0,47,48
 1092.28 -157.921 1092.28 -157.921 1210.72 -113.741 c 128,-1,49
 1329.16 -69.5612 1329.16 -69.5612 1412.82 5.63869 c 1,50,-1
 1513.4 -146.641 l 1,51,52
 1395.9 -237.821 1395.9 -237.821 1257.25 -286.231 c 128,-1,53
 1118.6 -334.641 1118.6 -334.641 975.72 -334.641 c 0,54,55
 801.82 -334.641 801.82 -334.641 647.66 -273.071 c 128,-1,56
 493.5 -211.501 493.5 -211.501 373.18 -94.0013 c 128,-1,57
 252.86 23.4987 252.86 23.4987 189.88 178.129 c 128,-1,58
 126.9 332.759 126.9 332.759 126.9 510.419 c 0,59,60
 126.9 681.499 126.9 681.499 190.82 836.599 c 128,-1,61
 254.74 991.699 254.74 991.699 373.18 1109.2 c 0,62,63
 491.62 1225.76 491.62 1225.76 649.07 1289.68 c 128,-1,64
 806.52 1353.6 806.52 1353.6 975.72 1353.6 c 0,65,66
 1186.28 1353.6 1186.28 1353.6 1358.3 1273.23 c 128,-1,67
 1530.32 1192.86 1530.32 1192.86 1645.94 1041.52 c 0,68,69
 1716.44 949.399 1716.44 949.399 1752.63 841.769 c 128,-1,70
 1788.82 734.139 1788.82 734.139 1788.82 615.699 c 0,71,72
 1788.82 360.959 1788.82 360.959 1635.6 219.959 c 128,-1,73
 1482.38 78.9587 1482.38 78.9587 1203.2 78.9587 c 2,74,-1
 1166.54 78.9587 l 1,75,-1
 1166.54 223.72 l 1,12,13
EndSplineSet
EndChar

StartChar: bracketleft
Encoding: 91 91 23
Width: 879
GlyphClass: 2
Flags: W
GlyphCompositionVertical: 3  uni23A3%0,0,44,2703 uni23A2%1,44,44,2731 uni23A1%0,44,0,2699
LayerCount: 2
Fore
SplineSet
165.44 1462.64 m 1,0,-1
 749.18 1462.64 l 1,1,-1
 749.18 1251.14 l 1,2,-1
 485.04 1251.14 l 1,3,-1
 485.04 -42.3 l 1,4,-1
 749.18 -42.3 l 1,5,-1
 749.18 -253.8 l 1,6,-1
 165.44 -253.8 l 1,7,-1
 165.44 1462.64 l 1,0,-1
EndSplineSet
EndChar

StartChar: backslash
Encoding: 92 92 24
Width: 703
GlyphClass: 2
Flags: W
LayerCount: 2
Fore
SplineSet
494.44 -178.6 m 1,0,-1
 2.44141e-06 1403.42 l 1,1,-1
 207.74 1403.42 l 1,2,-1
 703.12 -178.6 l 1,3,-1
 494.44 -178.6 l 1,0,-1
EndSplineSet
EndChar

StartChar: bracketright
Encoding: 93 93 25
Width: 879
GlyphClass: 2
Flags: W
GlyphCompositionVertical: 3  uni23A6%0,0,44,2687 uni23A5%1,44,44,2713 uni23A4%0,44,0,2699
LayerCount: 2
Fore
SplineSet
714.4 -253.8 m 1,0,-1
 130.66 -253.8 l 1,1,-1
 130.66 -42.3 l 1,2,-1
 394.8 -42.3 l 1,3,-1
 394.8 1251.14 l 1,4,-1
 130.66 1251.14 l 1,5,-1
 130.66 1462.64 l 1,6,-1
 714.4 1462.64 l 1,7,-1
 714.4 -253.8 l 1,0,-1
EndSplineSet
EndChar

StartChar: asciicircum
Encoding: 94 94 26
Width: 1613
GlyphClass: 2
Flags: W
LayerCount: 2
Fore
SplineSet
922.14 1403.42 m 1,0,-1
 1418.46 879.84 l 1,1,-1
 1191.92 879.84 l 1,2,-1
 806.52 1162.78 l 1,3,-1
 422.06 879.84 l 1,4,-1
 194.58 879.84 l 1,5,-1
 690.9 1403.42 l 1,6,-1
 922.14 1403.42 l 1,0,-1
EndSplineSet
EndChar

StartChar: underscore
Encoding: 95 95 27
Width: 962
GlyphClass: 2
Flags: W
GlyphCompositionHorizontal: 2  underscore%0,0,44,1188 underscore%1,44,0,1188
LayerCount: 2
Fore
SplineSet
962.56 -275.42 m 1,0,-1
 962.56 -454.02 l 1,1,-1
 -2.44141e-06 -454.02 l 1,2,-1
 -2.44141e-06 -275.42 l 1,3,-1
 962.56 -275.42 l 1,0,-1
EndSplineSet
EndChar

StartChar: grave
Encoding: 96 96 28
Width: 962
GlyphClass: 2
Flags: W
LayerCount: 2
Fore
SplineSet
354.38 1539.72 m 1,0,-1
 619.46 1186.28 l 1,1,-1
 435.22 1186.28 l 1,2,-1
 88.36 1539.72 l 1,3,-1
 354.38 1539.72 l 1,0,-1
EndSplineSet
EndChar

StartChar: braceleft
Encoding: 123 123 29
Width: 1370
GlyphClass: 2
Flags: W
GlyphCompositionVertical: 5  uni23A9%0,0,44,2700 uni23AA%1,44,44,2742 uni23A8%0,44,44,2727 uni23AA%1,44,44,2742 uni23A7%0,44,0,2719
LayerCount: 2
Fore
SplineSet
1129.88 -102.46 m 1,0,-1
 1129.88 -313.96 l 1,1,-1
 925.9 -313.96 l 2,2,3
 720.98 -313.96 720.98 -313.96 626.98 -231.24 c 128,-1,4
 532.98 -148.52 532.98 -148.52 532.98 32.9 c 2,5,-1
 532.98 213.38 l 2,6,7
 532.98 354.38 532.98 354.38 482.22 409.37 c 128,-1,8
 431.46 464.36 431.46 464.36 297.98 464.36 c 2,9,-1
 240.64 464.36 l 1,10,-1
 240.64 673.98 l 1,11,-1
 297.98 673.98 l 2,12,13
 431.46 673.98 431.46 673.98 482.22 728.5 c 128,-1,14
 532.98 783.02 532.98 783.02 532.98 924.02 c 2,15,-1
 532.98 1116.72 l 2,16,17
 532.98 1298.14 532.98 1298.14 626.98 1380.39 c 128,-1,18
 720.98 1462.64 720.98 1462.64 925.9 1462.64 c 2,19,-1
 1129.88 1462.64 l 1,20,-1
 1129.88 1251.14 l 1,21,-1
 1065.02 1251.14 l 2,22,23
 932.48 1251.14 932.48 1251.14 892.53 1210.25 c 128,-1,24
 852.58 1169.36 852.58 1169.36 852.58 1035.88 c 2,25,-1
 852.58 879.84 l 2,26,27
 852.58 732.26 852.58 732.26 810.28 665.52 c 128,-1,28
 767.98 598.78 767.98 598.78 664.58 575.28 c 1,29,30
 768.92 549.9 768.92 549.9 810.75 483.16 c 128,-1,31
 852.58 416.42 852.58 416.42 852.58 269.78 c 2,32,-1
 852.58 113.74 l 2,33,34
 852.58 -20.68 852.58 -20.68 892.53 -61.57 c 128,-1,35
 932.48 -102.46 932.48 -102.46 1065.02 -102.46 c 2,36,-1
 1129.88 -102.46 l 1,0,-1
EndSplineSet
EndChar

StartChar: bar
Encoding: 124 124 30
Width: 703
GlyphClass: 2
Flags: W
GlyphCompositionVertical: 2  bar%0,0,44,2287 bar%1,44,0,2287
LayerCount: 2
Fore
SplineSet
457.78 1471.1 m 1,0,-1
 457.78 -454.02 l 1,1,-1
 244.4 -454.02 l 1,2,-1
 244.4 1471.1 l 1,3,-1
 457.78 1471.1 l 1,0,-1
EndSplineSet
EndChar

StartChar: braceright
Encoding: 125 125 31
Width: 1370
GlyphClass: 2
Flags: W
GlyphCompositionVertical: 5  uni23AD%0,0,44,2700 uni23AA%1,44,44,2742 uni23AC%0,44,44,2727 uni23AA%1,44,44,2742 uni23AB%0,44,0,2719
LayerCount: 2
Fore
SplineSet
240.64 -102.46 m 1,0,-1
 306.44 -102.46 l 2,1,2
 438.04 -102.46 438.04 -102.46 477.99 -61.5703 c 128,-1,3
 517.94 -20.6797 517.94 -20.6797 517.94 113.74 c 2,4,-1
 517.94 269.78 l 2,5,6
 517.94 416.42 517.94 416.42 560.24 483.16 c 128,-1,7
 602.54 549.9 602.54 549.9 706.88 575.28 c 1,8,9
 602.54 598.78 602.54 598.78 560.24 665.52 c 128,-1,10
 517.94 732.26 517.94 732.26 517.94 879.84 c 2,11,-1
 517.94 1035.88 l 2,12,13
 517.94 1169.36 517.94 1169.36 477.99 1210.25 c 128,-1,14
 438.04 1251.14 438.04 1251.14 306.44 1251.14 c 2,15,-1
 240.64 1251.14 l 1,16,-1
 240.64 1462.64 l 1,17,-1
 444.62 1462.64 l 2,18,19
 649.54 1462.64 649.54 1462.64 743.54 1380.39 c 128,-1,20
 837.54 1298.14 837.54 1298.14 837.54 1116.72 c 2,21,-1
 837.54 924.02 l 2,22,23
 837.54 783.02 837.54 783.02 888.3 728.5 c 128,-1,24
 939.06 673.98 939.06 673.98 1072.54 673.98 c 2,25,-1
 1129.88 673.98 l 1,26,-1
 1129.88 464.36 l 1,27,-1
 1072.54 464.36 l 2,28,29
 939.06 464.36 939.06 464.36 888.3 409.37 c 128,-1,30
 837.54 354.38 837.54 354.38 837.54 213.38 c 2,31,-1
 837.54 32.8997 l 2,32,33
 837.54 -148.52 837.54 -148.52 743.54 -231.24 c 128,-1,34
 649.54 -313.96 649.54 -313.96 444.62 -313.96 c 2,35,-1
 240.64 -313.96 l 1,36,-1
 240.64 -102.46 l 1,0,-1
EndSplineSet
EndChar

StartChar: asciitilde
Encoding: 126 126 32
Width: 1613
GlyphClass: 2
Flags: W
LayerCount: 2
Fore
SplineSet
1409.06 799 m 1,0,-1
 1409.06 569.64 l 1,1,2
 1309.42 494.44 1309.42 494.44 1225.29 462.01 c 128,-1,3
 1141.16 429.58 1141.16 429.58 1050.92 429.58 c 0,4,5
 950.34 429.58 950.34 429.58 815.92 484.1 c 0,6,7
 802.76 489.74 802.76 489.74 795.24 492.56 c 0,8,9
 788.66 495.38 788.66 495.38 774.56 501.02 c 0,10,11
 628.86 558.36 628.86 558.36 540.5 558.36 c 0,12,13
 457.78 558.36 457.78 558.36 376.94 522.17 c 128,-1,14
 296.1 485.98 296.1 485.98 203.98 407.96 c 1,15,-1
 203.98 637.32 l 1,16,17
 304.56 712.52 304.56 712.52 388.22 744.95 c 128,-1,18
 471.88 777.38 471.88 777.38 562.12 777.38 c 0,19,20
 662.7 777.38 662.7 777.38 797.12 722.86 c 0,21,22
 811.22 717.22 811.22 717.22 817.8 714.4 c 128,-1,23
 824.38 711.58 824.38 711.58 838.48 705.94 c 0,24,25
 984.18 648.6 984.18 648.6 1072.54 648.6 c 0,26,27
 1153.38 648.6 1153.38 648.6 1232.81 683.85 c 128,-1,28
 1312.24 719.1 1312.24 719.1 1409.06 799 c 1,0,-1
EndSplineSet
EndChar

StartChar: afii57388
Encoding: 1548 1548 34
Width: 743
GlyphClass: 2
Flags: W
LayerCount: 2
Fore
SplineSet
203.706 102.999 m 0,0,1
 191.25 161.217 191.25 161.217 212.745 254.832 c 0,2,3
 251.683 424.416 251.683 424.416 429.767 593.39 c 2,4,-1
 439.896 603 l 1,5,-1
 658.632 603 l 1,6,-1
 582.521 540.885 l 2,7,8
 435.566 420.951 435.566 420.951 411.03 284.902 c 1,9,10
 483.515 275.378 483.515 275.378 519.393 225.453 c 128,-1,11
 555.271 175.528 555.271 175.528 550.762 97.084 c 0,12,13
 547.06 31.8857 547.06 31.8857 499.069 -1.5576 c 128,-1,14
 451.08 -35 451.08 -35 373.818 -35 c 0,15,16
 306.831 -35 306.831 -35 262.295 1.1553 c 128,-1,17
 217.759 37.3105 217.759 37.3105 203.706 102.999 c 0,0,1
EndSplineSet
EndChar

StartChar: uni0615
Encoding: 1557 1557 35
Width: 0
GlyphClass: 4
Flags: W
LayerCount: 2
Fore
SplineSet
466.096 1456.96 m 1,0,-1
 552.12 1456.96 l 2,1,2
 639.138 1456.96 639.138 1456.96 665.862 1472.75 c 0,3,4
 697.288 1492.32 697.288 1492.32 713.059 1508.3 c 128,-1,5
 728.83 1524.27 728.83 1524.27 728.83 1541.65 c 0,6,7
 728.83 1583.09 728.83 1583.09 689.03 1604.94 c 1,8,9
 681.399 1607.6 681.399 1607.6 672.751 1605.46 c 128,-1,10
 664.102 1603.31 664.102 1603.31 640.309 1592.64 c 128,-1,11
 616.515 1581.97 616.515 1581.97 601.865 1576.19 c 0,12,13
 543.049 1552.44 543.049 1552.44 483.147 1478.12 c 2,14,-1
 466.096 1456.96 l 1,0,-1
576.73 1374.89 m 2,15,-1
 282.64 1374.89 l 1,16,-1
 282.64 1456.96 l 1,17,-1
 369.31 1456.96 l 1,18,-1
 369.31 1883.89 l 1,19,-1
 452.45 1883.89 l 1,20,-1
 452.45 1497.67 l 1,21,-1
 477.109 1547.67 l 2,22,23
 513.381 1621.22 513.381 1621.22 619.878 1662.18 c 0,24,25
 682.718 1686.12 682.718 1686.12 752.956 1660.03 c 0,26,27
 814.11 1636.51 814.11 1636.51 814.11 1557.7 c 0,28,29
 814.11 1466.67 814.11 1466.67 750.648 1417.09 c 0,30,31
 696.384 1374.89 696.384 1374.89 576.73 1374.89 c 2,15,-1
EndSplineSet
EndChar

StartChar: uni061B
Encoding: 1563 1563 36
Width: 698
GlyphClass: 2
Flags: W
LayerCount: 2
Fore
SplineSet
149.834 630.936 m 0,0,1
 137.377 689.153 137.377 689.153 158.873 782.769 c 0,2,3
 197.811 952.353 197.811 952.353 375.895 1121.33 c 2,4,-1
 386.023 1130.94 l 1,5,-1
 604.76 1130.94 l 1,6,-1
 528.648 1068.82 l 2,7,8
 381.693 948.888 381.693 948.888 357.158 812.839 c 1,9,10
 429.643 803.314 429.643 803.314 465.52 753.39 c 128,-1,11
 501.398 703.465 501.398 703.465 496.889 625.021 c 0,12,13
 493.188 559.822 493.188 559.822 445.197 526.379 c 128,-1,14
 397.207 492.937 397.207 492.937 319.945 492.937 c 0,15,16
 252.959 492.937 252.959 492.937 208.422 529.092 c 128,-1,17
 163.887 565.247 163.887 565.247 149.834 630.936 c 0,0,1
184.55 334.903 m 1,18,-1
 468.214 334.903 l 1,19,-1
 468.214 7.99002 l 1,20,-1
 184.55 7.99002 l 1,21,-1
 184.55 334.903 l 1,18,-1
EndSplineSet
EndChar

StartChar: uni061F
Encoding: 1567 1567 37
Width: 1093
GlyphClass: 2
Flags: W
LayerCount: 2
Fore
SplineSet
739.78 334.903 m 1,0,-1
 739.78 7.99002 l 1,1,-1
 464.162 7.99002 l 1,2,-1
 464.162 334.903 l 1,3,-1
 739.78 334.903 l 1,0,-1
470.197 411.315 m 1,4,-1
 470.197 570.749 l 2,5,6
 470.197 621.269 470.197 621.269 467.357 649.671 c 0,7,8
 464.747 675.774 464.747 675.774 459.658 694.151 c 0,9,10
 453.108 713.826 453.108 713.826 437.419 735.147 c 0,11,12
 419.406 759.626 419.406 759.626 374.188 804.845 c 2,13,-1
 285.971 891.058 l 1,14,15
 191.359 981.463 191.359 981.463 152.44 1055.53 c 0,16,17
 112.133 1132.23 112.133 1132.23 112.133 1217.48 c 0,18,19
 112.133 1393.66 112.133 1393.66 236.553 1501.91 c 0,20,21
 358.777 1608.25 358.777 1608.25 557.213 1608.25 c 0,22,23
 665.881 1608.25 665.881 1608.25 767.822 1578.66 c 0,24,25
 865.845 1550.22 865.845 1550.22 961.761 1493.16 c 2,26,-1
 985.195 1479.22 l 1,27,-1
 985.195 1203.53 l 1,28,-1
 910.773 1252.85 l 2,29,30
 826.293 1308.83 826.293 1308.83 748.884 1339.11 c 0,31,32
 665.156 1371.85 665.156 1371.85 592.416 1371.85 c 0,33,34
 496.794 1371.85 496.794 1371.85 440.881 1324.9 c 0,35,36
 387.75 1280.29 387.75 1280.29 387.75 1207.42 c 0,37,38
 387.75 1167.21 387.75 1167.21 409.073 1127.9 c 0,39,40
 431.935 1085.77 431.935 1085.77 485.384 1036.06 c 1,41,-1
 576.067 946.392 l 1,42,43
 671.775 854.736 671.775 854.736 702.669 783.022 c 0,44,45
 733.745 710.884 733.745 710.884 733.745 601.929 c 2,46,-1
 733.745 411.315 l 1,47,-1
 470.197 411.315 l 1,4,-1
EndSplineSet
EndChar

StartChar: uni0621
Encoding: 1569 1569 38
Width: 1030
VWidth: 2232
GlyphClass: 2
Flags: W
AnchorPoint: "Anchor-7" 521 77 basechar 0
AnchorPoint: "Anchor-10" 481.5 1218.5 basechar 0
LayerCount: 2
Fore
SplineSet
141.41 92.5068 m 1,0,-1
 141.41 348.347 l 1,1,-1
 183.902 355.535 l 2,2,3
 230.636 363.441 230.636 363.441 304.039 385.553 c 0,4,5
 326.409 392.132 326.409 392.132 347.536 400.269 c 1,6,7
 251.972 433.73 251.972 433.73 207.997 499.265 c 0,8,9
 145.69 592.132 145.69 592.132 145.69 692.061 c 0,10,11
 145.69 765.644 145.69 765.644 169.276 850.38 c 1,12,13
 205.088 989.573 205.088 989.573 326.229 1063.67 c 0,14,15
 440.042 1133.8 440.042 1133.8 554.26 1133.8 c 0,16,17
 666.271 1133.8 666.271 1133.8 761.279 1112.78 c 2,18,-1
 801.26 1103.93 l 1,19,-1
 801.26 836.038 l 1,20,-1
 736.405 854.345 l 2,21,22
 648.684 879.107 648.684 879.107 587.175 877.35 c 0,23,24
 540.309 876.431 540.309 876.431 494.475 852.112 c 1,25,26
 449.576 829.664 449.576 829.664 429.905 796.619 c 128,-1,27
 410.234 763.575 410.234 763.575 410.71 710.419 c 0,28,29
 410.71 612.957 410.71 612.957 599.686 565.722 c 0,30,31
 652.499 552.75 652.499 552.75 706.461 566.709 c 0,32,33
 763.667 581.807 763.667 581.807 812.358 607.089 c 2,34,-1
 886.86 645.771 l 1,35,-1
 886.86 376.414 l 1,36,-1
 863.335 361.37 l 2,37,38
 762.554 296.925 762.554 296.925 550.19 214.052 c 0,39,40
 321.993 125.141 321.993 125.141 201.479 103.362 c 2,41,-1
 141.41 92.5068 l 1,0,-1
EndSplineSet
EndChar

StartChar: uni0627
Encoding: 1575 1575 44
Width: 544
VWidth: 2232
GlyphClass: 2
Flags: W
AnchorPoint: "Anchor-10" 246.5 1510 basechar 0
AnchorPoint: "Anchor-7" 244.5 -65.5 basechar 0
LayerCount: 2
Fore
SplineSet
115.752 1324.87 m 1,0,-1
 375.94 1437.65 l 1,1,-1
 375.94 1.5 l 1,2,-1
 169.99 1.5 l 1,3,-1
 115.752 1324.87 l 1,0,-1
EndSplineSet
Substitution2: "'fina' Terminal Forms in Arabic lookup 9 subtable" uniFE8E
EndChar

StartChar: uni062D
Encoding: 1581 1581 50
Width: 1306
VWidth: 2232
GlyphClass: 2
Flags: W
AnchorPoint: "Anchor-10" 480.5 1347 basechar 0
AnchorPoint: "Anchor-7" 464.84 -704.5 basechar 0
LayerCount: 2
Fore
SplineSet
1154.86 892.338 m 1,0,-1
 1119.68 669.128 l 1,1,-1
 1082.74 663.549 l 2,2,3
 319.595 548.324 319.595 548.324 238.231 132.923 c 0,4,5
 216.064 17.835 216.064 17.835 248.551 -61.8799 c 128,-1,6
 281.038 -141.596 281.038 -141.596 371.059 -197.86 c 0,7,8
 594.41 -335.13 594.41 -335.13 901.326 -251.425 c 0,9,10
 1028.14 -216.84 1028.14 -216.84 1217.96 -118.587 c 2,11,-1
 1292.4 -80.0566 l 1,12,-1
 1292.4 -345.577 l 1,13,-1
 1273.59 -360.884 l 2,14,15
 1104.1 -498.812 1104.1 -498.812 818.915 -527.945 c 0,16,17
 491.148 -561.346 491.148 -561.346 276.461 -454.865 c 0,18,19
 120.174 -376.716 120.174 -376.716 41.6924 -241.46 c 128,-1,20
 -36.7881 -106.204 -36.7881 -106.204 -33.7969 77.6904 c 0,21,22
 -29.0928 326.133 -29.0928 326.133 135.812 504.257 c 128,-1,23
 300.715 682.382 300.715 682.382 613.705 787.518 c 1,24,25
 469.904 827.992 469.904 827.992 446.597 832.089 c 1,26,27
 326.743 842.59 326.743 842.59 207.422 688.724 c 2,28,-1
 176.29 648.58 l 1,29,-1
 -4.75 787.842 l 1,30,-1
 19.9434 827.12 l 2,31,32
 88.0293 935.428 88.0293 935.428 202.919 1021 c 0,33,34
 297.708 1090.58 297.708 1090.58 459.939 1078.65 c 0,35,36
 487.614 1076.61 487.614 1076.61 686.503 1016.71 c 0,37,38
 727.562 1004.34 727.562 1004.34 750.411 997.477 c 0,39,40
 899.599 952.678 899.599 952.678 1108.85 903.213 c 2,41,-1
 1154.86 892.338 l 1,0,-1
EndSplineSet
Substitution2: "'fina' Terminal Forms in Arabic lookup 9 subtable" uniFEA2
Substitution2: "'medi' Medial Forms in Arabic lookup 11 subtable" uniFEA4
Substitution2: "'init' Initial Forms in Arabic lookup 13 subtable" uniFEA3
EndChar

StartChar: uni062F
Encoding: 1583 1583 52
Width: 1013
VWidth: 2232
GlyphClass: 2
Flags: W
AnchorPoint: "Anchor-10" 340.935 1168.81 basechar 0
AnchorPoint: "Anchor-7" 390.059 -142.422 basechar 0
LayerCount: 2
Fore
SplineSet
412.632 260.228 m 0,0,1
 579.16 260.228 579.16 260.228 644.107 316.652 c 0,2,3
 664.841 334.359 664.841 334.359 668.473 354.012 c 128,-1,4
 672.104 373.665 672.104 373.665 658.211 412.519 c 1,5,6
 573.844 623.588 573.844 623.588 362.511 813.595 c 2,7,-1
 329.162 843.578 l 1,8,-1
 488.062 1073.82 l 1,9,-1
 531.327 1031.32 l 2,10,11
 884.061 684.866 884.061 684.866 916.7 417.173 c 0,12,13
 933.83 276.684 933.83 276.684 852.288 158.151 c 1,14,15
 743.015 -4.15527 743.015 -4.15527 419.735 -9.4248 c 0,16,17
 200.153 -13.6465 200.153 -13.6465 67.9551 34.6582 c 2,18,-1
 34.458 46.8975 l 1,19,-1
 34.458 323.627 l 1,20,-1
 100.966 302.399 l 2,21,22
 236.081 259.271 236.081 259.271 412.632 260.228 c 0,0,1
EndSplineSet
Substitution2: "'fina' Terminal Forms in Arabic lookup 9 subtable" uniFEAA
EndChar

StartChar: uni0631
Encoding: 1585 1585 54
Width: 955
VWidth: 2237
GlyphClass: 2
Flags: W
AnchorPoint: "Anchor-7" 583 -580.5 basechar 0
AnchorPoint: "Anchor-10" 500.81 993.01 basechar 0
LayerCount: 2
Fore
SplineSet
843.107 92.4199 m 4,0,1
 801.674 -199.028 801.674 -199.028 625.734 -351.103 c 132,-1,2
 449.794 -503.177 449.794 -503.177 152.218 -505.229 c 6,3,-1
 121.783 -505.438 l 5,4,-1
 0.868164 -284.945 l 5,5,-1
 80.2871 -279.355 l 6,6,7
 330.221 -261.77 330.221 -261.77 454.869 -162.515 c 132,-1,8
 579.518 -63.2598 579.518 -63.2598 595.879 122.303 c 4,9,10
 604.227 216.253 604.227 216.253 526.381 501.786 c 6,11,-1
 516.875 536.652 l 5,12,-1
 742.475 692.315 l 5,13,-1
 764.684 629.501 l 6,14,15
 874.985 317.558 874.985 317.558 843.107 92.4199 c 4,0,1
EndSplineSet
PairPos2: "'kern' Horizontal Kerning lookup 15-1" uniFEF3 dx=70 dy=0 dh=70 dv=0 dx=0 dy=0 dh=0 dv=0
PairPos2: "'kern' Horizontal Kerning lookup 15-1" uniFBFE dx=70 dy=0 dh=70 dv=0 dx=0 dy=0 dh=0 dv=0
PairPos2: "'kern' Horizontal Kerning lookup 15-1" uniFEDF dx=-70 dy=0 dh=-70 dv=0 dx=0 dy=0 dh=0 dv=0
PairPos2: "'kern' Horizontal Kerning lookup 15-1" uniFBAC dx=-70 dy=0 dh=-70 dv=0 dx=0 dy=0 dh=0 dv=0
PairPos2: "'kern' Horizontal Kerning lookup 15-1" uniFB90 dx=-70 dy=0 dh=-70 dv=0 dx=0 dy=0 dh=0 dv=0
PairPos2: "'kern' Horizontal Kerning lookup 15-1" uni06A9 dx=-70 dy=0 dh=-70 dv=0 dx=0 dy=0 dh=0 dv=0
PairPos2: "'kern' Horizontal Kerning lookup 15-1" uni0649 dx=-70 dy=0 dh=-70 dv=0 dx=0 dy=0 dh=0 dv=0
PairPos2: "'kern' Horizontal Kerning lookup 15-1" uni0647 dx=-70 dy=0 dh=-70 dv=0 dx=0 dy=0 dh=0 dv=0
PairPos2: "'kern' Horizontal Kerning lookup 15-1" uniFEE7 dx=-70 dy=0 dh=-70 dv=0 dx=0 dy=0 dh=0 dv=0
PairPos2: "'kern' Horizontal Kerning lookup 15-1" uniFEE3 dx=-70 dy=0 dh=-70 dv=0 dx=0 dy=0 dh=0 dv=0
PairPos2: "'kern' Horizontal Kerning lookup 15-1" uni0645 dx=-70 dy=0 dh=-70 dv=0 dx=0 dy=0 dh=0 dv=0
PairPos2: "'kern' Horizontal Kerning lookup 15-1" uni0644 dx=-70 dy=0 dh=-70 dv=0 dx=0 dy=0 dh=0 dv=0
PairPos2: "'kern' Horizontal Kerning lookup 15-1" uniFEDB dx=-70 dy=0 dh=-70 dv=0 dx=0 dy=0 dh=0 dv=0
PairPos2: "'kern' Horizontal Kerning lookup 15-1" uniFED7 dx=-70 dy=0 dh=-70 dv=0 dx=0 dy=0 dh=0 dv=0
PairPos2: "'kern' Horizontal Kerning lookup 15-1" uni0642 dx=-70 dy=0 dh=-70 dv=0 dx=0 dy=0 dh=0 dv=0
PairPos2: "'kern' Horizontal Kerning lookup 15-1" uniFED3 dx=-70 dy=0 dh=-70 dv=0 dx=0 dy=0 dh=0 dv=0
PairPos2: "'kern' Horizontal Kerning lookup 15-1" uni0641 dx=-70 dy=0 dh=-70 dv=0 dx=0 dy=0 dh=0 dv=0
PairPos2: "'kern' Horizontal Kerning lookup 15-1" uniFECF dx=-70 dy=0 dh=-70 dv=0 dx=0 dy=0 dh=0 dv=0
PairPos2: "'kern' Horizontal Kerning lookup 15-1" uniFECB dx=-70 dy=0 dh=-70 dv=0 dx=0 dy=0 dh=0 dv=0
PairPos2: "'kern' Horizontal Kerning lookup 15-1" uniFEC7 dx=-70 dy=0 dh=-70 dv=0 dx=0 dy=0 dh=0 dv=0
PairPos2: "'kern' Horizontal Kerning lookup 15-1" uni0638 dx=-70 dy=0 dh=-70 dv=0 dx=0 dy=0 dh=0 dv=0
PairPos2: "'kern' Horizontal Kerning lookup 15-1" uniFEC3 dx=-70 dy=0 dh=-70 dv=0 dx=0 dy=0 dh=0 dv=0
PairPos2: "'kern' Horizontal Kerning lookup 15-1" uni0637 dx=-70 dy=0 dh=-70 dv=0 dx=0 dy=0 dh=0 dv=0
PairPos2: "'kern' Horizontal Kerning lookup 15-1" uniFEBF dx=-70 dy=0 dh=-70 dv=0 dx=0 dy=0 dh=0 dv=0
PairPos2: "'kern' Horizontal Kerning lookup 15-1" uni0636 dx=-70 dy=0 dh=-70 dv=0 dx=0 dy=0 dh=0 dv=0
PairPos2: "'kern' Horizontal Kerning lookup 15-1" uniFEBB dx=-70 dy=0 dh=-70 dv=0 dx=0 dy=0 dh=0 dv=0
PairPos2: "'kern' Horizontal Kerning lookup 15-1" uni0635 dx=-70 dy=0 dh=-70 dv=0 dx=0 dy=0 dh=0 dv=0
PairPos2: "'kern' Horizontal Kerning lookup 15-1" uniFEB7 dx=-70 dy=0 dh=-70 dv=0 dx=0 dy=0 dh=0 dv=0
PairPos2: "'kern' Horizontal Kerning lookup 15-1" uni0634 dx=-70 dy=0 dh=-70 dv=0 dx=0 dy=0 dh=0 dv=0
PairPos2: "'kern' Horizontal Kerning lookup 15-1" uniFEB3 dx=-70 dy=0 dh=-70 dv=0 dx=0 dy=0 dh=0 dv=0
PairPos2: "'kern' Horizontal Kerning lookup 15-1" uni0633 dx=-70 dy=0 dh=-70 dv=0 dx=0 dy=0 dh=0 dv=0
PairPos2: "'kern' Horizontal Kerning lookup 15-1" uni0630 dx=-70 dy=0 dh=-70 dv=0 dx=0 dy=0 dh=0 dv=0
PairPos2: "'kern' Horizontal Kerning lookup 15-1" uni062F dx=-70 dy=0 dh=-70 dv=0 dx=0 dy=0 dh=0 dv=0
PairPos2: "'kern' Horizontal Kerning lookup 15-1" uniFEA7 dx=-70 dy=0 dh=-70 dv=0 dx=0 dy=0 dh=0 dv=0
PairPos2: "'kern' Horizontal Kerning lookup 15-1" uniFEA3 dx=-70 dy=0 dh=-70 dv=0 dx=0 dy=0 dh=0 dv=0
PairPos2: "'kern' Horizontal Kerning lookup 15-1" uniFE9F dx=-70 dy=0 dh=-70 dv=0 dx=0 dy=0 dh=0 dv=0
PairPos2: "'kern' Horizontal Kerning lookup 15-1" uniFE9B dx=-70 dy=0 dh=-70 dv=0 dx=0 dy=0 dh=0 dv=0
PairPos2: "'kern' Horizontal Kerning lookup 15-1" uni062B dx=-70 dy=0 dh=-70 dv=0 dx=0 dy=0 dh=0 dv=0
PairPos2: "'kern' Horizontal Kerning lookup 15-1" uniFE97 dx=-70 dy=0 dh=-70 dv=0 dx=0 dy=0 dh=0 dv=0
PairPos2: "'kern' Horizontal Kerning lookup 15-1" uni062A dx=-70 dy=0 dh=-70 dv=0 dx=0 dy=0 dh=0 dv=0
PairPos2: "'kern' Horizontal Kerning lookup 15-1" uni0629 dx=-70 dy=0 dh=-70 dv=0 dx=0 dy=0 dh=0 dv=0
PairPos2: "'kern' Horizontal Kerning lookup 15-1" uniFE91 dx=-70 dy=0 dh=-70 dv=0 dx=0 dy=0 dh=0 dv=0
PairPos2: "'kern' Horizontal Kerning lookup 15-1" uni0628 dx=-70 dy=0 dh=-70 dv=0 dx=0 dy=0 dh=0 dv=0
PairPos2: "'kern' Horizontal Kerning lookup 15-1" uni0627 dx=-70 dy=0 dh=-70 dv=0 dx=0 dy=0 dh=0 dv=0
PairPos2: "'kern' Horizontal Kerning lookup 15-1" uni0622 dx=-70 dy=0 dh=-70 dv=0 dx=0 dy=0 dh=0 dv=0
PairPos2: "'kern' Horizontal Kerning lookup 15-1" uniFB94 dx=-70 dy=0 dh=-70 dv=0 dx=0 dy=0 dh=0 dv=0
PairPos2: "'kern' Horizontal Kerning lookup 15-1" afii57509 dx=-70 dy=0 dh=-70 dv=0 dx=0 dy=0 dh=0 dv=0
PairPos2: "'kern' Horizontal Kerning lookup 15-1" uniFB56 dx=-70 dy=0 dh=-70 dv=0 dx=0 dy=0 dh=0 dv=0
PairPos2: "'kern' Horizontal Kerning lookup 15-1" afii57506 dx=-70 dy=0 dh=-70 dv=0 dx=0 dy=0 dh=0 dv=0
Substitution2: "'fina' Terminal Forms in Arabic lookup 9 subtable" uniFEAE
EndChar

StartChar: uni0633
Encoding: 1587 1587 56
Width: 2238
VWidth: 2237
GlyphClass: 2
Flags: W
AnchorPoint: "Anchor-10" 492.51 897.5 basechar 0
AnchorPoint: "Anchor-7" 336.5 -613.03 basechar 0
LayerCount: 2
Fore
SplineSet
1186.57 345.807 m 0,0,1
 1201.37 302.886 1201.37 302.886 1233.92 283.96 c 128,-1,2
 1266.47 265.034 1266.47 265.034 1329.89 267.696 c 0,3,4
 1360.71 268.99 1360.71 268.99 1383.69 285.08 c 128,-1,5
 1406.66 301.17 1406.66 301.17 1424.16 336.497 c 128,-1,6
 1441.66 371.823 1441.66 371.823 1448.28 435.39 c 128,-1,7
 1454.9 498.955 1454.9 498.955 1449.42 588.234 c 2,8,-1
 1446.09 642.36 l 1,9,-1
 1694.96 642.36 l 1,10,-1
 1695.12 591.516 l 2,11,12
 1695.39 503.3 1695.39 503.3 1705.26 438.759 c 128,-1,13
 1715.13 374.218 1715.13 374.218 1732.38 338.463 c 128,-1,14
 1749.64 302.709 1749.64 302.709 1769.54 285.619 c 128,-1,15
 1789.43 268.529 1789.43 268.529 1813.33 266.439 c 0,16,17
 1852.27 263.035 1852.27 263.035 1869.71 273.059 c 128,-1,18
 1887.16 283.082 1887.16 283.082 1896.75 310.479 c 0,19,20
 1913.44 358.151 1913.44 358.151 1902.02 519.013 c 0,21,22
 1899.84 549.629 1899.84 549.629 1869.62 703.484 c 2,23,-1
 1860.17 751.557 l 1,24,-1
 2098.93 808.5 l 1,25,-1
 2114.29 765.4 l 2,26,27
 2148.26 670.09 2148.26 670.09 2156.8 528.71 c 0,28,29
 2166.7 364.744 2166.7 364.744 2145.13 252.718 c 128,-1,30
 2123.56 140.692 2123.56 140.692 2062.97 75.6162 c 0,31,32
 1995.78 4.79688 1995.78 4.79688 1842.69 0.0263672 c 0,33,34
 1680.2 -5.41699 1680.2 -5.41699 1594.6 92.8096 c 1,35,36
 1515.12 1.72754 1515.12 1.72754 1332.95 1.55859 c 0,37,38
 1256.56 0.572266 1256.56 0.572266 1198.84 26.2832 c 1,39,40
 1175.7 -189.828 1175.7 -189.828 1056.33 -310.758 c 0,41,42
 887.392 -481.482 887.392 -481.482 581.852 -472.042 c 0,43,44
 334.181 -464.389 334.181 -464.389 195.468 -328.579 c 128,-1,45
 56.7549 -192.769 56.7549 -192.769 39.5508 58.0957 c 0,46,47
 25.207 266.005 25.207 266.005 141.034 466.309 c 2,48,-1
 162.149 502.822 l 1,49,-1
 377.174 427.842 l 1,50,-1
 356.701 378.03 l 2,51,52
 275.436 180.31 275.436 180.31 291.587 56.4443 c 0,53,54
 307.812 -69.0635 307.812 -69.0635 375.326 -134.519 c 128,-1,55
 442.841 -199.974 442.841 -199.974 572.066 -215.263 c 1,56,-1
 592.424 -216.632 l 1,57,58
 794.609 -220.057 794.609 -220.057 883.956 -120.696 c 0,59,60
 962.608 -33.2295 962.608 -33.2295 965.978 97.832 c 0,61,62
 971.19 294.555 971.19 294.555 888.5 395.571 c 2,63,-1
 858.579 432.121 l 1,64,-1
 1086.98 650.343 l 1,65,-1
 1111.42 571.775 l 2,66,67
 1136.95 489.705 1136.95 489.705 1186.57 345.807 c 0,0,1
EndSplineSet
Substitution2: "'fina' Terminal Forms in Arabic lookup 9 subtable" uniFEB2
Substitution2: "'medi' Medial Forms in Arabic lookup 11 subtable" uniFEB4
Substitution2: "'init' Initial Forms in Arabic lookup 13 subtable" uniFEB3
EndChar

StartChar: uni0635
Encoding: 1589 1589 58
Width: 2383
VWidth: 2232
GlyphClass: 2
Flags: W
AnchorPoint: "Anchor-10" 382.84 897.5 basechar 0
AnchorPoint: "Anchor-7" 347.84 -650.5 basechar 0
LayerCount: 2
Fore
SplineSet
1480.19 282.197 m 1,0,-1
 1547.95 282.197 l 2,1,2
 1698.09 282.197 1698.09 282.197 1799.36 293.013 c 128,-1,3
 1900.64 303.829 1900.64 303.829 1934.9 320.204 c 0,4,5
 2029.4 365.366 2029.4 365.366 2038.73 413.83 c 1,6,7
 2047.08 471.593 2047.08 471.593 2024.3 503.197 c 0,8,9
 2000.07 536.828 2000.07 536.828 1944.76 544.853 c 0,10,11
 1833.12 562.129 1833.12 562.129 1723.31 487.801 c 0,12,13
 1587.83 397.481 1587.83 397.481 1480.19 282.197 c 1,0,-1
1321.55 -1.6543 m 2,14,15
 1255.6 -2.08984 1255.6 -2.08984 1201.2 40.1729 c 1,16,17
 1180.55 -185.931 1180.55 -185.931 1057.33 -310.758 c 0,18,19
 888.392 -481.482 888.392 -481.482 582.852 -472.042 c 0,20,21
 335.181 -464.389 335.181 -464.389 196.468 -328.579 c 128,-1,22
 57.7549 -192.769 57.7549 -192.769 40.5508 58.0957 c 0,23,24
 26.207 266.005 26.207 266.005 142.034 466.309 c 2,25,-1
 163.149 502.822 l 1,26,-1
 378.174 427.842 l 1,27,-1
 357.701 378.03 l 2,28,29
 276.436 180.31 276.436 180.31 292.587 56.4443 c 0,30,31
 308.812 -69.0635 308.812 -69.0635 376.326 -134.519 c 128,-1,32
 443.841 -199.974 443.841 -199.974 573.066 -215.263 c 1,33,-1
 593.424 -216.632 l 1,34,35
 795.609 -220.057 795.609 -220.057 884.956 -120.696 c 0,36,37
 963.608 -33.2295 963.608 -33.2295 966.978 97.832 c 0,38,39
 972.19 294.555 972.19 294.555 889.5 395.571 c 2,40,-1
 859.579 432.121 l 1,41,-1
 1087.98 650.343 l 1,42,-1
 1112.42 571.775 l 2,43,44
 1137.39 491.49 1137.39 491.49 1186.24 349.69 c 1,45,46
 1192.97 338.166 1192.97 338.166 1202.65 334.036 c 1,47,48
 1422.68 656.639 1422.68 656.639 1698.19 777.753 c 1,49,50
 1950.36 890.648 1950.36 890.648 2141.88 771.392 c 0,51,52
 2321.16 658.919 2321.16 658.919 2298.72 377.023 c 0,53,54
 2286.42 231.045 2286.42 231.045 2122.25 108.878 c 0,55,56
 1976.19 0.188477 1976.19 0.188477 1605.91 0.188477 c 1,57,-1
 1321.55 -1.6543 l 2,14,15
EndSplineSet
Substitution2: "'fina' Terminal Forms in Arabic lookup 9 subtable" uniFEBA
Substitution2: "'medi' Medial Forms in Arabic lookup 11 subtable" uniFEBC
Substitution2: "'init' Initial Forms in Arabic lookup 13 subtable" uniFEBB
EndChar

StartChar: uni0637
Encoding: 1591 1591 60
Width: 1478
VWidth: 2232
GlyphClass: 2
Flags: W
AnchorPoint: "Anchor-10" 278.72 1502.47 basechar 0
AnchorPoint: "Anchor-7" 284.72 -119 basechar 0
LayerCount: 2
Fore
SplineSet
620.344 282.009 m 1,0,-1
 688.115 282.009 l 2,1,2
 838.25 282.009 838.25 282.009 939.523 292.825 c 128,-1,3
 1040.8 303.641 1040.8 303.641 1075.06 320.016 c 0,4,5
 1169.56 365.179 1169.56 365.179 1178.89 413.645 c 1,6,7
 1187.24 471.405 1187.24 471.405 1164.46 503.009 c 0,8,9
 1140.23 536.64 1140.23 536.64 1084.92 544.665 c 0,10,11
 973.268 561.938 973.268 561.938 863.461 487.607 c 0,12,13
 727.995 397.297 727.995 397.297 620.344 282.009 c 1,0,-1
745.898 0 m 2,14,-1
 -35.25 0 l 1,15,-1
 -35.25 270.979 l 1,16,-1
 201.28 270.979 l 1,17,-1
 201.28 1340.53 l 5,18,-1
 465.03 1445.11 l 5,19,-1
 425.189 445.006 l 1,20,21
 612.274 676.366 612.274 676.366 838.188 777.493 c 0,22,23
 1090.53 890.452 1090.53 890.452 1282.06 771.195 c 0,24,25
 1462.6 657.907 1462.6 657.907 1438.87 376.714 c 0,26,27
 1426.58 230.857 1426.58 230.857 1262.41 108.689 c 0,28,29
 1116.35 0 1116.35 0 745.898 0 c 2,14,-1
EndSplineSet
Substitution2: "'fina' Terminal Forms in Arabic lookup 9 subtable" uniFEC2
Substitution2: "'medi' Medial Forms in Arabic lookup 11 subtable" uniFEC4
Substitution2: "'init' Initial Forms in Arabic lookup 13 subtable" uniFEC3
EndChar

StartChar: uni0639
Encoding: 1593 1593 62
Width: 1301
VWidth: 2232
GlyphClass: 2
Flags: W
AnchorPoint: "Anchor-10" 520.325 1398.51 basechar 0
AnchorPoint: "Anchor-7" 577.235 -675.76 basechar 0
LayerCount: 2
Fore
SplineSet
666.001 -248.469 m 0,0,1
 915.92 -236.68 915.92 -236.68 1106.92 -139.793 c 2,2,-1
 1166.03 -109.807 l 1,3,-1
 1220.98 -367.212 l 1,4,-1
 1184.7 -384.552 l 2,5,6
 1001.54 -472.094 1001.54 -472.094 778.333 -496.89 c 0,7,8
 641.71 -512.39 641.71 -512.39 522.864 -500.772 c 0,9,10
 274.808 -477.537 274.808 -477.537 147.08 -322.482 c 0,11,12
 17.5107 -165.497 17.5107 -165.497 36.4971 72.6572 c 0,13,14
 55.251 312.284 55.251 312.284 324.779 516.777 c 1,15,16
 302.469 529.489 302.469 529.489 280.265 546.513 c 0,17,18
 158.473 639.895 158.473 639.895 152.28 812.473 c 0,19,20
 147.913 953.75 147.913 953.75 220.083 1051.13 c 128,-1,21
 292.254 1148.51 292.254 1148.51 432.039 1192.07 c 0,22,23
 612.631 1248.75 612.631 1248.75 847.473 1128.89 c 2,24,-1
 885.165 1109.65 l 1,25,-1
 818.362 882.774 l 1,26,-1
 764.35 908.599 l 2,27,28
 629.104 973.262 629.104 973.262 535.367 958.617 c 0,29,30
 462.155 947.18 462.155 947.18 432.518 916.061 c 128,-1,31
 402.88 884.941 402.88 884.941 402.88 824.72 c 0,32,33
 402.88 775.422 402.88 775.422 418.438 747.03 c 128,-1,34
 433.994 718.639 433.994 718.639 466.888 702.131 c 0,35,36
 501.944 684.536 501.944 684.536 524.846 680.346 c 1,37,-1
 994.04 723.272 l 1,38,-1
 994.04 460.652 l 1,39,-1
 948.198 455.992 l 2,40,41
 684.417 429.178 684.417 429.178 535.823 344.354 c 0,42,43
 308.97 213.298 308.97 213.298 301.545 44.9814 c 0,44,45
 295.383 -102.717 295.383 -102.717 389.999 -174.185 c 0,46,47
 499.889 -255.984 499.889 -255.984 666.001 -248.469 c 0,0,1
EndSplineSet
Substitution2: "'fina' Terminal Forms in Arabic lookup 9 subtable" uniFECA
Substitution2: "'medi' Medial Forms in Arabic lookup 11 subtable" uniFECC
Substitution2: "'init' Initial Forms in Arabic lookup 13 subtable" uniFECB
EndChar

StartChar: afii57440
Encoding: 1600 1600 64
Width: 642
VWidth: 2232
GlyphClass: 2
Flags: W
AnchorPoint: "Anchor-10" 321 1325.5 basechar 0
AnchorPoint: "Anchor-7" 321 -65.5 basechar 0
LayerCount: 2
Fore
SplineSet
-54.4004 0 m 1,0,-1
 -54.4004 270.979 l 1,1,-1
 696.4 270.979 l 1,2,-1
 696.4 0 l 5,3,-1
 -54.4004 0 l 1,0,-1
EndSplineSet
EndChar

StartChar: uni0643
Encoding: 1603 1603 67
Width: 1785
VWidth: 2232
GlyphClass: 2
Flags: W
AnchorPoint: "Anchor-10" 531 1445.5 basechar 0
AnchorPoint: "Anchor-7" 789 -172.5 basechar 0
LayerCount: 2
Fore
SplineSet
1095.77 1286.4 m 1,0,-1
 1095.77 1132.74 l 1,1,-1
 1048.51 1129.26 l 2,2,3
 986.002 1124.66 986.002 1124.66 954.382 1113 c 0,4,5
 934.38 1105.5 934.38 1105.5 918.909 1096.74 c 128,-1,6
 903.438 1087.98 903.438 1087.98 897.602 1083.03 c 128,-1,7
 891.765 1078.07 891.765 1078.07 890.334 1075.59 c 1,8,9
 890.605 1058.7 890.605 1058.7 897.26 1049.07 c 1,10,11
 913.426 1039.41 913.426 1039.41 962.711 1032.16 c 0,12,13
 1027.56 1022.62 1027.56 1022.62 1064.01 989.321 c 0,14,15
 1105.05 951.844 1105.05 951.844 1105.05 889.298 c 0,16,17
 1105.05 828.158 1105.05 828.158 1075.02 778.82 c 128,-1,18
 1044.98 729.482 1044.98 729.482 989.944 698.358 c 0,19,20
 909.612 652.928 909.612 652.928 801.926 651.929 c 0,21,22
 737.523 651.929 737.523 651.929 680.746 661.412 c 2,23,-1
 638.148 668.526 l 1,24,-1
 638.148 828.331 l 1,25,-1
 695.812 820.729 l 2,26,27
 753.256 813.158 753.256 813.158 792.059 813.158 c 0,28,29
 857.19 813.158 857.19 813.158 896.611 828.678 c 0,30,31
 948.45 848.587 948.45 848.587 948.45 867.898 c 1,32,33
 949.605 884.885 949.605 884.885 893.576 894.014 c 0,34,35
 820.173 905.199 820.173 905.199 777.499 948.845 c 0,36,37
 731.684 995.704 731.684 995.704 733.387 1074.08 c 0,38,39
 734.652 1125.26 734.652 1125.26 761.045 1165.93 c 128,-1,40
 787.438 1206.59 787.438 1206.59 833.85 1230.11 c 0,41,42
 923.539 1275.48 923.539 1275.48 1041.54 1282.96 c 2,43,-1
 1095.77 1286.4 l 1,0,-1
805.019 271.8 m 0,44,45
 1007.29 265.872 1007.29 265.872 1125.87 278.187 c 0,46,47
 1296.26 295.878 1296.26 295.878 1375.65 338.69 c 128,-1,48
 1455.03 381.503 1455.03 381.503 1460.89 437.366 c 2,49,-1
 1466.29 488.951 l 1,50,-1
 1419.63 1340.27 l 5,51,-1
 1684.3 1442.27 l 5,52,-1
 1684.3 457.814 l 2,53,54
 1684.3 438.438 1684.3 438.438 1681.53 398.023 c 0,55,56
 1672.96 272.935 1672.96 272.935 1584.98 185.058 c 128,-1,57
 1497 97.1807 1497 97.1807 1341.35 48.5928 c 0,58,59
 1185.4 -0.0830078 1185.4 -0.0830078 910.636 2.00195 c 0,60,61
 563.242 4.87207 563.242 4.87207 437.353 40.2139 c 0,62,63
 264.073 89.5752 264.073 89.5752 164.489 206.016 c 128,-1,64
 64.9043 322.456 64.9043 322.456 46.2568 498.153 c 0,65,66
 32.7963 625.215 32.7963 625.215 83.2178 766.416 c 2,67,-1
 97.9902 807.785 l 1,68,-1
 346.467 758.908 l 1,69,-1
 334.544 707.522 l 2,70,71
 304.867 579.621 304.867 579.621 312.465 530.996 c 0,72,73
 327.259 432.853 327.259 432.853 381.102 375.436 c 128,-1,74
 434.944 318.02 434.944 318.02 535.776 293.72 c 0,75,76
 602.031 277.753 602.031 277.753 805.019 271.8 c 0,44,45
EndSplineSet
Substitution2: "'fina' Terminal Forms in Arabic lookup 9 subtable" uniFEDA
Substitution2: "'medi' Medial Forms in Arabic lookup 11 subtable" uniFEDC
Substitution2: "'init' Initial Forms in Arabic lookup 13 subtable" uniFEDB
EndChar

StartChar: uni0644
Encoding: 1604 1604 68
Width: 1276
VWidth: 2232
GlyphClass: 2
Flags: W
AnchorPoint: "Anchor-10" 439.01 1120.5 basechar 0
AnchorPoint: "Anchor-7" 416.15 -576.616 basechar 0
LayerCount: 2
Fore
SplineSet
957.542 205.392 m 2,0,-1
 955.915 496.278 l 1,1,-1
 923.692 1336.6 l 5,2,-1
 1183.79 1444.37 l 5,3,-1
 1183.79 497.32 l 2,4,5
 1183.79 305.507 1183.79 305.507 1181.44 239.938 c 1,6,7
 1175.75 -55.4297 1175.75 -55.4297 1050.86 -205.36 c 0,8,9
 895.8 -389.668 895.8 -389.668 620.832 -396.686 c 0,10,11
 310.403 -405.016 310.403 -405.016 136.915 -233.918 c 0,12,13
 -11.3291 -87.2178 -11.3291 -87.2178 -7.62207 155.833 c 0,14,15
 -4.06932 388.649 -4.06932 388.649 85.0264 568.964 c 2,16,-1
 103.18 605.703 l 1,17,-1
 355.785 543.372 l 1,18,-1
 331.456 487.89 l 2,19,20
 253.01 308.994 253.01 308.994 258.023 162.934 c 0,21,22
 262.886 21.2656 262.886 21.2656 336.252 -46.0723 c 0,23,24
 435.776 -137.503 435.776 -137.503 606.132 -132.965 c 0,25,26
 753.73 -129.444 753.73 -129.444 829.473 -74.4785 c 0,27,28
 958.58 19.888 958.58 19.888 957.542 205.392 c 2,0,-1
EndSplineSet
Substitution2: "'fina' Terminal Forms in Arabic lookup 9 subtable" uniFEDE
Substitution2: "'medi' Medial Forms in Arabic lookup 11 subtable" uniFEE0
Substitution2: "'init' Initial Forms in Arabic lookup 13 subtable" uniFEDF
EndChar

StartChar: uni0645
Encoding: 1605 1605 69
Width: 1113
VWidth: 2232
GlyphClass: 2
Flags: W
AnchorPoint: "Anchor-10" 544.5 1057.31 basechar 0
AnchorPoint: "Anchor-7" 131.631 -678.952 basechar 0
LayerCount: 2
Fore
SplineSet
503.204 410.947 m 0,0,1
 618.835 405.167 618.835 405.167 630.123 404.999 c 0,2,3
 747.256 405.07 747.256 405.07 787.252 416.199 c 1,4,5
 795.336 421.176 795.336 421.176 805.645 443.551 c 0,6,7
 810.199 453.503 810.199 453.503 810.392 464.109 c 128,-1,8
 810.584 474.716 810.584 474.716 805.858 488.099 c 128,-1,9
 801.134 501.48 801.134 501.48 787.555 516.393 c 128,-1,10
 773.977 531.305 773.977 531.305 752.745 547.821 c 128,-1,11
 731.514 564.338 731.514 564.338 696.821 583.396 c 128,-1,12
 662.129 602.454 662.129 602.454 616.931 622.082 c 1,13,14
 572.747 639.742 572.747 639.742 549.395 635.661 c 128,-1,15
 526.042 631.581 526.042 631.581 504.822 606.581 c 1,16,17
 465.645 549 465.645 549 472.509 413.031 c 1,18,19
 485.484 411.766 485.484 411.766 503.204 410.947 c 0,0,1
376 154 m 0,20,21
 276.748 154 276.748 154 252.515 106.583 c 0,22,23
 225.454 53.3643 225.454 53.3643 233.95 -66.6523 c 2,24,-1
 268.22 -550.709 l 1,25,-1
 15 -694.656 l 1,26,-1
 15 -24 l 2,27,28
 15 181.005 15 181.005 100.879 289.482 c 0,29,30
 149.415 351.344 149.415 351.344 221.688 375.48 c 1,31,32
 215.344 666.758 215.344 666.758 341.471 785.787 c 0,33,34
 424.621 864.923 424.621 864.923 524.395 880.17 c 128,-1,35
 624.168 895.417 624.168 895.417 728.77 845.272 c 0,36,37
 1108.9 664.011 1108.9 664.011 1046.76 423.234 c 0,38,39
 1017.44 310.079 1017.44 310.079 993.531 254.69 c 128,-1,40
 969.623 199.303 969.623 199.303 927.07 177.284 c 0,41,42
 914.301 170.677 914.301 170.677 900.205 168.937 c 1,43,44
 826.094 143.061 826.094 143.061 655.573 148.021 c 0,45,46
 477.262 154 477.262 154 376 154 c 0,20,21
EndSplineSet
Substitution2: "'init' Initial Forms in Arabic lookup 13 subtable" uniFEE3
Substitution2: "'medi' Medial Forms in Arabic lookup 11 subtable" uniFEE4
Substitution2: "'fina' Terminal Forms in Arabic lookup 9 subtable" uniFEE2
EndChar

StartChar: uni0647
Encoding: 1607 1607 71
Width: 1002
VWidth: 2283
GlyphClass: 2
Flags: W
AnchorPoint: "Anchor-10" 438.924 1251.58 basechar 0
AnchorPoint: "Anchor-7" 347.864 -79.5596 basechar 0
LayerCount: 2
Fore
SplineSet
322.957 415.065 m 0,0,1
 302.363 358.017 302.363 358.017 318.27 328.35 c 0,2,3
 337.633 292.235 337.633 292.235 399.415 267.098 c 0,4,5
 467.654 239.654 467.654 239.654 560.263 260.177 c 0,6,7
 592.402 267.02 592.402 267.02 608.241 280.836 c 128,-1,8
 624.081 294.653 624.081 294.653 631.418 319.942 c 0,9,10
 644.072 363.56 644.072 363.56 615.271 445.532 c 1,11,12
 561.236 553.4 561.236 553.4 473.986 635.173 c 1,13,14
 354.996 508.432 354.996 508.432 322.957 415.065 c 0,0,1
122.402 602.709 m 0,15,16
 186.87 707.574 186.87 707.574 275.862 804.086 c 1,17,-1
 237.189 837.338 l 1,18,-1
 410.438 1022.66 l 1,19,-1
 446.869 996.338 l 2,20,21
 745.46 780.579 745.46 780.579 845.947 566.026 c 0,22,23
 897.229 457.469 897.229 457.469 904.374 363.071 c 128,-1,24
 911.519 268.673 911.519 268.673 871.372 190.649 c 128,-1,25
 831.225 112.627 831.225 112.627 743.845 59.6611 c 0,26,27
 650.178 2.88477 650.178 2.88477 483.066 4.43457 c 0,28,29
 328.154 5.89258 328.154 5.89258 240.149 47.9424 c 0,30,31
 75.6504 126.687 75.6504 126.687 47.0068 277.719 c 0,32,33
 17.6777 432.365 17.6777 432.365 122.402 602.709 c 0,15,16
EndSplineSet
Substitution2: "'fina' Terminal Forms in Arabic lookup 9 subtable" uniFEEA
Substitution2: "'medi' Medial Forms in Arabic lookup 11 subtable" uniFEEC
Substitution2: "'init' Initial Forms in Arabic lookup 13 subtable" uniFEEB
EndChar

StartChar: uni0648
Encoding: 1608 1608 72
Width: 934
VWidth: 2232
GlyphClass: 2
Flags: W
AnchorPoint: "Anchor-10" 412.282 1083.17 basechar 0
AnchorPoint: "Anchor-7" 577.191 -538.443 basechar 0
LayerCount: 2
Fore
SplineSet
455.978 516.799 m 0,0,1
 405.422 515.467 405.422 515.467 372.586 484.315 c 128,-1,2
 339.75 453.164 339.75 453.164 319.694 379.609 c 0,3,4
 315.647 364.592 315.647 364.592 313.521 351.129 c 0,5,6
 305.391 299.624 305.391 299.624 321.884 277.758 c 128,-1,7
 338.378 255.893 338.378 255.893 393.402 247.333 c 0,8,9
 521.55 226.91 521.55 226.91 609.345 277.966 c 1,10,11
 607.82 307.775 607.82 307.775 596.541 364.522 c 0,12,13
 579.075 450.325 579.075 450.325 545.273 484.304 c 128,-1,14
 511.472 518.283 511.472 518.283 455.978 516.799 c 0,0,1
833.275 16.8633 m 0,15,16
 806.152 -141.491 806.152 -141.491 714.285 -259.872 c 0,17,18
 525.095 -503.688 525.095 -503.688 148.427 -506.998 c 2,19,-1
 117.694 -507.268 l 1,20,-1
 -2.85938 -283.89 l 1,21,-1
 76.917 -279.092 l 2,22,23
 290.185 -266.267 290.185 -266.267 410.857 -193.893 c 128,-1,24
 531.531 -121.519 531.531 -121.519 572.237 9.00391 c 1,25,26
 512.016 -6.75781 512.016 -6.75781 428.861 -8.24316 c 0,27,28
 219.175 -11.6611 219.175 -11.6611 129.045 106.003 c 0,29,30
 49.6826 209.692 49.6826 209.692 66.4297 334.438 c 0,31,32
 92.3613 533.378 92.3613 533.378 213.525 651.401 c 1,33,34
 366.721 798.634 366.721 798.634 551.424 756.45 c 0,35,36
 677.848 727.126 677.848 727.126 758.531 594.301 c 0,37,38
 833.029 471.659 833.029 471.659 847.878 311.44 c 0,39,40
 859.89 175.491 859.89 175.491 833.275 16.8633 c 0,15,16
EndSplineSet
Substitution2: "'fina' Terminal Forms in Arabic lookup 9 subtable" uniFEEE
EndChar

StartChar: uni0649
Encoding: 1609 1609 73
Width: 1646
VWidth: 2232
GlyphClass: 2
Flags: W
AnchorPoint: "Anchor-10" 405.722 1017.33 basechar 0
AnchorPoint: "Anchor-7" 528.423 -575.472 basechar 0
LayerCount: 2
Fore
SplineSet
1377.43 -159.928 m 0,0,1
 1095.02 -398.485 1095.02 -398.485 715.684 -412.294 c 0,2,3
 515.858 -419.165 515.858 -419.165 374.163 -352.593 c 128,-1,4
 232.469 -286.021 232.469 -286.021 158.422 -145.242 c 0,5,6
 65.8086 31.1504 65.8086 31.1504 118.623 287.701 c 0,7,8
 159.745 488.825 159.745 488.825 276.368 681.416 c 2,9,-1
 299.644 719.854 l 1,10,-1
 532.187 616.508 l 1,11,-1
 507.276 568.431 l 2,12,13
 432.07 423.287 432.07 423.287 393.257 299.226 c 0,14,15
 334.101 110.14 334.101 110.14 401.253 -7.45703 c 0,16,17
 480.49 -145.227 480.49 -145.227 721.582 -139.343 c 0,18,19
 962.373 -133.175 962.373 -133.175 1125.78 -32.541 c 0,20,21
 1206.93 17.4368 1206.93 17.4368 1249.5 59.0047 c 0,22,23
 1288.92 97.504 1288.92 97.504 1233.5 99.6063 c 0,24,25
 1216.47 100.252 1216.47 100.252 1195.92 99.7939 c 0,26,27
 1002.26 95.4756 1002.26 95.4756 915.581 167.71 c 0,28,29
 856.567 216.891 856.567 216.891 843.613 293.08 c 128,-1,30
 830.659 369.271 830.659 369.271 860.885 452.239 c 1,31,32
 926.303 650.331 926.303 650.331 1063.5 739.701 c 0,33,34
 1200.26 829.058 1200.26 829.058 1357.5 812.798 c 4,35,36
 1524.9 796.467 1524.9 796.467 1604.55 709.096 c 1,37,-1
 1507.5 499.701 l 1,38,39
 1493 524.408 1493 524.408 1399.5 535.701 c 0,40,41
 1289.09 549.036 1289.09 549.036 1216.77 514.238 c 0,42,43
 1112.81 463.353 1112.81 463.353 1087.62 372.701 c 0,44,45
 1081.48 350.589 1081.48 350.589 1111.5 350.535 c 0,46,47
 1228.05 352.09 1228.05 352.09 1288.36 346.489 c 128,-1,48
 1348.67 340.888 1348.67 340.888 1391.64 322.724 c 0,49,50
 1472.39 288.326 1472.39 288.326 1506.12 217.924 c 128,-1,51
 1539.86 147.521 1539.86 147.521 1523.05 55.5039 c 0,52,53
 1503.07 -53.7969 1503.07 -53.7969 1377.43 -159.928 c 0,0,1
EndSplineSet
Substitution2: "'fina' Terminal Forms in Arabic lookup 9 subtable" uniFEF0
Substitution2: "'medi' Medial Forms in Arabic lookup 11 subtable" uniFBE9
Substitution2: "'init' Initial Forms in Arabic lookup 13 subtable" uniFBE8
EndChar

StartChar: uni064B
Encoding: 1611 1611 75
Width: 0
VWidth: 2186
GlyphClass: 4
Flags: W
AnchorPoint: "Anchor-10" 547.84 1041.5 mark 0
AnchorPoint: "Anchor-9" 547.84 1041.5 mark 0
AnchorPoint: "Anchor-1" 547.84 1576.5 basemark 0
AnchorPoint: "Anchor-1" 547.84 1041.5 mark 0
LayerCount: 2
Fore
SplineSet
269.4 977.41 m 5,0,-1
 269.4 1104.48 l 5,1,-1
 827.28 1332.79 l 5,2,-1
 827.28 1205.72 l 5,3,-1
 269.4 977.41 l 5,0,-1
269.4 1234.21 m 5,4,-1
 269.4 1361.28 l 5,5,-1
 827.28 1589.59 l 5,6,-1
 827.28 1462.52 l 5,7,-1
 269.4 1234.21 l 5,4,-1
EndSplineSet
EndChar

StartChar: uni064C
Encoding: 1612 1612 76
Width: 0
VWidth: 2186
GlyphClass: 4
Flags: W
AnchorPoint: "Anchor-10" 554.386 1155.44 mark 0
AnchorPoint: "Anchor-9" 554.386 1155.44 mark 0
AnchorPoint: "Anchor-1" 546.386 1810.94 basemark 0
AnchorPoint: "Anchor-1" 554.386 1155.44 mark 0
LayerCount: 2
Fore
SplineSet
567.219 1298.72 m 0,0,1
 608.391 1338.78 608.391 1338.78 631.845 1385.69 c 2,2,-1
 639.364 1400.73 l 1,3,-1
 622.913 1404.22 l 2,4,5
 589.558 1411.29 589.558 1411.29 566.532 1424.31 c 0,6,7
 457.736 1481.73 457.736 1481.73 457.736 1574.47 c 0,8,9
 457.736 1661.08 457.736 1661.08 526.365 1712.8 c 0,10,11
 552.86 1732.67 552.86 1732.67 615.937 1732.67 c 0,12,13
 688.759 1732.67 688.759 1732.67 727.738 1694.66 c 0,14,15
 782.696 1640.71 782.696 1640.71 782.696 1561.63 c 0,16,17
 782.696 1521.9 782.696 1521.9 770.46 1483.15 c 2,18,-1
 765.402 1467.14 l 1,19,-1
 782.175 1466.26 l 2,20,21
 802.247 1465.2 802.247 1465.2 817.806 1465.17 c 0,22,23
 831.205 1464.45 831.205 1464.45 845.826 1464.2 c 1,24,-1
 845.826 1372.44 l 1,25,26
 806.232 1372.69 806.232 1372.69 788.381 1374.48 c 2,27,-1
 723.27 1380.74 l 1,28,-1
 719.537 1371.99 l 2,29,30
 692.652 1308.91 692.652 1308.91 614.12 1227.24 c 1,31,32
 527.043 1139.14 527.043 1139.14 431.896 1139.14 c 0,33,34
 319.02 1139.14 319.02 1139.14 262.205 1295.39 c 0,35,36
 247.89 1334.51 247.89 1334.51 246.994 1442.7 c 1,37,-1
 317.299 1442.7 l 1,38,39
 318.143 1347.11 318.143 1347.11 331.307 1318.59 c 0,40,41
 372.26 1230.84 372.26 1230.84 431.896 1230.84 c 0,42,43
 497.076 1230.84 497.076 1230.84 567.219 1298.72 c 0,0,1
669.292 1482.64 m 1,44,-1
 680.316 1508.36 l 2,45,46
 690.996 1533.28 690.996 1533.28 690.996 1561.63 c 0,47,48
 690.996 1604.15 690.996 1604.15 668.07 1623.02 c 0,49,50
 646.28 1640.97 646.28 1640.97 620.217 1640.97 c 0,51,52
 591.787 1640.97 591.787 1640.97 575.875 1628.63 c 0,53,54
 551.576 1610.34 551.576 1610.34 551.576 1574.47 c 0,55,56
 551.576 1526.08 551.576 1526.08 607.898 1503.55 c 0,57,58
 629.803 1494.79 629.803 1494.79 658.123 1486.08 c 2,59,-1
 669.292 1482.64 l 1,44,-1
EndSplineSet
EndChar

StartChar: uni064D
Encoding: 1613 1613 77
Width: 0
VWidth: 2186
GlyphClass: 4
Flags: W
AnchorPoint: "Anchor-7" 531.84 75.5 mark 0
AnchorPoint: "Anchor-6" 531.84 75.5 mark 0
AnchorPoint: "Anchor-0" 547.84 -439.5 basemark 0
AnchorPoint: "Anchor-0" 531.84 75.5 mark 0
LayerCount: 2
Fore
SplineSet
270.96 -512.18 m 5,0,-1
 270.96 -385.109 l 5,1,-1
 828.84 -156.8 l 5,2,-1
 828.84 -283.87 l 5,3,-1
 270.96 -512.18 l 5,0,-1
270.96 -255.38 m 5,4,-1
 270.96 -128.31 l 5,5,-1
 828.84 100 l 5,6,-1
 828.84 -27.0703 l 5,7,-1
 270.96 -255.38 l 5,4,-1
EndSplineSet
EndChar

StartChar: uni064E
Encoding: 1614 1614 78
Width: 0
VWidth: 2186
GlyphClass: 4
Flags: W
AnchorPoint: "Anchor-10" 517.84 1279.5 mark 0
AnchorPoint: "Anchor-9" 517.84 1279.5 mark 0
AnchorPoint: "Anchor-1" 517.84 1600.5 basemark 0
AnchorPoint: "Anchor-1" 517.84 1279.5 mark 0
LayerCount: 2
Fore
SplineSet
237.4 1237.41 m 1,0,-1
 237.4 1364.48 l 1,1,-1
 795.28 1592.79 l 5,2,-1
 795.28 1465.72 l 1,3,-1
 237.4 1237.41 l 1,0,-1
EndSplineSet
EndChar

StartChar: uni064F
Encoding: 1615 1615 79
Width: 0
VWidth: 2186
GlyphClass: 4
Flags: W
AnchorPoint: "Anchor-10" 531.84 1205.5 mark 0
AnchorPoint: "Anchor-9" 531.84 1205.5 mark 0
AnchorPoint: "Anchor-1" 547.84 1825 basemark 0
AnchorPoint: "Anchor-1" 531.84 1205.5 mark 0
LayerCount: 2
Fore
SplineSet
594.529 1426.81 m 6,0,1
 586.598 1428.57 586.598 1428.57 567.734 1438.5 c 4,2,3
 459.19 1494.78 459.19 1494.78 459.19 1588.53 c 4,4,5
 459.19 1675.14 459.19 1675.14 527.819 1726.86 c 4,6,7
 554.314 1746.73 554.314 1746.73 617.39 1746.73 c 4,8,9
 690.212 1746.73 690.212 1746.73 729.192 1708.72 c 4,10,11
 784.15 1654.77 784.15 1654.77 784.15 1575.69 c 4,12,13
 784.15 1543.43 784.15 1543.43 769.757 1497.16 c 6,14,-1
 764.821 1481.3 l 5,15,-1
 781.407 1480.32 l 6,16,17
 799.81 1479.24 799.81 1479.24 819.259 1478.7 c 4,18,19
 832.229 1478.34 832.229 1478.34 847.28 1478.21 c 5,20,-1
 847.28 1386.53 l 5,21,22
 817.029 1386.85 817.029 1386.85 789.455 1388.57 c 4,23,24
 757.6 1390.7 757.6 1390.7 727.915 1393.88 c 6,25,-1
 720.312 1394.69 l 5,26,-1
 715.905 1388.44 l 6,27,28
 671.45 1325.37 671.45 1325.37 599.88 1281.81 c 4,29,30
 398.294 1157.85 398.294 1157.85 248.4 1152.36 c 5,31,-1
 248.4 1244.01 l 5,32,33
 408.671 1248.65 408.671 1248.65 554.781 1363.22 c 4,34,35
 580.142 1383.07 580.142 1383.07 601.135 1405.16 c 6,36,-1
 616.962 1421.83 l 5,37,-1
 594.529 1426.81 l 6,0,1
670.746 1496.7 m 5,38,-1
 681.77 1522.42 l 6,39,40
 692.45 1547.34 692.45 1547.34 692.45 1575.69 c 4,41,42
 692.45 1618.21 692.45 1618.21 669.524 1637.08 c 4,43,44
 647.734 1655.03 647.734 1655.03 621.67 1655.03 c 4,45,46
 593.241 1655.03 593.241 1655.03 577.329 1642.69 c 4,47,48
 553.03 1624.4 553.03 1624.4 553.03 1588.53 c 4,49,50
 553.03 1540.14 553.03 1540.14 609.352 1517.61 c 4,51,52
 631.256 1508.85 631.256 1508.85 659.577 1500.14 c 6,53,-1
 670.746 1496.7 l 5,38,-1
EndSplineSet
EndChar

StartChar: uni0650
Encoding: 1616 1616 80
Width: 0
VWidth: 2186
GlyphClass: 4
Flags: W
AnchorPoint: "Anchor-7" 467.84 -12.5 mark 0
AnchorPoint: "Anchor-6" 467.84 -12.5 mark 0
AnchorPoint: "Anchor-0" 556.84 -311.5 basemark 0
AnchorPoint: "Anchor-0" 467.84 -12.5 mark 0
LayerCount: 2
Fore
SplineSet
267.96 -356.836 m 1,0,-1
 267.96 -229.766 l 1,1,-1
 825.84 -1.45605 l 1,2,-1
 825.84 -128.526 l 1,3,-1
 267.96 -356.836 l 1,0,-1
EndSplineSet
EndChar

StartChar: uni0651
Encoding: 1617 1617 81
Width: 0
VWidth: 2186
GlyphClass: 4
Flags: W
AnchorPoint: "Anchor-10" 547.84 1316.5 mark 0
AnchorPoint: "Anchor-9" 547.84 1316.5 mark 0
AnchorPoint: "Anchor-1" 535.84 1818.5 basemark 0
AnchorPoint: "Anchor-1" 547.84 1316.5 mark 0
LayerCount: 2
Fore
SplineSet
507.838 1339.09 m 128,-1,1
 469.58 1294.39 469.58 1294.39 378.78 1294.39 c 0,2,3
 301.302 1294.39 301.302 1294.39 261.261 1355.91 c 0,4,5
 227 1408.31 227 1408.31 227 1486.07 c 0,6,7
 227 1527.41 227 1527.41 242.222 1626.56 c 1,8,-1
 320.73 1626.56 l 1,9,10
 310.14 1502.98 310.14 1502.98 310.14 1459.89 c 0,11,12
 310.14 1394.86 310.14 1394.86 398.84 1393.09 c 0,13,14
 497.128 1391.16 497.128 1391.16 506.266 1518.54 c 0,15,16
 508.184 1545.08 508.184 1545.08 508.4 1680.83 c 1,17,-1
 586.06 1680.83 l 1,18,19
 588.34 1645.85 588.34 1645.85 588.34 1597.53 c 0,20,21
 588.34 1452.09 588.34 1452.09 700.84 1452.09 c 4,22,23
 785.54 1452.09 785.54 1452.09 785.54 1599.06 c 4,24,25
 785.54 1708.64 785.54 1708.64 774.521 1770.1 c 5,26,-1
 857.705 1770.1 l 5,27,28
 868.68 1694.87 868.68 1694.87 868.68 1580.87 c 4,29,30
 868.68 1511.69 868.68 1511.69 841.188 1456.65 c 4,31,32
 796.118 1367.27 796.118 1367.27 722.84 1358.99 c 4,33,34
 657.525 1351.76 657.525 1351.76 616.258 1379.33 c 4,35,36
 556.63 1418.62 556.63 1418.62 554.84 1431.09 c 1,37,38
 546.096 1383.79 546.096 1383.79 507.838 1339.09 c 128,-1,1
EndSplineSet
EndChar

StartChar: uni0652
Encoding: 1618 1618 82
Width: 0
VWidth: 2186
GlyphClass: 4
Flags: W
AnchorPoint: "Anchor-10" 565.84 1128.5 mark 0
AnchorPoint: "Anchor-9" 565.84 1128.5 mark 0
AnchorPoint: "Anchor-1" 551.84 1702 basemark 0
AnchorPoint: "Anchor-1" 565.84 1128.5 mark 0
LayerCount: 2
Fore
SplineSet
674.569 1383.62 m 0,0,1
 674.569 1428.15 674.569 1428.15 643.439 1459.28 c 128,-1,2
 612.312 1490.41 612.312 1490.41 567.126 1490.41 c 0,3,4
 521.285 1490.41 521.285 1490.41 490.485 1459.61 c 128,-1,5
 459.685 1428.81 459.685 1428.81 459.685 1383.62 c 0,6,7
 459.685 1337.78 459.685 1337.78 490.485 1306.98 c 128,-1,8
 521.285 1276.18 521.285 1276.18 567.126 1276.18 c 0,9,10
 612.314 1276.18 612.314 1276.18 643.439 1307.31 c 128,-1,11
 674.569 1338.44 674.569 1338.44 674.569 1383.62 c 0,0,1
750.396 1383.73 m 128,-1,13
 750.396 1306.88 750.396 1306.88 697.316 1253.46 c 128,-1,14
 644.259 1200.07 644.259 1200.07 567.436 1200.07 c 128,-1,15
 490.613 1200.07 490.613 1200.07 437.557 1253.46 c 128,-1,16
 384.476 1306.88 384.476 1306.88 384.476 1383.73 c 128,-1,17
 384.476 1460.56 384.476 1460.56 437.537 1513.63 c 128,-1,18
 490.596 1566.69 490.596 1566.69 567.436 1566.69 c 128,-1,19
 644.276 1566.69 644.276 1566.69 697.335 1513.63 c 128,-1,12
 750.396 1460.56 750.396 1460.56 750.396 1383.73 c 128,-1,13
EndSplineSet
EndChar

StartChar: uni0653
Encoding: 1619 1619 83
Width: 0
VWidth: 2186
GlyphClass: 4
Flags: W
AnchorPoint: "Anchor-10" 442.84 1264.52 mark 0
AnchorPoint: "Anchor-9" 442.84 1264.52 mark 0
AnchorPoint: "Anchor-1" 442.84 1600.5 basemark 0
AnchorPoint: "Anchor-1" 442.84 1264.52 mark 0
LayerCount: 2
Fore
SplineSet
109.638 1365.05 m 5,0,1
 212.289 1479.87 212.289 1479.87 287.73 1453.49 c 4,2,3
 442.183 1397.9 442.183 1397.9 515.207 1405.97 c 4,4,5
 587.354 1413.79 587.354 1413.79 656.914 1479.92 c 5,6,-1
 704.93 1408.22 l 5,7,8
 617.699 1349.9 617.699 1349.9 559.504 1324.21 c 4,9,10
 491.236 1295.05 491.236 1295.05 293.235 1356.78 c 4,11,12
 239.766 1372.07 239.766 1372.07 165.102 1302.38 c 5,13,-1
 109.638 1365.05 l 5,0,1
EndSplineSet
EndChar

StartChar: uni0657
Encoding: 1623 1623 86
Width: 0
VWidth: 2186
GlyphClass: 4
Flags: W
AnchorPoint: "Anchor-10" 547.84 1279.5 mark 0
AnchorPoint: "Anchor-9" 547.84 1279.5 mark 0
AnchorPoint: "Anchor-1" 547.84 1975 basemark 0
AnchorPoint: "Anchor-1" 547.84 1279.5 mark 0
LayerCount: 2
Fore
SplineSet
501.148 1675.55 m 2,0,1
 509.083 1673.79 509.083 1673.79 527.945 1663.86 c 0,2,3
 636.49 1607.58 636.49 1607.58 636.49 1513.83 c 0,4,5
 636.49 1427.22 636.49 1427.22 567.86 1375.5 c 0,6,7
 541.366 1355.63 541.366 1355.63 478.29 1355.63 c 0,8,9
 405.468 1355.63 405.468 1355.63 366.487 1393.64 c 0,10,11
 311.53 1447.59 311.53 1447.59 311.53 1526.67 c 0,12,13
 311.53 1558.94 311.53 1558.94 325.923 1605.2 c 2,14,-1
 330.858 1621.06 l 1,15,-1
 314.272 1622.04 l 2,16,17
 295.871 1623.12 295.871 1623.12 276.421 1623.66 c 0,18,19
 263.452 1624.02 263.452 1624.02 248.4 1624.15 c 1,20,-1
 248.4 1715.83 l 1,21,22
 278.631 1715.51 278.631 1715.51 306.226 1713.79 c 0,23,24
 338.082 1711.66 338.082 1711.66 367.766 1708.48 c 2,25,-1
 375.369 1707.67 l 1,26,-1
 379.775 1713.92 l 2,27,28
 424.231 1776.99 424.231 1776.99 495.801 1820.55 c 0,29,30
 697.387 1944.51 697.387 1944.51 847.28 1950 c 1,31,-1
 847.28 1858.35 l 1,32,33
 687.009 1853.71 687.009 1853.71 540.898 1739.14 c 0,34,35
 515.54 1719.29 515.54 1719.29 494.545 1697.2 c 2,36,-1
 478.72 1680.54 l 1,37,-1
 501.148 1675.55 l 2,0,1
424.935 1605.66 m 1,38,-1
 413.911 1579.94 l 2,39,40
 403.23 1555.02 403.23 1555.02 403.23 1526.67 c 0,41,42
 403.23 1484.16 403.23 1484.16 426.155 1465.28 c 0,43,44
 447.946 1447.33 447.946 1447.33 474.01 1447.33 c 0,45,46
 502.438 1447.33 502.438 1447.33 518.352 1459.67 c 0,47,48
 542.65 1477.96 542.65 1477.96 542.65 1513.83 c 0,49,50
 542.65 1562.22 542.65 1562.22 486.328 1584.75 c 0,51,52
 464.442 1593.51 464.442 1593.51 436.104 1602.22 c 2,53,-1
 424.935 1605.66 l 1,38,-1
EndSplineSet
EndChar

StartChar: uni065A
Encoding: 1626 1626 87
Width: 1095
VWidth: 2186
GlyphClass: 4
Flags: W
AnchorPoint: "Anchor-10" 547.84 1279.5 mark 0
AnchorPoint: "Anchor-9" 547.84 1279.5 mark 0
AnchorPoint: "Anchor-1" 545.7 1761 basemark 0
AnchorPoint: "Anchor-1" 547.84 1279.5 mark 0
LayerCount: 2
Fore
SplineSet
476.032 1358.84 m 1,0,-1
 282.934 1681.66 l 1,1,-1
 401.783 1681.66 l 1,2,-1
 547.84 1462.57 l 1,3,-1
 693.896 1681.66 l 1,4,-1
 812.746 1681.66 l 1,5,-1
 619.646 1358.84 l 1,6,-1
 476.032 1358.84 l 1,0,-1
EndSplineSet
EndChar

StartChar: afii57392
Encoding: 1632 1632 88
Width: 1177
VWidth: 2232
GlyphClass: 2
Flags: W
LayerCount: 2
Fore
SplineSet
548.74 654.61 m 128,-1,1
 548.74 634.037 548.74 634.037 563.683 619.094 c 128,-1,2
 578.627 604.15 578.627 604.15 599.2 604.15 c 128,-1,3
 619.771 604.15 619.771 604.15 634.715 619.094 c 128,-1,4
 649.66 634.039 649.66 634.039 649.66 654.61 c 128,-1,5
 649.66 675.18 649.66 675.18 634.714 690.126 c 128,-1,6
 619.771 705.07 619.771 705.07 599.2 705.07 c 128,-1,7
 578.628 705.07 578.628 705.07 563.684 690.126 c 128,-1,0
 548.74 675.182 548.74 675.182 548.74 654.61 c 128,-1,1
306.267 651.562 m 128,-1,9
 306.267 774.352 306.267 774.352 392.935 861.525 c 128,-1,10
 479.678 948.775 479.678 948.775 601.947 948.775 c 128,-1,11
 724.221 948.775 724.221 948.775 810.961 861.524 c 128,-1,12
 897.626 774.35 897.626 774.35 897.626 651.562 c 128,-1,13
 897.626 528.765 897.626 528.765 810.959 441.599 c 128,-1,14
 724.211 354.351 724.211 354.351 601.947 354.351 c 128,-1,15
 479.677 354.351 479.677 354.351 392.936 441.599 c 128,-1,8
 306.267 528.771 306.267 528.771 306.267 651.562 c 128,-1,9
EndSplineSet
EndChar

StartChar: afii57393
Encoding: 1633 1633 89
Width: 1177
VWidth: 2283
GlyphClass: 2
Flags: W
LayerCount: 2
Fore
SplineSet
782.177 8.5 m 1,0,-1
 523.482 8.5 l 1,1,-1
 523.386 59.4033 l 2,2,3
 522.594 477.829 522.594 477.829 480.403 752.849 c 0,4,5
 434.491 1046.79 434.491 1046.79 278.123 1393.53 c 2,6,-1
 245.669 1465.5 l 1,7,-1
 523.882 1465.5 l 1,8,-1
 538.768 1440.92 l 2,9,10
 651.371 1254.96 651.371 1254.96 728.639 899.484 c 0,11,12
 779.776 664.224 779.776 664.224 781.99 59.6865 c 2,13,-1
 782.177 8.5 l 1,0,-1
EndSplineSet
EndChar

StartChar: afii57394
Encoding: 1634 1634 90
Width: 1177
VWidth: 2283
GlyphClass: 2
Flags: W
LayerCount: 2
Fore
SplineSet
335.69 1434.49 m 2,0,1
 395.073 1295.1 395.073 1295.1 403.362 1277.43 c 2,2,-1
 404.503 1275.12 l 2,3,4
 435.188 1212.96 435.188 1212.96 478.131 1182.94 c 128,-1,5
 521.073 1152.93 521.073 1152.93 582.08 1149.42 c 0,6,7
 753.231 1139.73 753.231 1139.73 799.262 1229.59 c 0,8,9
 837.228 1303.72 837.228 1303.72 852.563 1420.96 c 2,10,-1
 859.984 1477.7 l 1,11,12
 869.808 1475.2 869.808 1475.2 888.75 1470.55 c 128,-1,13
 907.692 1465.9 907.692 1465.9 915.499 1463.82 c 2,14,-1
 1106.01 1416.2 l 1,15,-1
 1097.28 1369.06 l 2,16,17
 1086.86 1312.78 1086.86 1312.78 1066.24 1238.57 c 0,18,19
 1018.71 1070.56 1018.71 1070.56 910.543 978.443 c 128,-1,20
 802.376 886.324 802.376 886.324 641.32 879.545 c 0,21,22
 580.68 876.993 580.68 876.993 517.092 889.188 c 1,23,24
 540.507 789.854 540.507 789.854 557.872 631.046 c 0,25,26
 566.194 554.986 566.194 554.986 572.266 60.124 c 2,27,-1
 572.897 8.5 l 1,28,-1
 313.753 8.5 l 1,29,-1
 313.663 59.4102 l 2,30,31
 312.896 493.292 312.896 493.292 274.515 726.373 c 0,32,33
 222.792 1040.48 222.792 1040.48 103.934 1295.99 c 2,34,-1
 85.8955 1334.76 l 1,35,-1
 311.045 1492.34 l 1,36,-1
 335.69 1434.49 l 2,0,1
EndSplineSet
EndChar

StartChar: afii57395
Encoding: 1635 1635 91
Width: 1177
VWidth: 2283
GlyphClass: 2
Flags: W
LayerCount: 2
Fore
SplineSet
358.829 1276.43 m 0,0,1
 428.378 1147.84 428.378 1147.84 487.329 1142.57 c 0,2,3
 624.297 1132.47 624.297 1132.47 624.297 1421.13 c 1,4,-1
 793.798 1419.5 l 1,5,6
 796.116 1176.62 796.116 1176.62 839.4 1157.12 c 0,7,8
 867.414 1144.5 867.414 1144.5 918.991 1151.84 c 152,-1,9
 970.569 1159.18 970.569 1159.18 976.789 1462.72 c 1,10,-1
 1164.93 1424.17 l 1,11,12
 1160.34 1264.5 1160.34 1264.5 1143.93 1181.17 c 0,13,14
 1085.12 896.046 1085.12 896.046 917.401 896.046 c 0,15,16
 818.555 896.046 818.555 896.046 740.286 959.123 c 1,17,18
 672.991 895.154 672.991 895.154 555.156 887.848 c 0,19,20
 513.722 885.278 513.722 885.278 469.937 891.638 c 1,21,22
 495.441 774.015 495.441 774.015 524.043 533.908 c 0,23,24
 533.381 455.521 533.381 455.521 529.269 58.9707 c 2,25,-1
 528.745 8.5 l 1,26,-1
 268.755 8.5 l 1,27,-1
 268.665 59.4102 l 2,28,29
 267.899 493.271 267.899 493.271 229.516 726.373 c 0,30,31
 177.787 1040.51 177.787 1040.51 58.9346 1295.99 c 2,32,-1
 40.8965 1334.76 l 1,33,-1
 266.045 1492.34 l 1,34,35
 351.157 1292.56 351.157 1292.56 358.829 1276.43 c 0,0,1
EndSplineSet
EndChar

StartChar: afii57396
Encoding: 1636 1636 92
Width: 1177
VWidth: 2232
GlyphClass: 2
Flags: W
LayerCount: 2
Fore
SplineSet
809.844 1471.95 m 1,0,-1
 794.81 1231.12 l 1,1,-1
 742.36 1236.11 l 2,2,3
 631.62 1246.65 631.62 1246.65 560.415 1214.99 c 0,4,5
 517.418 1194.94 517.418 1194.94 501.456 1169.09 c 128,-1,6
 485.494 1143.23 485.494 1143.23 488.72 1102.09 c 0,7,8
 492.234 1057.85 492.234 1057.85 514.347 1029.95 c 128,-1,9
 536.459 1002.05 536.459 1002.05 584.135 984.001 c 0,10,11
 616.652 971.691 616.652 971.691 747.885 958.464 c 2,12,-1
 793.77 953.839 l 1,13,-1
 793.77 722.097 l 1,14,-1
 752.286 714.218 l 2,15,16
 607.987 686.812 607.987 686.812 526.396 633.253 c 0,17,18
 426.577 566.922 426.577 566.922 412.631 446.447 c 0,19,20
 408.422 410.062 408.422 410.062 412.437 380.782 c 0,21,22
 417.7 342.415 417.7 342.415 436.77 316.076 c 128,-1,23
 455.839 289.737 455.839 289.737 494.989 271.852 c 128,-1,24
 534.139 253.966 534.139 253.966 595.215 252.168 c 128,-1,25
 656.29 250.37 656.29 250.37 745.567 261.085 c 1,26,27
 820.319 271.381 820.319 271.381 936.985 326.93 c 2,28,-1
 1009.91 361.652 l 1,29,-1
 1009.91 77.4717 l 1,30,-1
 977.729 64.6953 l 2,31,32
 846.87 12.7422 846.87 12.7422 675.288 0.873047 c 0,33,34
 473.26 -12.6064 473.26 -12.6064 343.778 53.4102 c 128,-1,35
 214.296 119.427 214.296 119.427 174.639 267.055 c 0,36,37
 154.25 342.96 154.25 342.96 154.25 450.24 c 0,38,39
 154.25 605.601 154.25 605.601 276.541 751.889 c 0,40,41
 324.356 807.796 324.356 807.796 383.307 839.9 c 1,42,43
 272.199 907.381 272.199 907.381 244.847 1036.18 c 0,44,45
 216.932 1168.83 216.932 1168.83 263.523 1267.2 c 128,-1,46
 310.115 1365.57 310.115 1365.57 427.015 1414.58 c 0,47,48
 555.673 1468.51 555.673 1468.51 754.821 1471.21 c 2,49,-1
 809.844 1471.95 l 1,0,-1
EndSplineSet
EndChar

StartChar: afii57397
Encoding: 1637 1637 93
Width: 1177
VWidth: 2232
GlyphClass: 2
Flags: W
LayerCount: 2
Fore
SplineSet
570.648 1027.55 m 1,0,1
 469.123 957.472 469.123 957.472 392.666 807.608 c 0,2,3
 318.064 661.38 318.064 661.38 312.913 550.451 c 0,4,5
 306.055 402.752 306.055 402.752 382.011 340.285 c 0,6,7
 456.672 278.869 456.672 278.869 613.091 278.155 c 0,8,9
 778.775 277.399 778.775 277.399 830.749 366.331 c 0,10,11
 879.163 450.543 879.163 450.543 868.601 580.229 c 0,12,13
 857.891 718.864 857.891 718.864 738.846 876.802 c 0,14,15
 657.936 984.157 657.936 984.157 570.648 1027.55 c 1,0,1
309.46 1228.07 m 1,16,-1
 474.46 1441.9 l 5,17,18
 692.46 1312 692.46 1312 849.46 1145.95 c 0,19,20
 1122.65 852.939 1122.65 852.939 1137.94 571.32 c 0,21,22
 1152.75 296.682 1152.75 296.682 1033.13 169.602 c 0,23,24
 888.075 16.835 888.075 16.835 594.154 17.958 c 1,25,26
 295.991 17.958 295.991 17.958 155.078 169.913 c 0,27,28
 9.26074 328.21 9.26074 328.21 39.8691 574.7 c 0,29,30
 61.648 748.155 61.648 748.155 158.592 925.315 c 0,31,32
 238.584 1071.5 238.584 1071.5 378.46 1198.07 c 1,33,-1
 309.46 1228.07 l 1,16,-1
EndSplineSet
EndChar

StartChar: afii57398
Encoding: 1638 1638 94
Width: 1177
VWidth: 2232
GlyphClass: 2
Flags: W
LayerCount: 2
Fore
SplineSet
938.271 1409.99 m 2,0,1
 939.711 1107.55 939.711 1107.55 977.631 745.786 c 0,2,3
 1007.5 460.518 1007.5 460.518 1106.89 72.1445 c 2,4,-1
 1123.18 8.5 l 1,5,-1
 845.407 8.5 l 1,6,-1
 835.517 46.7256 l 2,7,8
 746.732 389.872 746.732 389.872 714.006 739.261 c 0,9,10
 687.841 1017.67 687.841 1017.67 682.809 1162.22 c 1,11,12
 587.781 1141.4 587.781 1141.4 460.1 1141.4 c 0,13,14
 272.177 1141.4 272.177 1141.4 94.8613 1192.36 c 2,15,-1
 57.9502 1202.97 l 1,16,-1
 57.9502 1475.08 l 1,17,-1
 121.88 1458.32 l 2,18,19
 298.618 1412 298.618 1412 460.1 1412 c 0,20,21
 669.139 1412 669.139 1412 875.861 1459.46 c 2,22,-1
 937.968 1473.71 l 1,23,-1
 938.271 1409.99 l 2,0,1
EndSplineSet
EndChar

StartChar: afii57399
Encoding: 1639 1639 95
Width: 1177
VWidth: 2232
GlyphClass: 2
Flags: W
LayerCount: 2
Fore
SplineSet
458.077 55.4795 m 2,0,1
 438.007 309.299 438.007 309.299 337.646 630.878 c 0,2,3
 177.54 1144.41 177.54 1144.41 49.0098 1390.92 c 2,4,-1
 10.124 1465.5 l 1,5,-1
 294.46 1465.5 l 1,6,-1
 308.487 1437.06 l 2,7,8
 471.242 1107.03 471.242 1107.03 566.729 772.816 c 0,9,10
 578.926 730.127 578.926 730.127 588.5 696.39 c 1,11,12
 598.189 730.518 598.189 730.518 610.271 772.816 c 0,13,14
 705.772 1107.09 705.772 1107.09 868.514 1437.06 c 2,15,-1
 882.54 1465.5 l 1,16,-1
 1167.5 1465.5 l 1,17,-1
 1127.65 1390.56 l 2,18,19
 961.744 1078.54 961.744 1078.54 839.683 632.002 c 0,20,21
 752.152 312.737 752.152 312.737 719.478 53.1309 c 2,22,-1
 713.86 8.5 l 1,23,-1
 461.792 8.5 l 1,24,-1
 458.077 55.4795 l 2,0,1
EndSplineSet
EndChar

StartChar: afii57400
Encoding: 1640 1640 96
Width: 1177
VWidth: 2232
GlyphClass: 2
Flags: W
LayerCount: 2
Fore
SplineSet
461.792 1465.5 m 1,0,-1
 713.86 1465.5 l 1,1,-1
 719.478 1420.87 l 2,2,3
 752.15 1161.27 752.15 1161.27 839.674 842.032 c 0,4,5
 961.742 395.464 961.742 395.464 1127.65 83.4434 c 2,6,-1
 1167.5 8.5 l 1,7,-1
 882.54 8.5 l 1,8,-1
 868.514 36.9414 l 2,9,10
 705.771 366.92 705.771 366.92 610.271 701.184 c 0,11,12
 598.127 743.64 598.127 743.64 588.5 777.61 c 1,13,14
 578.849 743.591 578.849 743.591 566.729 701.184 c 0,15,16
 471.229 366.919 471.229 366.919 308.486 36.9414 c 2,17,-1
 294.46 8.5 l 1,18,-1
 10.123 8.5 l 1,19,-1
 49.0098 83.0791 l 2,20,21
 177.532 329.567 177.532 329.567 337.649 843.131 c 0,22,23
 438.008 1164.71 438.008 1164.71 458.077 1418.52 c 2,24,-1
 461.792 1465.5 l 1,0,-1
EndSplineSet
EndChar

StartChar: afii57401
Encoding: 1641 1641 97
Width: 1177
VWidth: 2232
GlyphClass: 2
Flags: W
LayerCount: 2
Fore
SplineSet
722.822 647.396 m 1,0,1
 542.645 648.782 542.645 648.782 460.183 667.122 c 0,2,3
 262.705 711.471 262.705 711.471 173.884 809.457 c 0,4,5
 74 919.648 74 919.648 74 1052.65 c 0,6,7
 74 1225.38 74 1225.38 183.322 1334.79 c 0,8,9
 327.646 1480.33 327.646 1480.33 499.862 1479.2 c 1,10,11
 701.504 1479.2 701.504 1479.2 799.716 1384.51 c 0,12,13
 932.439 1255.4 932.439 1255.4 947.759 1049.74 c 0,14,15
 958.395 906.118 958.395 906.118 977.572 746.297 c 0,16,17
 1015.67 430.119 1015.67 430.119 1106.91 72.0938 c 2,18,-1
 1123.12 8.5 l 1,19,-1
 844.444 8.5 l 1,20,-1
 835.636 48.543 l 2,21,22
 747.433 449.502 747.433 449.502 722.822 647.396 c 1,0,1
693.53 907.146 m 1,23,-1
 693.53 967.05 l 2,24,25
 693.53 1078.9 693.53 1078.9 655.654 1130.55 c 0,26,27
 622.486 1177.13 622.486 1177.13 586.235 1197.56 c 128,-1,28
 549.985 1218 549.985 1218 505.264 1217.6 c 0,29,30
 433.838 1217.6 433.838 1217.6 382.424 1168 c 0,31,32
 332.6 1119.96 332.6 1119.96 332.6 1058 c 0,33,34
 332.6 1012.08 332.6 1012.08 385.384 967.047 c 1,35,36
 418.343 941.206 418.343 941.206 489.185 924.244 c 0,37,38
 553.601 908.82 553.601 908.82 693.53 907.146 c 1,23,-1
EndSplineSet
EndChar

StartChar: afii57381
Encoding: 1642 1642 98
Width: 1177
VWidth: 2237
GlyphClass: 2
Flags: W
LayerCount: 2
Fore
SplineSet
788.04 352 m 1,0,-1
 1056.64 352 l 1,1,-1
 1056.64 8.5 l 1,2,-1
 788.04 8.5 l 1,3,-1
 788.04 352 l 1,0,-1
119.29 1475.5 m 1,4,-1
 387.89 1475.5 l 1,5,-1
 387.89 1132 l 1,6,-1
 119.29 1132 l 1,7,-1
 119.29 1475.5 l 1,4,-1
840.389 1475.5 m 1,8,-1
 1097.2 1475.5 l 1,9,-1
 336.611 8.5 l 1,10,-1
 79.8047 8.5 l 1,11,-1
 840.389 1475.5 l 1,8,-1
EndSplineSet
EndChar

StartChar: uni066B
Encoding: 1643 1643 99
Width: 711
VWidth: 2186
GlyphClass: 2
Flags: W
LayerCount: 2
Fore
SplineSet
443.218 502.139 m 1,0,-1
 568.799 501.203 l 1,1,2
 342.799 113.203 342.799 113.203 130 -230.265 c 1,3,-1
 1.59766 -228.502 l 1,4,5
 94.7988 -78.7969 94.7988 -78.7969 443.218 502.139 c 1,0,-1
EndSplineSet
EndChar

StartChar: uni066C
Encoding: 1644 1644 100
Width: 696
GlyphClass: 2
Flags: W
LayerCount: 2
Fore
SplineSet
291.2 1580.01 m 1,0,-1
 490.97 1580.01 l 1,1,-1
 490.97 1433.52 l 1,2,-1
 320.557 1102.04 l 1,3,-1
 207.225 1102.04 l 1,4,-1
 291.2 1428.73 l 1,5,-1
 291.2 1580.01 l 1,0,-1
EndSplineSet
EndChar

StartChar: afii63167
Encoding: 1645 1645 101
Width: 1194
GlyphClass: 2
Flags: W
LayerCount: 2
Fore
SplineSet
-23.2812 896.63 m 1,0,-1
 449.703 896.63 l 1,1,-1
 597.062 1345.28 l 1,2,-1
 744.417 896.63 l 1,3,-1
 1217.4 896.63 l 1,4,-1
 835.389 617.365 l 1,5,-1
 981.707 167.859 l 1,6,-1
 597.061 445.808 l 1,7,-1
 212.413 167.86 l 1,8,-1
 358.731 617.365 l 1,9,-1
 -23.2812 896.63 l 1,0,-1
EndSplineSet
EndChar

StartChar: uni066E
Encoding: 1646 1646 102
Width: 1806
VWidth: 2232
GlyphClass: 2
Flags: W
AnchorPoint: "Anchor-10" 763.22 1102.5 basechar 0
AnchorPoint: "Anchor-7" 763.22 -128 basechar 0
LayerCount: 2
Fore
SplineSet
960.396 0.982422 m 0,0,1
 726.542 1.21484 726.542 1.21484 596.123 8.45117 c 128,-1,2
 465.704 15.6865 465.704 15.6865 410.013 33.876 c 0,3,4
 246.699 86.708 246.699 86.708 154.036 204.534 c 128,-1,5
 61.373 322.361 61.373 322.361 45.5908 496.555 c 0,6,7
 34.5695 614.422 34.5695 614.422 78.751 767.869 c 2,8,-1
 92.5498 815.794 l 1,9,-1
 315.14 757.062 l 1,10,-1
 306.643 710.618 l 2,11,12
 281.791 574.78 281.791 574.78 284.451 529.211 c 0,13,14
 290.305 428.96 290.305 428.96 357.896 368.829 c 128,-1,15
 425.488 308.697 425.488 308.697 570.104 284.694 c 0,16,17
 650.056 271.538 650.056 271.538 874.761 273.016 c 0,18,19
 1047.1 274.401 1047.1 274.401 1062.42 275.854 c 0,20,21
 1161.29 285.237 1161.29 285.237 1236.36 301.154 c 128,-1,22
 1311.42 317.071 1311.42 317.071 1352.62 336.264 c 128,-1,23
 1393.82 355.456 1393.82 355.456 1414.29 373.803 c 128,-1,24
 1434.76 392.148 1434.76 392.148 1436.92 409.679 c 0,25,26
 1454.63 550.662 1454.63 550.662 1394.97 770.5 c 6,27,-1
 1379.52 827.417 l 1,28,-1
 1640.42 960.326 l 1,29,-1
 1655.66 897.657 l 2,30,31
 1683.1 784.78 1683.1 784.78 1695.86 650.582 c 1,32,33
 1711.42 514.713 1711.42 514.713 1709.29 419.481 c 128,-1,34
 1707.15 324.25 1707.15 324.25 1681.74 274.722 c 0,35,36
 1540.79 -0.0537109 1540.79 -0.0537109 960.396 0.982422 c 0,0,1
EndSplineSet
Substitution2: "'init' Initial Forms in Arabic lookup 13 subtable" uni066E.init
Substitution2: "'medi' Medial Forms in Arabic lookup 11 subtable" uni066E.medi
Substitution2: "'fina' Terminal Forms in Arabic lookup 9 subtable" uni066E.fina
EndChar

StartChar: uni066F
Encoding: 1647 1647 103
Width: 1503
VWidth: 2232
GlyphClass: 2
Flags: W
AnchorPoint: "Anchor-10" 315 1096.5 basechar 0
AnchorPoint: "Anchor-7" 472 -489 basechar 0
LayerCount: 2
Fore
SplineSet
1081.37 746.395 m 0,0,1
 1030.34 740.401 1030.34 740.401 998.625 694.775 c 128,-1,2
 966.911 649.149 966.911 649.149 956.155 546.837 c 0,3,4
 952.479 510.138 952.479 510.138 968.9 491.843 c 128,-1,5
 985.321 473.548 985.321 473.548 1039 463.857 c 0,6,7
 1140.54 444.787 1140.54 444.787 1218.71 491.292 c 1,8,9
 1210.13 569.187 1210.13 569.187 1195.38 622.811 c 128,-1,10
 1180.64 676.436 1180.64 676.436 1161.64 702.898 c 128,-1,11
 1142.65 729.361 1142.65 729.361 1123.33 739.207 c 128,-1,12
 1104.01 749.053 1104.01 749.053 1081.37 746.395 c 0,0,1
1466.31 282.546 m 0,13,14
 1449.98 -17.127 1449.98 -17.127 1288.43 -193.104 c 0,15,16
 1116.73 -379.886 1116.73 -379.886 717.409 -376.339 c 0,17,18
 423.024 -373.706 423.024 -373.706 242.072 -233.207 c 0,19,20
 39.125 -75.1758 39.125 -75.1758 44.1729 221.716 c 0,21,22
 48.8105 468.951 48.8105 468.951 141.472 676.61 c 2,23,-1
 158.115 713.912 l 1,24,-1
 418.977 661.171 l 1,25,-1
 394.854 603.765 l 2,26,27
 286.298 345.438 286.298 345.438 313.347 168.582 c 0,28,29
 335.847 24.3916 335.847 24.3916 436.896 -46.0273 c 128,-1,30
 537.944 -116.446 537.944 -116.446 735.363 -117.682 c 0,31,32
 975.002 -119.414 975.002 -119.414 1097.08 -10.5938 c 0,33,34
 1186.32 68.876 1186.32 68.876 1202.85 223.648 c 1,35,36
 1147.8 209.091 1147.8 209.091 1065.79 207.845 c 0,37,38
 894.562 204.544 894.562 204.544 794.206 319.273 c 1,39,40
 695.764 429.515 695.764 429.515 715.883 578.891 c 0,41,42
 741.417 769.354 741.417 769.354 860.985 897.681 c 0,43,44
 921.163 963.185 921.163 963.185 1001.13 985.312 c 128,-1,45
 1081.09 1007.44 1081.09 1007.44 1170.56 984.323 c 0,46,47
 1248.13 964.631 1248.13 964.631 1316.32 902.625 c 0,48,49
 1464.7 767.696 1464.7 767.696 1469.38 505.228 c 0,50,51
 1471.62 379.808 1471.62 379.808 1466.31 282.546 c 0,13,14
EndSplineSet
Substitution2: "'init' Initial Forms in Arabic lookup 13 subtable" uni066F.init
Substitution2: "'medi' Medial Forms in Arabic lookup 11 subtable" uni066F.medi
Substitution2: "'fina' Terminal Forms in Arabic lookup 9 subtable" uni066F.fina
EndChar

StartChar: uni0670
Encoding: 1648 1648 104
Width: 0
VWidth: 2186
GlyphClass: 4
Flags: W
AnchorPoint: "Anchor-10" 547.84 1279.5 mark 0
AnchorPoint: "Anchor-9" 547.84 1279.5 mark 0
AnchorPoint: "Anchor-1" 547.84 1975 basemark 0
AnchorPoint: "Anchor-1" 547.84 1279.5 mark 0
LayerCount: 2
Fore
SplineSet
501.99 1327.81 m 1,0,-1
 501.99 1926.69 l 1,1,-1
 593.69 1926.69 l 1,2,-1
 593.69 1327.81 l 1,3,-1
 501.99 1327.81 l 1,0,-1
EndSplineSet
EndChar

StartChar: uni0674
Encoding: 1652 1652 105
Width: 639
VWidth: 2186
GlyphClass: 2
Flags: W
LayerCount: 2
Fore
SplineSet
143.54 1515.26 m 1,0,-1
 254.306 1540.82 l 1,1,-1
 219.379 1556.7 l 2,2,3
 176.794 1576.05 176.794 1576.05 161.706 1610 c 0,4,5
 145.68 1647.06 145.68 1647.06 145.68 1692.52 c 0,6,7
 145.68 1788.83 145.68 1788.83 200.568 1830.98 c 0,8,9
 259.108 1876.4 259.108 1876.4 353.1 1876.4 c 0,10,11
 411.842 1876.4 411.842 1876.4 462.08 1846.81 c 1,12,-1
 462.08 1769.8 l 1,13,14
 412.732 1795.4 412.732 1795.4 353.1 1795.4 c 0,15,16
 276.875 1795.4 276.875 1795.4 254.747 1771.97 c 0,17,18
 220.26 1733.92 220.26 1733.92 220.26 1701.08 c 0,19,20
 220.26 1608.9 220.26 1608.9 330.161 1577.33 c 0,21,22
 366.368 1566.36 366.368 1566.36 484.55 1593.69 c 1,23,-1
 484.55 1511.4 l 1,24,-1
 143.54 1434.84 l 1,25,-1
 143.54 1515.26 l 1,0,-1
EndSplineSet
EndChar

StartChar: uni06A1
Encoding: 1697 1697 109
Width: 1757
VWidth: 2232
GlyphClass: 2
Flags: W
AnchorPoint: "Anchor-10" 515.55 1276.28 basechar 0
AnchorPoint: "Anchor-7" 622.55 -101.88 basechar 0
LayerCount: 2
Fore
SplineSet
1339.9 896.552 m 0,0,1
 1288.69 890.537 1288.69 890.537 1257.01 844.954 c 128,-1,2
 1225.32 799.371 1225.32 799.371 1214.54 696.805 c 0,3,4
 1210.08 655.205 1210.08 655.205 1226.84 635.457 c 128,-1,5
 1243.6 615.709 1243.6 615.709 1297.4 606 c 0,6,7
 1398.95 586.93 1398.95 586.93 1477.09 633.425 c 1,8,9
 1476.22 641.365 1476.22 641.365 1475.29 649.024 c 0,10,11
 1466.07 724.568 1466.07 724.568 1451.08 776.707 c 128,-1,12
 1436.08 828.846 1436.08 828.846 1417.38 854.462 c 128,-1,13
 1398.68 880.077 1398.68 880.077 1380.01 889.626 c 128,-1,14
 1361.33 899.175 1361.33 899.175 1339.9 896.552 c 0,0,1
1713.01 388.637 m 0,15,16
 1697.88 269.044 1697.88 269.044 1613.41 183.646 c 128,-1,17
 1528.93 98.248 1528.93 98.248 1384.5 49.1914 c 0,18,19
 1230.05 -2.9834 1230.05 -2.9834 872.17 -1.30762 c 0,20,21
 510.975 0.692383 510.975 0.692383 409.041 33.8672 c 0,22,23
 245.693 86.71 245.693 86.71 153.034 204.531 c 128,-1,24
 60.374 322.352 60.374 322.352 44.5908 496.555 c 0,25,26
 33.5693 614.424 33.5693 614.424 77.751 767.869 c 2,27,-1
 91.5498 815.794 l 1,28,-1
 314.14 757.062 l 1,29,-1
 305.643 710.618 l 2,30,31
 280.791 574.775 280.791 574.775 283.451 529.211 c 0,32,33
 289.542 424.897 289.542 424.897 356.789 365.075 c 128,-1,34
 424.036 305.254 424.036 305.254 567.932 284.874 c 0,35,36
 592.156 281.442 592.156 281.442 806.054 272.979 c 0,37,38
 1120.49 261.227 1120.49 261.227 1323.96 318.285 c 0,39,40
 1396.07 338.43 1396.07 338.43 1431.32 374.204 c 1,41,42
 1385.15 365.913 1385.15 365.913 1324.17 364.986 c 0,43,44
 1146.93 361.708 1146.93 361.708 1052.61 469.407 c 1,45,46
 954.163 579.665 954.163 579.665 974.283 729.043 c 0,47,48
 999.813 919.483 999.813 919.483 1119.38 1047.82 c 0,49,50
 1179.56 1113.33 1179.56 1113.33 1259.53 1135.45 c 128,-1,51
 1339.5 1157.58 1339.5 1157.58 1428.95 1134.46 c 0,52,53
 1506.53 1114.78 1506.53 1114.78 1574.72 1052.77 c 0,54,55
 1693.06 945.157 1693.06 945.157 1727.42 660.602 c 0,56,57
 1737.2 579.917 1737.2 579.917 1713.01 388.637 c 0,15,16
EndSplineSet
Substitution2: "'init' Initial Forms in Arabic lookup 13 subtable" uni06A1.init
Substitution2: "'medi' Medial Forms in Arabic lookup 11 subtable" uni06A1.medi
Substitution2: "'fina' Terminal Forms in Arabic lookup 9 subtable" uni06A1.fina
EndChar

StartChar: uni06A9
Encoding: 1705 1705 110
Width: 1767
VWidth: 2232
GlyphClass: 2
Flags: W
AnchorPoint: "Anchor-10" 369 1253.34 basechar 0
AnchorPoint: "Anchor-7" 780 -144.68 basechar 0
LayerCount: 2
Fore
SplineSet
1232.54 0 m 2,0,-1
 747.23 0 l 2,1,2
 509.319 0.456055 509.319 0.456055 406.082 33.8535 c 0,3,4
 242.686 86.7119 242.686 86.7119 150.03 204.525 c 128,-1,5
 57.376 322.339 57.376 322.339 41.5908 496.555 c 0,6,7
 30.5693 614.424 30.5693 614.424 74.751 767.869 c 2,8,-1
 88.5498 815.794 l 1,9,-1
 311.14 757.062 l 1,10,-1
 302.643 710.618 l 2,11,12
 277.791 574.775 277.791 574.775 280.451 529.211 c 0,13,14
 286.44 426.631 286.44 426.631 353.829 366.685 c 128,-1,15
 421.218 306.738 421.218 306.738 565.504 284.79 c 0,16,17
 638.161 273.56 638.161 273.56 801.383 273.017 c 2,18,-1
 1056.95 271.004 l 1,19,-1
 1191.21 271.004 l 2,20,21
 1429.81 271.004 1429.81 271.004 1446.33 376.698 c 0,22,23
 1454.71 430.299 1454.71 430.299 1435.11 473.292 c 128,-1,24
 1415.52 516.285 1415.52 516.285 1362.54 555.607 c 2,25,-1
 1001.87 823.269 l 2,26,27
 914.169 888.345 914.169 888.345 905.533 989.106 c 0,28,29
 902.856 1020.34 902.856 1020.34 905.907 1048.63 c 0,30,31
 912.42 1109 912.42 1109 945.971 1156.01 c 128,-1,32
 979.521 1203.03 979.521 1203.03 1035.42 1231.4 c 2,33,-1
 1756.09 1597.17 l 1,34,-1
 1756.09 1317.53 l 1,35,-1
 1193.2 1023.34 l 1,36,37
 1379.28 883.73 1379.28 883.73 1553.85 739.121 c 1,38,39
 1722.55 596.724 1722.55 596.724 1694.52 322.457 c 0,40,41
 1677.94 163.577 1677.94 163.577 1550.66 79.6025 c 0,42,43
 1430 -0 1430 -0 1232.54 0 c 2,0,-1
EndSplineSet
Substitution2: "'init' Initial Forms in Arabic lookup 13 subtable" uniFB90
Substitution2: "'medi' Medial Forms in Arabic lookup 11 subtable" uniFB91
Substitution2: "'fina' Terminal Forms in Arabic lookup 9 subtable" uniFB8F
EndChar

StartChar: afii57514
Encoding: 1722 1722 112
Width: 1339
VWidth: 2232
GlyphClass: 2
Flags: W
AnchorPoint: "Anchor-10" 594.734 1199.15 basechar 0
AnchorPoint: "Anchor-7" 572.58 -494.02 basechar 0
LayerCount: 2
Fore
SplineSet
1276.29 347.672 m 4,0,1
 1277.48 52.084 1277.48 52.084 1129.19 -98.8115 c 4,2,3
 957.12 -272.462 957.12 -272.462 654.188 -263.093 c 4,4,5
 375.832 -254.432 375.832 -254.432 219.945 -119.343 c 132,-1,6
 64.0586 15.7461 64.0586 15.7461 46.6885 268.183 c 4,7,8
 32.416 475.075 32.416 475.075 147.666 674.373 c 6,9,-1
 168.781 710.886 l 5,10,-1
 383.143 636.137 l 5,11,-1
 362.67 586.326 l 6,12,13
 281.866 389.713 281.866 389.713 297.926 266.556 c 4,14,15
 313.94 141.488 313.94 141.488 387.076 75.3066 c 132,-1,16
 460.211 9.125 460.211 9.125 601.699 -6.03613 c 5,17,-1
 623.49 -7.49902 l 5,18,19
 856.765 -24.2383 856.765 -24.2383 956.84 90.04 c 4,20,21
 1021.42 163.801 1021.42 163.801 1026.14 318.024 c 4,22,23
 1031.2 480.318 1031.2 480.318 920.73 658.981 c 6,24,-1
 895.021 700.562 l 5,25,-1
 1108.84 845.611 l 5,26,-1
 1136.53 799.172 l 6,27,28
 1274.65 567.516 1274.65 567.516 1276.29 347.672 c 4,0,1
EndSplineSet
Substitution2: "'init' Initial Forms in Arabic lookup 13 subtable" uni06BA.init
Substitution2: "'medi' Medial Forms in Arabic lookup 11 subtable" uni06BA.medi
Substitution2: "'fina' Terminal Forms in Arabic lookup 9 subtable" uniFB9F
EndChar

StartChar: uni06F4
Encoding: 1780 1780 119
Width: 1177
VWidth: 2232
GlyphClass: 2
Flags: W
LayerCount: 2
Fore
SplineSet
394.546 1263.03 m 1,0,1
 472.223 1417.42 472.223 1417.42 604.489 1455.97 c 0,2,3
 762.982 1502.03 762.982 1502.03 968.225 1459.34 c 2,4,-1
 1008.84 1450.89 l 1,5,-1
 1008.84 1212.39 l 1,6,-1
 943.993 1230.69 l 2,7,8
 907.814 1240.89 907.814 1240.89 827.775 1251.04 c 0,9,10
 688.772 1268.65 688.772 1268.65 622.195 1200.71 c 0,11,12
 576.789 1154.66 576.789 1154.66 569.782 1116.02 c 128,-1,13
 562.775 1077.37 562.775 1077.37 588.243 1038.92 c 0,14,15
 603.31 1014.98 603.31 1014.98 653.327 998.475 c 128,-1,16
 703.346 981.968 703.346 981.968 791.29 981.86 c 0,17,18
 841.331 981.814 841.331 981.814 1007.99 1006.31 c 2,19,-1
 1065.5 1014.77 l 1,20,-1
 1069.21 775.512 l 1,21,-1
 1024.17 769.584 l 2,22,23
 826.669 743.59 826.669 743.59 761.84 743.59 c 0,24,25
 627.668 743.59 627.668 743.59 529.643 784.436 c 1,26,27
 533.674 762.467 533.674 762.467 537.653 736.685 c 0,28,29
 575.852 489.179 575.852 489.179 572.439 59.0957 c 2,30,-1
 572.038 8.5 l 1,31,-1
 313.754 8.5 l 1,32,-1
 313.664 59.4102 l 2,33,34
 312.888 498.226 312.888 498.226 274.554 726.138 c 0,35,36
 224.531 1021.15 224.531 1021.15 67.8633 1394.78 c 2,37,-1
 38.208 1465.5 l 1,38,-1
 324.066 1465.5 l 1,39,-1
 336.035 1431.38 l 2,40,41
 371.962 1328.97 371.962 1328.97 394.546 1263.03 c 1,0,1
EndSplineSet
EndChar

StartChar: uni06F5
Encoding: 1781 1781 120
Width: 1177
VWidth: 2232
GlyphClass: 2
Flags: W
LayerCount: 2
Fore
SplineSet
699.484 370.299 m 2,0,1
 712.231 322.028 712.231 322.028 735.881 303.556 c 128,-1,2
 759.53 285.083 759.53 285.083 804.814 286.373 c 0,3,4
 836.884 287.139 836.884 287.139 858.807 294.777 c 0,5,6
 877.567 301.316 877.567 301.316 888.971 313.711 c 128,-1,7
 900.375 326.105 900.375 326.105 906.103 349.224 c 128,-1,8
 911.831 372.342 911.831 372.342 905.368 411.596 c 128,-1,9
 898.906 450.85 898.906 450.85 879.938 505.06 c 0,10,11
 774.529 804.396 774.529 804.396 589.421 1049.51 c 1,12,13
 399.875 782.53 399.875 782.53 308.484 500.959 c 0,14,15
 285.365 429.235 285.365 429.235 285.327 380.975 c 0,16,17
 285.285 330.13 285.285 330.13 308.015 310.037 c 128,-1,18
 330.744 289.945 330.744 289.945 395.245 289.945 c 0,19,20
 431.318 289.945 431.318 289.945 454.3 308.472 c 128,-1,21
 477.282 326.999 477.282 326.999 493.842 374.171 c 2,22,-1
 505.815 408.276 l 1,23,-1
 689.456 408.278 l 1,24,-1
 699.484 370.299 l 2,0,1
366.972 8.36426 m 0,25,26
 213.318 8.36426 213.318 8.36426 125.26 91.4092 c 128,-1,27
 37.2012 174.453 37.2012 174.453 29.0723 327.291 c 0,28,29
 18.7305 521.723 18.7305 521.723 138.86 775.857 c 128,-1,30
 258.991 1029.99 258.991 1029.99 507.887 1352.6 c 0,31,32
 519.535 1367.7 519.535 1367.7 532.108 1378.02 c 0,33,34
 558.212 1399.46 558.212 1399.46 588.545 1400.61 c 0,35,36
 636.723 1402.44 636.723 1402.44 676.57 1353.57 c 0,37,38
 930.792 1041.8 930.792 1041.8 1049.43 787.317 c 128,-1,39
 1168.06 532.839 1168.06 532.839 1147.75 328.965 c 0,40,41
 1132.83 178.641 1132.83 178.641 1048.35 95.1104 c 128,-1,42
 963.874 11.5801 963.874 11.5801 820.697 8.87402 c 0,43,44
 669.771 5.81152 669.771 5.81152 591.341 107.402 c 1,45,46
 514.932 8.36621 514.932 8.36621 366.972 8.36426 c 0,25,26
EndSplineSet
EndChar

StartChar: uni06F6
Encoding: 1782 1782 121
Width: 1177
VWidth: 2232
GlyphClass: 2
Flags: W
LayerCount: 2
Fore
SplineSet
196.562 72.6152 m 2,0,1
 266.633 335.938 266.633 335.938 382.74 525.258 c 0,2,3
 439.175 617.383 439.175 617.383 515.538 693.456 c 1,4,5
 469.994 705.298 469.994 705.298 437.247 731.64 c 0,6,7
 281.58 858.268 281.58 858.268 281.58 1035.53 c 0,8,9
 281.58 1235.47 281.58 1235.47 396.277 1349.01 c 0,10,11
 525.678 1477.27 525.678 1477.27 689.08 1477.27 c 0,12,13
 813.504 1477.27 813.504 1477.27 909.141 1446.76 c 2,14,-1
 944.64 1435.43 l 1,15,-1
 944.64 1167.2 l 1,16,-1
 871.436 1202.61 l 2,17,18
 793.979 1240.07 793.979 1240.07 695.5 1240.07 c 0,19,20
 642.636 1240.07 642.636 1240.07 600.884 1199.19 c 0,21,22
 540.18 1139.41 540.18 1139.41 540.18 1048.37 c 0,23,24
 540.18 980.384 540.18 980.384 588.481 935.597 c 0,25,26
 626.105 900.54 626.105 900.54 723.32 900.54 c 0,27,28
 849.726 900.54 849.726 900.54 940.676 933.046 c 2,29,-1
 1008.84 957.407 l 1,30,-1
 1008.84 695.263 l 1,31,-1
 974.231 683.516 l 2,32,33
 752.07 608.111 752.07 608.111 641.827 458.497 c 0,34,35
 506.742 274.032 506.742 274.032 450.49 47.2236 c 2,36,-1
 440.887 8.5 l 1,37,-1
 179.5 8.5 l 1,38,-1
 196.562 72.6152 l 2,0,1
EndSplineSet
EndChar

StartChar: uniFB8F
Encoding: 64399 64399 136
Width: 1893
VWidth: 2232
GlyphClass: 2
Flags: W
AnchorPoint: "Anchor-10" 450 1225.5 basechar 0
AnchorPoint: "Anchor-7" 607 -119 basechar 0
LayerCount: 2
Fore
SplineSet
1162.09 946.988 m 1,0,1
 1783.17 271.619 1783.17 271.619 1886.08 271.805 c 2,2,-1
 1963.95 271.945 l 1,3,-1
 1963.95 1 l 1,4,-1
 1860.21 1 l 2,5,6
 1688.62 1 1688.62 1 1496.07 224.425 c 1,7,8
 1404.8 0.5 1404.8 0.5 1038.68 0.5 c 2,9,-1
 800.413 0.5 l 2,10,11
 507.899 0.5 507.899 0.5 405.055 33.8623 c 0,12,13
 241.691 86.7109 241.691 86.7109 149.033 204.529 c 128,-1,14
 56.375 322.348 56.375 322.348 40.5908 496.555 c 0,15,16
 29.5696 614.421 29.5696 614.421 73.751 767.869 c 2,17,-1
 87.5498 815.794 l 1,18,-1
 310.14 757.062 l 1,19,-1
 301.643 710.618 l 2,20,21
 276.791 574.778 276.791 574.778 279.451 529.211 c 0,22,23
 285.44 426.636 285.44 426.636 352.831 366.687 c 128,-1,24
 420.222 306.737 420.222 306.737 564.476 284.794 c 0,25,26
 637.967 273.524 637.967 273.524 800.712 271.48 c 1,27,-1
 1140.66 271.63 l 2,28,29
 1218.8 271.664 1218.8 271.664 1252.92 290.816 c 128,-1,30
 1287.04 309.969 1287.04 309.969 1294.77 345.132 c 0,31,32
 1303.27 387.329 1303.27 387.329 1291.37 422.967 c 128,-1,33
 1279.47 458.605 1279.47 458.605 1243.56 494.621 c 2,34,-1
 985.604 753.341 l 2,35,36
 905.267 833.916 905.267 833.916 901.361 929.778 c 0,37,38
 900.162 959.328 900.162 959.328 904.423 986.789 c 0,39,40
 924.577 1116.68 924.577 1116.68 1060.31 1189.34 c 2,41,-1
 1788.05 1578.91 l 1,42,-1
 1788.05 1296.94 l 1,43,-1
 1162.09 946.988 l 1,0,1
EndSplineSet
EndChar

StartChar: uniFB9F
Encoding: 64415 64415 144
Width: 1434
VWidth: 2237
GlyphClass: 2
Flags: W
AnchorPoint: "Anchor-10" 508.924 735.593 basechar 0
AnchorPoint: "Anchor-7" 476.494 -568.601 basechar 0
LayerCount: 2
Fore
SplineSet
1210.65 370.051 m 0,0,1
 1223.48 334.404 1223.48 334.404 1245.97 312.673 c 0,2,3
 1288.7 271.38 1288.7 271.38 1375.28 271.38 c 2,4,-1
 1488.53 271.38 l 1,5,-1
 1488.53 0.5 l 1,6,-1
 1356.43 0.5 l 2,7,8
 1296.87 0.5 1296.87 0.5 1248.89 22.4219 c 1,9,10
 1224.21 -195.417 1224.21 -195.417 1098.92 -317.717 c 0,11,12
 915.481 -497.547 915.481 -497.547 597.42 -488.127 c 0,13,14
 342.875 -480.075 342.875 -480.075 200.443 -340.282 c 128,-1,15
 58.0117 -200.488 58.0117 -200.488 40.0352 57.9834 c 0,16,17
 25.4434 269.484 25.4434 269.484 143.286 473.273 c 2,18,-1
 164.401 509.787 l 1,19,-1
 381.748 433.998 l 1,20,-1
 361.275 384.187 l 2,21,22
 278.396 182.538 278.396 182.538 294.881 56.1094 c 0,23,24
 311.687 -74.0156 311.687 -74.0156 381.513 -141.873 c 128,-1,25
 451.339 -209.73 451.339 -209.73 584.594 -225.346 c 1,26,-1
 606.37 -226.81 l 1,27,28
 806.049 -237.752 806.049 -237.752 928.078 -121.978 c 0,29,30
 1005.87 -47.9307 1005.87 -47.9307 1009.94 98.2627 c 0,31,32
 1014.41 272.838 1014.41 272.838 935.088 376.012 c 2,33,-1
 907.166 412.327 l 1,34,-1
 1146.45 640.946 l 1,35,-1
 1163.01 547.119 l 2,36,37
 1178.52 459.295 1178.52 459.295 1210.65 370.051 c 0,0,1
EndSplineSet
EndChar

StartChar: uniFBE8
Encoding: 64488 64488 147
Width: 609
VWidth: 2237
GlyphClass: 2
Flags: W
AnchorPoint: "Anchor-10" 228.93 1067.5 basechar 0
AnchorPoint: "Anchor-7" 260.93 -61.5 basechar 0
LayerCount: 2
Fore
SplineSet
415.423 92.4746 m 0,0,1
 307.406 0 307.406 0 37.9004 0 c 2,2,-1
 -65.4004 0 l 5,3,-1
 -65.4004 270.98 l 5,4,-1
 46.0498 270.98 l 2,5,6
 135.754 270.98 135.754 270.98 166.183 274.809 c 0,7,8
 238.556 285.745 238.556 285.745 250.553 321.842 c 0,9,10
 267.742 376.617 267.742 376.617 254.183 529.973 c 0,11,12
 245.111 633.626 245.111 633.626 223.721 719.925 c 2,13,-1
 211.023 771.157 l 1,14,-1
 453.612 822.505 l 1,15,-1
 468.068 779.428 l 2,16,17
 500.219 683.623 500.219 683.623 507.941 540.044 c 0,18,19
 517.104 365.426 517.104 365.426 497.021 255.646 c 128,-1,20
 476.939 145.868 476.939 145.868 415.423 92.4746 c 0,0,1
EndSplineSet
EndChar

StartChar: uniFBE9
Encoding: 64489 64489 148
Width: 757
VWidth: 2232
GlyphClass: 2
Flags: W
AnchorPoint: "Anchor-10" 326.93 1015.5 basechar 0
AnchorPoint: "Anchor-7" 308.93 -69.5 basechar 0
LayerCount: 2
Fore
SplineSet
365.285 87.1445 m 1,0,1
 269.114 0 269.114 0 119.9 -0 c 2,2,-1
 -71.4004 0 l 1,3,-1
 -71.4004 270.98 l 1,4,-1
 73.0498 270.98 l 2,5,6
 167.401 270.979 167.401 270.979 198.762 302.129 c 0,7,8
 239.342 342.438 239.342 342.438 240.474 394.884 c 2,9,-1
 245.906 646.602 l 1,10,-1
 483.709 687.695 l 1,11,-1
 494.363 395.643 l 2,12,13
 496.373 340.554 496.373 340.554 537.992 304.095 c 0,14,15
 575.794 270.98 575.794 270.98 692.811 270.98 c 2,16,-1
 828.66 270.98 l 1,17,-1
 828.66 0 l 1,18,-1
 633.96 0 l 2,19,20
 465.74 0 465.74 0 365.285 87.1445 c 1,0,1
EndSplineSet
EndChar

StartChar: uniFE73
Encoding: 65139 65139 156
Width: 573
VWidth: 2186
GlyphClass: 2
Flags: W
AnchorPoint: "Anchor-10" 210.79 1279.5 basechar 0
AnchorPoint: "Anchor-7" 210.79 -111.5 basechar 0
LayerCount: 2
Fore
SplineSet
296.23 350.74 m 2,0,1
 296.23 286.506 296.23 286.506 352.468 230.268 c 0,2,3
 403.354 179.38 403.354 179.38 514.67 179.38 c 2,4,-1
 581.92 179.38 l 1,5,-1
 581.92 8.5 l 1,6,-1
 455.82 8.5 l 2,7,8
 309.266 8.5 309.266 8.5 214.633 103.133 c 0,9,10
 125.35 192.415 125.35 192.415 125.35 337.9 c 2,11,-1
 125.35 370.91 l 1,12,-1
 296.23 370.91 l 1,13,-1
 296.23 350.74 l 2,0,1
EndSplineSet
EndChar

StartChar: uniFE8E
Encoding: 65166 65166 182
Width: 634
VWidth: 2232
GlyphClass: 2
Flags: W
AnchorPoint: "Anchor-10" 280.95 1473 basechar 0
AnchorPoint: "Anchor-7" 262.95 -65.5 basechar 0
LayerCount: 2
Fore
SplineSet
147.51 454.94 m 2,0,-1
 147.51 1327.31 l 1,1,-1
 409.705 1442.63 l 1,2,-1
 366.327 465.194 l 2,3,4
 363.057 391.504 363.057 391.504 389.4 342.011 c 0,5,6
 427.211 270.98 427.211 270.98 578.83 270.98 c 2,7,-1
 692.08 270.98 l 5,8,-1
 692.08 0 l 1,9,-1
 558.98 0 l 2,10,11
 326.221 0 326.221 0 201.654 178.059 c 0,12,13
 171.654 220.942 171.654 220.942 159.582 288.014 c 128,-1,14
 147.51 355.086 147.51 355.086 147.51 454.94 c 2,0,-1
EndSplineSet
EndChar

StartChar: uniFEA2
Encoding: 65186 65186 202
Width: 1408
VWidth: 2232
GlyphClass: 2
Flags: W
AnchorPoint: "Anchor-10" 658.5 1184.5 basechar 0
AnchorPoint: "Anchor-7" 531.84 -767.64 basechar 0
LayerCount: 2
Fore
SplineSet
1207.57 796.38 m 1,0,-1
 1175.42 604.547 l 2,1,2
 1174.38 598.515 1174.38 598.515 1172.33 586.299 c 128,-1,3
 1170.28 574.084 1170.28 574.084 1169.3 568.07 c 1,4,-1
 1132.74 562.549 l 2,5,6
 1075.31 553.876 1075.31 553.876 1021.19 543.388 c 1,7,8
 1054.02 402.2 1054.02 402.2 1133.58 336.79 c 128,-1,9
 1213.13 271.38 1213.13 271.38 1350.13 271.38 c 2,10,-1
 1486.94 271.38 l 5,11,-1
 1486.94 0.5 l 5,12,-1
 1340.51 0.5 l 2,13,14
 1113.08 0.5 1113.08 0.5 968.384 122.886 c 128,-1,15
 823.682 245.271 823.682 245.271 771.344 479.15 c 1,16,17
 336.083 336.565 336.083 336.565 288.408 65.8662 c 0,18,19
 254.18 -125.281 254.18 -125.281 354.394 -239.43 c 0,20,21
 492.586 -398.135 492.586 -398.135 846.087 -342.617 c 0,22,23
 1006.91 -317.361 1006.91 -317.361 1203.39 -200.196 c 2,24,-1
 1255.86 -168.906 l 1,25,-1
 1348.66 -416.888 l 1,26,-1
 1318.11 -439.799 l 2,27,28
 1233.76 -503.07 1233.76 -503.07 1036.82 -556.233 c 0,29,30
 634.768 -664.907 634.768 -664.907 315.034 -528.93 c 0,31,32
 165.478 -465.304 165.478 -465.304 90.4043 -334.826 c 128,-1,33
 15.3311 -204.348 15.3311 -204.348 17.002 -17.5 c 0,34,35
 19.5127 216.882 19.5127 216.882 188.439 393.217 c 128,-1,36
 357.365 569.552 357.365 569.552 680.122 687.675 c 1,37,38
 523.21 731.958 523.21 731.958 498.852 736.239 c 1,39,40
 379.003 746.739 379.003 746.739 259.679 592.873 c 2,41,-1
 228.547 552.729 l 1,42,-1
 47.5068 691.991 l 1,43,-1
 72.2002 731.271 l 2,44,45
 140.286 839.576 140.286 839.576 255.182 925.158 c 0,46,47
 349.979 994.743 349.979 994.743 512.196 982.801 c 0,48,49
 539.865 980.764 539.865 980.764 738.658 920.885 c 0,50,51
 779.705 908.519 779.705 908.519 802.668 901.626 c 0,52,53
 951.844 856.831 951.844 856.831 1161.11 807.362 c 2,54,-1
 1207.57 796.38 l 1,0,-1
EndSplineSet
EndChar

StartChar: uniFEA3
Encoding: 65187 65187 203
Width: 1307
VWidth: 2232
GlyphClass: 2
Flags: W
AnchorPoint: "Anchor-10" 457 1103.73 basechar 0
AnchorPoint: "Anchor-7" 656 -65.5 basechar 0
LayerCount: 2
Fore
SplineSet
687.525 95.8467 m 1,0,1
 515.253 0 515.253 0 132.255 0 c 2,2,-1
 -54.4004 0 l 1,3,-1
 -54.4004 270.98 l 1,4,-1
 103.6 270.98 l 2,5,6
 264.323 270.98 264.323 270.98 373.197 283.302 c 128,-1,7
 482.072 295.624 482.072 295.624 523.953 315.54 c 0,8,9
 693.934 396.372 693.934 396.372 809.89 443.875 c 1,10,11
 770.21 460.17 770.21 460.17 721.268 482.397 c 0,12,13
 658.873 510.732 658.873 510.732 604.339 533.572 c 128,-1,14
 549.804 556.412 549.804 556.412 522.12 566.75 c 128,-1,15
 494.437 577.088 494.437 577.088 488.64 577.946 c 0,16,17
 403.716 590.527 403.716 590.527 295.707 448.521 c 2,18,-1
 264.663 407.707 l 1,19,-1
 81.2168 548.82 l 1,20,-1
 109.452 588.812 l 2,21,22
 204.645 723.637 204.645 723.637 268.751 770.977 c 0,23,24
 406.251 873.036 406.251 873.036 581.291 822.386 c 0,25,26
 676.596 794.803 676.596 794.803 916.661 664.67 c 0,27,28
 1030.75 602.827 1030.75 602.827 1236.06 590.914 c 2,29,-1
 1292.71 587.629 l 1,30,-1
 1256.05 366.679 l 1,31,-1
 1224.37 358.149 l 2,32,33
 1108.02 326.825 1108.02 326.825 687.525 95.8467 c 1,0,1
EndSplineSet
EndChar

StartChar: uniFEA4
Encoding: 65188 65188 204
Width: 1363
VWidth: 2232
GlyphClass: 2
Flags: W
AnchorPoint: "Anchor-10" 455 1123.69 basechar 0
AnchorPoint: "Anchor-7" 599 -65.5 basechar 0
LayerCount: 2
Fore
SplineSet
1087.95 303.453 m 1,0,1
 1154.62 271.88 1154.62 271.88 1322.32 271.88 c 2,2,-1
 1434.94 271.88 l 1,3,-1
 1434.94 0 l 1,4,-1
 1300.92 0 l 2,5,6
 962.859 0 962.859 0 860.639 189.262 c 1,7,8
 781.058 147.224 781.058 147.224 687.53 95.8496 c 0,9,10
 515.253 0 515.253 0 132.255 0 c 2,11,-1
 -71.4004 0 l 1,12,-1
 -71.4004 270.98 l 1,13,-1
 103.601 270.98 l 2,14,15
 264.322 270.98 264.322 270.98 373.195 283.302 c 128,-1,16
 482.069 295.624 482.069 295.624 523.953 315.54 c 0,17,18
 693.934 396.372 693.934 396.372 809.89 443.875 c 1,19,20
 770.21 460.17 770.21 460.17 721.268 482.397 c 0,21,22
 658.873 510.732 658.873 510.732 604.339 533.572 c 128,-1,23
 549.804 556.412 549.804 556.412 522.12 566.75 c 128,-1,24
 494.437 577.088 494.437 577.088 488.64 577.946 c 0,25,26
 403.716 590.527 403.716 590.527 295.707 448.521 c 2,27,-1
 264.663 407.707 l 1,28,-1
 81.2168 548.82 l 1,29,-1
 109.452 588.812 l 2,30,31
 204.645 723.637 204.645 723.637 268.751 770.977 c 0,32,33
 406.251 873.036 406.251 873.036 581.291 822.386 c 0,34,35
 676.596 794.803 676.596 794.803 916.661 664.67 c 0,36,37
 1030.75 602.827 1030.75 602.827 1236.06 590.914 c 2,38,-1
 1292.71 587.629 l 1,39,-1
 1256.05 366.679 l 1,40,-1
 1224.37 358.149 l 2,41,42
 1180.26 346.274 1180.26 346.274 1087.95 303.453 c 1,0,1
EndSplineSet
EndChar

StartChar: uniFEAA
Encoding: 65194 65194 210
Width: 1100
VWidth: 2232
GlyphClass: 2
Flags: W
AnchorPoint: "Anchor-10" 552.99 1159.65 basechar 0
AnchorPoint: "Anchor-7" 435.5 -185 basechar 0
LayerCount: 2
Fore
SplineSet
598.626 484.771 m 2,0,-1
 413.834 909.958 l 1,1,-1
 657.216 1013.4 l 1,2,-1
 677.586 967.53 l 2,3,4
 739.787 827.465 739.787 827.465 900.105 457.878 c 1,5,6
 970.44 298.269 970.44 298.269 1081.04 271.38 c 1,7,-1
 1171.65 271.38 l 1,8,-1
 1171.65 0.5 l 1,9,-1
 1079.44 0.5 l 2,10,11
 926.615 0.5 926.615 0.5 826.658 98.916 c 1,12,13
 661.678 -40.6572 661.678 -40.6572 348.319 -24.707 c 0,14,15
 156.997 -14.9707 156.997 -14.9707 51.1797 58.1562 c 2,16,-1
 29.1748 73.3633 l 1,17,-1
 29.1748 364.53 l 1,18,-1
 104.915 322.512 l 2,19,20
 241.478 246.753 241.478 246.753 370.036 242.606 c 0,21,22
 486.026 238.91 486.026 238.91 556.059 253.077 c 128,-1,23
 626.091 267.243 626.091 267.243 640.479 285.355 c 0,24,25
 666.043 317.535 666.043 317.535 655.573 345.677 c 0,26,27
 634.709 401.755 634.709 401.755 598.626 484.771 c 2,0,-1
EndSplineSet
EndChar

StartChar: uniFEAE
Encoding: 65198 65198 214
Width: 1016
VWidth: 2237
GlyphClass: 2
Flags: W
AnchorPoint: "Anchor-10" 547 869 basechar 0
AnchorPoint: "Anchor-7" 519.925 -504.55 basechar 0
LayerCount: 2
Fore
SplineSet
518.916 534.078 m 5,0,-1
 748.549 699.516 l 5,1,-1
 764.533 622.574 l 6,2,3
 823.494 338.812 823.494 338.812 831.088 310.36 c 4,4,5
 833.889 303.01 833.889 303.01 846.185 295.016 c 132,-1,6
 858.48 287.021 858.48 287.021 895.447 279.001 c 132,-1,7
 932.413 270.979 932.413 270.979 985.84 270.98 c 6,8,-1
 1087.6 270.98 l 5,9,-1
 1087.6 0.00292969 l 5,10,-1
 1036.6 0.000976562 l 6,11,12
 991.585 -0.000976562 991.585 -0.000976562 990.611 0.0078125 c 4,13,14
 889.846 0.175781 889.846 0.175781 829.691 20.3389 c 5,15,16
 777.102 -237.53 777.102 -237.53 604.589 -370.3 c 132,-1,17
 432.075 -503.069 432.075 -503.069 152.368 -503.804 c 6,18,-1
 122.197 -503.884 l 5,19,-1
 0.489258 -283.734 l 5,20,-1
 81.7549 -278.861 l 6,21,22
 326.627 -263.963 326.627 -263.963 451.365 -164.83 c 132,-1,23
 576.104 -65.6982 576.104 -65.6982 597.423 123.15 c 4,24,25
 607.822 215.264 607.822 215.264 528.476 499.8 c 6,26,-1
 518.916 534.078 l 5,0,-1
EndSplineSet
PairPos2: "'kern' Horizontal Kerning lookup 15-1" uniFEF3 dx=70 dy=0 dh=70 dv=0 dx=0 dy=0 dh=0 dv=0
PairPos2: "'kern' Horizontal Kerning lookup 15-1" uniFBFE dx=70 dy=0 dh=70 dv=0 dx=0 dy=0 dh=0 dv=0
PairPos2: "'kern' Horizontal Kerning lookup 15-1" uniFEDF dx=-70 dy=0 dh=-70 dv=0 dx=0 dy=0 dh=0 dv=0
PairPos2: "'kern' Horizontal Kerning lookup 15-1" uniFBAC dx=-70 dy=0 dh=-70 dv=0 dx=0 dy=0 dh=0 dv=0
PairPos2: "'kern' Horizontal Kerning lookup 15-1" uniFB90 dx=-70 dy=0 dh=-70 dv=0 dx=0 dy=0 dh=0 dv=0
PairPos2: "'kern' Horizontal Kerning lookup 15-1" uni06A9 dx=-70 dy=0 dh=-70 dv=0 dx=0 dy=0 dh=0 dv=0
PairPos2: "'kern' Horizontal Kerning lookup 15-1" uni0649 dx=-70 dy=0 dh=-70 dv=0 dx=0 dy=0 dh=0 dv=0
PairPos2: "'kern' Horizontal Kerning lookup 15-1" uni0647 dx=-70 dy=0 dh=-70 dv=0 dx=0 dy=0 dh=0 dv=0
PairPos2: "'kern' Horizontal Kerning lookup 15-1" uniFEE7 dx=-70 dy=0 dh=-70 dv=0 dx=0 dy=0 dh=0 dv=0
PairPos2: "'kern' Horizontal Kerning lookup 15-1" uniFEE3 dx=-70 dy=0 dh=-70 dv=0 dx=0 dy=0 dh=0 dv=0
PairPos2: "'kern' Horizontal Kerning lookup 15-1" uni0645 dx=-70 dy=0 dh=-70 dv=0 dx=0 dy=0 dh=0 dv=0
PairPos2: "'kern' Horizontal Kerning lookup 15-1" uniFEDB dx=-70 dy=0 dh=-70 dv=0 dx=0 dy=0 dh=0 dv=0
PairPos2: "'kern' Horizontal Kerning lookup 15-1" uniFED7 dx=-70 dy=0 dh=-70 dv=0 dx=0 dy=0 dh=0 dv=0
PairPos2: "'kern' Horizontal Kerning lookup 15-1" uniFED3 dx=-70 dy=0 dh=-70 dv=0 dx=0 dy=0 dh=0 dv=0
PairPos2: "'kern' Horizontal Kerning lookup 15-1" uni0641 dx=-70 dy=0 dh=-70 dv=0 dx=0 dy=0 dh=0 dv=0
PairPos2: "'kern' Horizontal Kerning lookup 15-1" uniFECF dx=-70 dy=0 dh=-70 dv=0 dx=0 dy=0 dh=0 dv=0
PairPos2: "'kern' Horizontal Kerning lookup 15-1" uniFECB dx=-70 dy=0 dh=-70 dv=0 dx=0 dy=0 dh=0 dv=0
PairPos2: "'kern' Horizontal Kerning lookup 15-1" uniFEC7 dx=-70 dy=0 dh=-70 dv=0 dx=0 dy=0 dh=0 dv=0
PairPos2: "'kern' Horizontal Kerning lookup 15-1" uni0638 dx=-70 dy=0 dh=-70 dv=0 dx=0 dy=0 dh=0 dv=0
PairPos2: "'kern' Horizontal Kerning lookup 15-1" uniFEC3 dx=-70 dy=0 dh=-70 dv=0 dx=0 dy=0 dh=0 dv=0
PairPos2: "'kern' Horizontal Kerning lookup 15-1" uni0637 dx=-70 dy=0 dh=-70 dv=0 dx=0 dy=0 dh=0 dv=0
PairPos2: "'kern' Horizontal Kerning lookup 15-1" uniFEBF dx=-70 dy=0 dh=-70 dv=0 dx=0 dy=0 dh=0 dv=0
PairPos2: "'kern' Horizontal Kerning lookup 15-1" uni0636 dx=-70 dy=0 dh=-70 dv=0 dx=0 dy=0 dh=0 dv=0
PairPos2: "'kern' Horizontal Kerning lookup 15-1" uniFEBB dx=-70 dy=0 dh=-70 dv=0 dx=0 dy=0 dh=0 dv=0
PairPos2: "'kern' Horizontal Kerning lookup 15-1" uni0635 dx=-70 dy=0 dh=-70 dv=0 dx=0 dy=0 dh=0 dv=0
PairPos2: "'kern' Horizontal Kerning lookup 15-1" uniFEB7 dx=-70 dy=0 dh=-70 dv=0 dx=0 dy=0 dh=0 dv=0
PairPos2: "'kern' Horizontal Kerning lookup 15-1" uni0634 dx=-70 dy=0 dh=-70 dv=0 dx=0 dy=0 dh=0 dv=0
PairPos2: "'kern' Horizontal Kerning lookup 15-1" uniFEB3 dx=-70 dy=0 dh=-70 dv=0 dx=0 dy=0 dh=0 dv=0
PairPos2: "'kern' Horizontal Kerning lookup 15-1" uni0633 dx=-70 dy=0 dh=-70 dv=0 dx=0 dy=0 dh=0 dv=0
PairPos2: "'kern' Horizontal Kerning lookup 15-1" uni0630 dx=-70 dy=0 dh=-70 dv=0 dx=0 dy=0 dh=0 dv=0
PairPos2: "'kern' Horizontal Kerning lookup 15-1" uni062F dx=-70 dy=0 dh=-70 dv=0 dx=0 dy=0 dh=0 dv=0
PairPos2: "'kern' Horizontal Kerning lookup 15-1" uniFEA7 dx=-70 dy=0 dh=-70 dv=0 dx=0 dy=0 dh=0 dv=0
PairPos2: "'kern' Horizontal Kerning lookup 15-1" uniFEA3 dx=-70 dy=0 dh=-70 dv=0 dx=0 dy=0 dh=0 dv=0
PairPos2: "'kern' Horizontal Kerning lookup 15-1" uniFE9F dx=-70 dy=0 dh=-70 dv=0 dx=0 dy=0 dh=0 dv=0
PairPos2: "'kern' Horizontal Kerning lookup 15-1" uniFE9B dx=-70 dy=0 dh=-70 dv=0 dx=0 dy=0 dh=0 dv=0
PairPos2: "'kern' Horizontal Kerning lookup 15-1" uni062B dx=-70 dy=0 dh=-70 dv=0 dx=0 dy=0 dh=0 dv=0
PairPos2: "'kern' Horizontal Kerning lookup 15-1" uniFE97 dx=-70 dy=0 dh=-70 dv=0 dx=0 dy=0 dh=0 dv=0
PairPos2: "'kern' Horizontal Kerning lookup 15-1" uni062A dx=-70 dy=0 dh=-70 dv=0 dx=0 dy=0 dh=0 dv=0
PairPos2: "'kern' Horizontal Kerning lookup 15-1" uni0629 dx=-70 dy=0 dh=-70 dv=0 dx=0 dy=0 dh=0 dv=0
PairPos2: "'kern' Horizontal Kerning lookup 15-1" uni0628 dx=-70 dy=0 dh=-70 dv=0 dx=0 dy=0 dh=0 dv=0
PairPos2: "'kern' Horizontal Kerning lookup 15-1" uni0627 dx=-70 dy=0 dh=-70 dv=0 dx=0 dy=0 dh=0 dv=0
PairPos2: "'kern' Horizontal Kerning lookup 15-1" uni0622 dx=-70 dy=0 dh=-70 dv=0 dx=0 dy=0 dh=0 dv=0
PairPos2: "'kern' Horizontal Kerning lookup 15-1" uniFB94 dx=-70 dy=0 dh=-70 dv=0 dx=0 dy=0 dh=0 dv=0
PairPos2: "'kern' Horizontal Kerning lookup 15-1" afii57509 dx=-70 dy=0 dh=-70 dv=0 dx=0 dy=0 dh=0 dv=0
PairPos2: "'kern' Horizontal Kerning lookup 15-1" uniFB56 dx=-70 dy=0 dh=-70 dv=0 dx=0 dy=0 dh=0 dv=0
PairPos2: "'kern' Horizontal Kerning lookup 15-1" afii57506 dx=-70 dy=0 dh=-70 dv=0 dx=0 dy=0 dh=0 dv=0
EndChar

StartChar: uniFEB2
Encoding: 65202 65202 218
Width: 2394
VWidth: 2237
GlyphClass: 2
Flags: W
AnchorPoint: "Anchor-10" 550 932.5 basechar 0
AnchorPoint: "Anchor-7" 410 -515.5 basechar 0
LayerCount: 2
Fore
SplineSet
1114.74 554.891 m 1,0,1
 1115.42 552.029 1115.42 552.029 1116.47 548.172 c 0,2,3
 1127.75 506.911 1127.75 506.911 1173.2 380.674 c 0,4,5
 1182.21 355.654 1182.21 355.654 1197.22 336.953 c 0,6,7
 1248.95 272.505 1248.95 272.505 1383.29 272.505 c 0,8,9
 1505.13 272.505 1505.13 272.505 1493.91 582.806 c 2,10,-1
 1492 635.65 l 1,11,-1
 1725.9 635.65 l 1,12,-1
 1729.2 588.182 l 2,13,14
 1740.4 426.782 1740.4 426.782 1750.55 374.255 c 0,15,16
 1763.07 309.061 1763.07 309.061 1788.86 284.937 c 128,-1,17
 1814.66 260.812 1814.66 260.812 1862.33 262.482 c 0,18,19
 1896.17 263.428 1896.17 263.428 1915.93 291.942 c 128,-1,20
 1935.7 320.457 1935.7 320.457 1940.5 399.224 c 2,21,-1
 1959.26 706.36 l 1,22,-1
 2162.32 706.36 l 1,23,-1
 2195.59 404.093 l 2,24,25
 2199.44 369.128 2199.44 369.128 2207.5 343.489 c 128,-1,26
 2215.57 317.85 2215.57 317.85 2222.37 307.696 c 128,-1,27
 2229.16 297.543 2229.16 297.543 2235.22 294.123 c 0,28,29
 2275.52 271.38 2275.52 271.38 2356.46 271.38 c 2,30,-1
 2464.33 271.38 l 1,31,-1
 2464.33 0.5 l 1,32,-1
 2327.92 0.5 l 2,33,34
 2161.18 0.5 2161.18 0.5 2074.19 87.873 c 1,35,36
 1997.03 -1.13281 1997.03 -1.13281 1893.25 0.00195312 c 0,37,38
 1707.42 1.20801 1707.42 1.20801 1619.48 92.3447 c 1,39,40
 1541.14 -0.891602 1541.14 -0.891602 1392.5 0.000976562 c 0,41,42
 1271.58 0.733398 1271.58 0.733398 1200.04 28.1953 c 1,43,44
 1177.36 -189.159 1177.36 -189.159 1057.33 -310.758 c 0,45,46
 888.392 -481.482 888.392 -481.482 582.852 -472.042 c 0,47,48
 335.181 -464.389 335.181 -464.389 196.468 -328.579 c 128,-1,49
 57.7549 -192.769 57.7549 -192.769 40.5508 58.0957 c 0,50,51
 26.207 266.005 26.207 266.005 142.034 466.309 c 2,52,-1
 163.149 502.822 l 1,53,-1
 378.174 427.842 l 1,54,-1
 357.701 378.03 l 2,55,56
 276.436 180.31 276.436 180.31 292.587 56.4443 c 0,57,58
 308.812 -69.0635 308.812 -69.0635 376.326 -134.519 c 128,-1,59
 443.841 -199.974 443.841 -199.974 573.066 -215.263 c 1,60,-1
 593.424 -216.632 l 1,61,62
 795.609 -220.057 795.609 -220.057 884.956 -120.696 c 0,63,64
 963.608 -33.2295 963.608 -33.2295 966.978 97.832 c 0,65,66
 972.19 294.555 972.19 294.555 889.5 395.571 c 2,67,-1
 859.579 432.121 l 1,68,-1
 1027.76 592.811 l 1,69,-1
 1114.74 554.891 l 1,0,1
EndSplineSet
EndChar

StartChar: uniFEB3
Encoding: 65203 65203 219
Width: 1580
VWidth: 2232
GlyphClass: 2
Flags: W
AnchorPoint: "Anchor-10" 695.5 1004.5 basechar 0
AnchorPoint: "Anchor-7" 695.5 -119 basechar 0
LayerCount: 2
Fore
SplineSet
306.199 55.5791 m 0,0,1
 222.636 -0 222.636 -0 117.7 0 c 2,2,-1
 -54.4004 0 l 1,3,-1
 -54.4004 270.98 l 1,4,-1
 58.8496 270.98 l 2,5,6
 146.281 270.98 146.281 270.98 190.397 307.659 c 128,-1,7
 234.513 344.338 234.513 344.338 248.236 427.545 c 2,8,-1
 280.979 626.07 l 1,9,-1
 465.145 626.07 l 1,10,-1
 485.926 424.565 l 2,11,12
 494.855 337.995 494.855 337.995 531.084 301.673 c 128,-1,13
 567.312 265.352 567.312 265.352 641.002 264.495 c 0,14,15
 714.087 263.644 714.087 263.644 743.714 284.485 c 128,-1,16
 773.341 305.327 773.341 305.327 778.604 351.863 c 2,17,-1
 809.61 626.07 l 1,18,-1
 1007.75 626.07 l 1,19,-1
 1035.88 373.85 l 2,20,21
 1044.03 300.835 1044.03 300.835 1074.18 276.164 c 128,-1,22
 1104.33 251.492 1104.33 251.492 1172.44 260.224 c 0,23,24
 1197.4 263.381 1197.4 263.381 1209.8 273.155 c 128,-1,25
 1222.21 282.929 1222.21 282.929 1229.75 304.481 c 0,26,27
 1247.21 354.376 1247.21 354.376 1235.03 512.874 c 0,28,29
 1232.84 543.628 1232.84 543.628 1202.62 697.484 c 2,30,-1
 1193.17 745.557 l 1,31,-1
 1431.93 802.5 l 1,32,-1
 1447.29 759.4 l 2,33,34
 1481.23 664.19 1481.23 664.19 1489.8 522.71 c 0,35,36
 1499.8 357.204 1499.8 357.204 1478.24 244.872 c 128,-1,37
 1456.69 132.539 1456.69 132.539 1395.6 69.2285 c 0,38,39
 1359.21 31.4941 1359.21 31.4941 1299.4 16.166 c 128,-1,40
 1239.59 0.837891 1239.59 0.837891 1152.94 0.5 c 0,41,42
 979.215 -0.181641 979.215 -0.181641 901.354 87.4229 c 1,43,44
 822.559 -0.961914 822.559 -0.961914 643.1 0.00585938 c 0,45,46
 450.183 1.83008 450.183 1.83008 364.385 96.374 c 1,47,48
 341.247 78.8906 341.247 78.8906 306.199 55.5791 c 0,0,1
EndSplineSet
EndChar

StartChar: uniFEB4
Encoding: 65204 65204 220
Width: 1671
VWidth: 2227
GlyphClass: 2
Flags: W
AnchorPoint: "Anchor-10" 720.5 999.5 basechar 0
AnchorPoint: "Anchor-7" 720.5 -124 basechar 0
LayerCount: 2
Fore
SplineSet
1148.04 2.26367 m 0,0,1
 991.784 -9.33496 991.784 -9.33496 908.714 91.0381 c 1,2,3
 826.692 1.88379 826.692 1.88379 635.29 3.21094 c 0,4,5
 452.185 4.58301 452.185 4.58301 367.327 98.5 c 1,6,7
 347.421 82.8809 347.421 82.8809 318.579 63.6982 c 0,8,9
 222.81 0 222.81 0 72.207 0 c 2,10,-1
 -73.2744 0 l 1,11,-1
 -73.2744 270.979 l 1,12,-1
 36.4795 270.979 l 2,13,14
 140.87 271.863 140.87 271.863 188.117 300.379 c 128,-1,15
 235.364 328.894 235.364 328.894 244.038 383.25 c 2,16,-1
 282.997 627.36 l 1,17,-1
 461.305 627.36 l 1,18,-1
 490.53 419.484 l 2,19,20
 501.887 338.708 501.887 338.708 535.902 304.263 c 128,-1,21
 569.919 269.818 569.919 269.818 634.832 267.652 c 0,22,23
 708.661 265.403 708.661 265.403 741.103 290.048 c 128,-1,24
 773.544 314.692 773.544 314.692 781.269 374.032 c 2,25,-1
 814.241 627.36 l 1,26,-1
 1007.16 627.36 l 1,27,-1
 1040.35 359.067 l 2,28,29
 1046.78 307.101 1046.78 307.101 1067.93 287.459 c 128,-1,30
 1089.07 267.817 1089.07 267.817 1136.53 267.606 c 0,31,32
 1180.57 267.411 1180.57 267.411 1202.02 291.668 c 128,-1,33
 1223.48 315.924 1223.48 315.924 1229.14 383.547 c 2,34,-1
 1255.29 696 l 1,35,-1
 1454.45 696 l 1,36,-1
 1479.06 415.581 l 2,37,38
 1486.95 325.742 1486.95 325.742 1531.02 292.876 c 0,39,40
 1559.17 271.88 1559.17 271.88 1621.45 271.88 c 2,41,-1
 1728.64 271.88 l 1,42,-1
 1728.64 0 l 1,43,-1
 1576.66 0 l 2,44,45
 1438.47 0 1438.47 0 1361.75 84.1865 c 1,46,47
 1295.72 13.2881 1295.72 13.2881 1148.04 2.26367 c 0,0,1
EndSplineSet
EndChar

StartChar: uniFEBA
Encoding: 65210 65210 226
Width: 2468
VWidth: 2232
GlyphClass: 2
Flags: W
AnchorPoint: "Anchor-10" 578 1032.5 basechar 0
AnchorPoint: "Anchor-7" 453 -490.5 basechar 0
LayerCount: 2
Fore
SplineSet
1480.19 282.197 m 1,0,-1
 1547.95 282.197 l 2,1,2
 1698.09 282.197 1698.09 282.197 1799.36 293.013 c 128,-1,3
 1900.64 303.829 1900.64 303.829 1934.9 320.204 c 0,4,5
 2029.4 365.366 2029.4 365.366 2038.73 413.83 c 1,6,7
 2047.08 471.593 2047.08 471.593 2024.3 503.197 c 0,8,9
 2000.07 536.828 2000.07 536.828 1944.76 544.853 c 0,10,11
 1833.12 562.129 1833.12 562.129 1723.31 487.801 c 0,12,13
 1587.83 397.481 1587.83 397.481 1480.19 282.197 c 1,0,-1
2125.39 111.229 m 1,14,15
 2123.59 109.862 2123.59 109.862 2122.25 108.878 c 0,16,17
 1979.71 2.80566 1979.71 2.80566 1606.78 0.194336 c 2,18,-1
 1321.58 -1.6543 l 2,19,20
 1255.59 -2.08203 1255.59 -2.08203 1201.2 40.1738 c 1,21,22
 1180.55 -185.931 1180.55 -185.931 1057.33 -310.758 c 0,23,24
 888.392 -481.482 888.392 -481.482 582.852 -472.042 c 0,25,26
 335.181 -464.389 335.181 -464.389 196.468 -328.579 c 128,-1,27
 57.7549 -192.769 57.7549 -192.769 40.5508 58.0957 c 0,28,29
 26.207 266.005 26.207 266.005 142.034 466.309 c 2,30,-1
 163.149 502.822 l 1,31,-1
 378.174 427.842 l 1,32,-1
 357.701 378.03 l 2,33,34
 276.436 180.31 276.436 180.31 292.587 56.4443 c 0,35,36
 308.812 -69.0635 308.812 -69.0635 376.326 -134.519 c 128,-1,37
 443.841 -199.974 443.841 -199.974 573.066 -215.263 c 1,38,-1
 593.424 -216.632 l 1,39,40
 795.609 -220.057 795.609 -220.057 884.956 -120.696 c 0,41,42
 963.608 -33.2295 963.608 -33.2295 966.978 97.832 c 0,43,44
 972.19 294.555 972.19 294.555 889.5 395.571 c 2,45,-1
 859.579 432.121 l 1,46,-1
 1087.98 650.343 l 1,47,-1
 1112.42 571.775 l 2,48,49
 1137.39 491.49 1137.39 491.49 1186.24 349.69 c 1,50,51
 1192.97 338.166 1192.97 338.166 1202.65 334.036 c 1,52,53
 1422.68 656.639 1422.68 656.639 1698.35 777.821 c 0,54,55
 1952.28 889.449 1952.28 889.449 2141.89 771.388 c 0,56,57
 2321.16 658.919 2321.16 658.919 2298.72 377.004 c 0,58,59
 2296.6 351.914 2296.6 351.914 2289.69 326.506 c 1,60,61
 2333.15 271.38 2333.15 271.38 2456.78 271.38 c 2,62,-1
 2527.1 271.38 l 1,63,-1
 2527.1 0.5 l 1,64,-1
 2397.93 0.5 l 2,65,66
 2231.28 0.5 2231.28 0.5 2125.39 111.229 c 1,14,15
EndSplineSet
EndChar

StartChar: uniFEBB
Encoding: 65211 65211 227
Width: 1686
VWidth: 2232
GlyphClass: 2
Flags: W
AnchorPoint: "Anchor-10" 548.3 1120.8 basechar 0
AnchorPoint: "Anchor-7" 524.3 -119 basechar 0
LayerCount: 2
Fore
SplineSet
795.345 282.009 m 1,0,-1
 863.115 282.009 l 2,1,2
 1013.25 282.009 1013.25 282.009 1114.52 292.825 c 128,-1,3
 1215.8 303.641 1215.8 303.641 1250.06 320.016 c 0,4,5
 1344.56 365.179 1344.56 365.179 1353.89 413.645 c 1,6,7
 1362.24 471.405 1362.24 471.405 1339.46 503.009 c 0,8,9
 1315.23 536.64 1315.23 536.64 1259.92 544.665 c 0,10,11
 1148.27 561.938 1148.27 561.938 1038.47 487.609 c 0,12,13
 902.989 397.29 902.989 397.29 795.345 282.009 c 1,0,-1
920.766 0 m 2,14,-1
 662.823 0.670898 l 2,15,16
 456.131 1.20898 456.131 1.20898 343.823 125.208 c 1,17,18
 224.371 0 224.371 0 60.9902 0 c 2,19,-1
 -54.4004 0 l 1,20,-1
 -54.4004 270.98 l 1,21,-1
 2.13965 270.98 l 2,22,23
 99.3262 270.98 99.3262 270.98 140.505 303.303 c 0,24,25
 216.457 362.936 216.457 362.936 219.247 438.254 c 2,26,-1
 226.462 633.04 l 1,27,-1
 471.055 633.04 l 1,28,-1
 479.487 417.18 l 2,29,30
 482.495 340.161 482.495 340.161 516.489 331.901 c 1,31,32
 734.925 652.931 734.925 652.931 1013.19 777.493 c 0,33,34
 1265.52 890.461 1265.52 890.461 1457.06 771.195 c 0,35,36
 1637.6 657.907 1637.6 657.907 1613.87 376.714 c 0,37,38
 1601.58 230.857 1601.58 230.857 1437.5 108.755 c 0,39,40
 1291.42 -0.963867 1291.42 -0.963867 920.766 0 c 2,14,-1
EndSplineSet
EndChar

StartChar: uniFEBC
Encoding: 65212 65212 228
Width: 1781
VWidth: 2232
GlyphClass: 2
Flags: W
AnchorPoint: "Anchor-10" 580.5 1185.5 basechar 0
AnchorPoint: "Anchor-7" 588.5 -119 basechar 0
LayerCount: 2
Fore
SplineSet
795.345 282.009 m 1,0,-1
 863.115 282.009 l 2,1,2
 1013.25 282.009 1013.25 282.009 1114.52 292.825 c 128,-1,3
 1215.8 303.641 1215.8 303.641 1250.06 320.016 c 0,4,5
 1344.56 365.179 1344.56 365.179 1353.89 413.645 c 1,6,7
 1362.24 471.405 1362.24 471.405 1339.46 503.009 c 0,8,9
 1315.23 536.64 1315.23 536.64 1259.92 544.665 c 0,10,11
 1148.27 561.938 1148.27 561.938 1038.47 487.609 c 0,12,13
 902.989 397.29 902.989 397.29 795.345 282.009 c 1,0,-1
1437.31 108.612 m 1,14,15
 1360.1 50.9219 1360.1 50.9219 1232.7 25.2207 c 128,-1,16
 1105.29 -0.479492 1105.29 -0.479492 920.766 0 c 2,17,-1
 662.823 0.670898 l 2,18,19
 456.131 1.20898 456.131 1.20898 343.823 125.208 c 1,20,21
 224.371 0 224.371 0 60.9902 0 c 2,22,-1
 -54.4004 0 l 1,23,-1
 -54.4004 270.98 l 1,24,-1
 2.13965 270.98 l 2,25,26
 99.3262 270.98 99.3262 270.98 140.505 303.303 c 0,27,28
 216.457 362.936 216.457 362.936 219.247 438.254 c 2,29,-1
 226.462 633.04 l 1,30,-1
 471.055 633.04 l 1,31,-1
 479.487 417.18 l 2,32,33
 482.495 340.161 482.495 340.161 516.489 331.901 c 1,34,35
 734.925 652.931 734.925 652.931 1013.19 777.493 c 0,36,37
 1265.52 890.461 1265.52 890.461 1457.06 771.195 c 0,38,39
 1637.6 657.907 1637.6 657.907 1613.87 376.712 c 0,40,41
 1612.18 356.683 1612.18 356.683 1607.31 335.899 c 1,42,43
 1669.27 271.38 1669.27 271.38 1758.51 271.38 c 2,44,-1
 1841.8 271.38 l 1,45,-1
 1841.8 0.5 l 1,46,-1
 1737.11 0.5 l 2,47,48
 1528.18 0.5 1528.18 0.5 1437.31 108.612 c 1,14,15
EndSplineSet
EndChar

StartChar: uniFEC1
Encoding: 65217 65217 233
Width: 1427
VWidth: 2232
GlyphClass: 2
Flags: W
AnchorPoint: "Anchor-7" 287.72 -119 basechar 0
AnchorPoint: "Anchor-10" 287.72 1485.47 basechar 0
LayerCount: 2
Fore
SplineSet
620.344 282.009 m 1,0,-1
 688.115 282.009 l 2,1,2
 838.25 282.009 838.25 282.009 939.523 292.825 c 128,-1,3
 1040.8 303.641 1040.8 303.641 1075.06 320.016 c 0,4,5
 1169.56 365.179 1169.56 365.179 1178.89 413.645 c 1,6,7
 1187.24 471.405 1187.24 471.405 1164.46 503.009 c 0,8,9
 1140.23 536.64 1140.23 536.64 1084.92 544.665 c 0,10,11
 973.268 561.938 973.268 561.938 863.461 487.607 c 0,12,13
 727.995 397.297 727.995 397.297 620.344 282.009 c 1,0,-1
745.898 0 m 2,14,-1
 40.75 0 l 5,15,-1
 40.75 270.979 l 5,16,-1
 201.28 270.979 l 1,17,-1
 201.28 1333.98 l 1,18,-1
 468.287 1444.49 l 1,19,-1
 425.644 445.568 l 1,20,21
 612.275 676.366 612.275 676.366 838.188 777.493 c 0,22,23
 1090.53 890.452 1090.53 890.452 1282.06 771.195 c 0,24,25
 1462.6 657.907 1462.6 657.907 1438.87 376.714 c 0,26,27
 1426.58 230.857 1426.58 230.857 1262.41 108.689 c 0,28,29
 1116.35 0 1116.35 0 745.898 0 c 2,14,-1
EndSplineSet
EndChar

StartChar: uniFEC2
Encoding: 65218 65218 234
Width: 1486
VWidth: 2232
GlyphClass: 2
Flags: W
AnchorPoint: "Anchor-7" 430.13 -119 basechar 0
AnchorPoint: "Anchor-10" 250.67 1552.79 basechar 0
LayerCount: 2
Fore
SplineSet
541.344 282.009 m 1,0,-1
 609.115 282.009 l 2,1,2
 759.249 282.009 759.249 282.009 860.522 292.825 c 128,-1,3
 961.795 303.642 961.795 303.642 996.061 320.016 c 0,4,5
 1090.56 365.175 1090.56 365.175 1099.89 413.645 c 1,6,7
 1108.24 471.405 1108.24 471.405 1085.46 503.009 c 0,8,9
 1061.23 536.64 1061.23 536.64 1005.92 544.665 c 0,10,11
 894.27 561.939 894.27 561.939 784.461 487.607 c 0,12,13
 648.995 397.297 648.995 397.297 541.344 282.009 c 1,0,-1
1338.81 291.486 m 1,14,15
 1376.18 271.38 1376.18 271.38 1470.7 271.38 c 2,16,-1
 1556.5 271.38 l 1,17,-1
 1556.5 0.5 l 1,18,-1
 1411.85 0.5 l 2,19,20
 1237.87 0.5 1237.87 0.5 1147.9 83.4092 c 1,21,22
 996.213 0 996.213 0 670.898 -0 c 2,23,-1
 -29.4004 0 l 1,24,-1
 -29.4004 270.98 l 1,25,-1
 124.13 270.98 l 1,26,-1
 124.13 1326.02 l 5,27,-1
 391.357 1444.88 l 5,28,-1
 346.913 445.901 l 1,29,30
 533.676 676.546 533.676 676.546 759.188 777.493 c 0,31,32
 1011.53 890.452 1011.53 890.452 1203.06 771.195 c 0,33,34
 1383.6 657.907 1383.6 657.907 1359.87 376.712 c 0,35,36
 1356.2 333.241 1356.2 333.241 1338.81 291.486 c 1,14,15
EndSplineSet
EndChar

StartChar: uniFEC3
Encoding: 65219 65219 235
Width: 1478
VWidth: 2232
GlyphClass: 2
Flags: W
AnchorPoint: "Anchor-10" 262.57 1488.47 basechar 0
AnchorPoint: "Anchor-7" 268.57 -119 basechar 0
LayerCount: 2
Fore
SplineSet
601.345 282.009 m 1,0,-1
 669.115 282.009 l 2,1,2
 819.25 282.009 819.25 282.009 920.523 292.825 c 128,-1,3
 1021.8 303.641 1021.8 303.641 1056.06 320.016 c 0,4,5
 1150.56 365.179 1150.56 365.179 1159.89 413.645 c 1,6,7
 1168.24 471.405 1168.24 471.405 1145.46 503.009 c 0,8,9
 1121.23 536.64 1121.23 536.64 1065.92 544.665 c 0,10,11
 954.268 561.938 954.268 561.938 844.463 487.608 c 0,12,13
 708.996 397.297 708.996 397.297 601.345 282.009 c 1,0,-1
1243.41 108.689 m 0,14,15
 1097.35 0 1097.35 0 726.898 0 c 2,16,-1
 -54.4004 0 l 1,17,-1
 -54.4004 270.98 l 1,18,-1
 182.13 270.98 l 1,19,-1
 182.13 1334.37 l 5,20,-1
 449.088 1441.56 l 5,21,-1
 406.615 445.532 l 1,22,23
 593.275 676.366 593.275 676.366 819.188 777.493 c 0,24,25
 1071.53 890.452 1071.53 890.452 1263.05 771.199 c 0,26,27
 1443.57 657.928 1443.57 657.928 1419.87 376.714 c 0,28,29
 1407.58 230.857 1407.58 230.857 1243.41 108.689 c 0,14,15
EndSplineSet
EndChar

StartChar: uniFEC4
Encoding: 65220 65220 236
Width: 1446
VWidth: 2232
GlyphClass: 2
Flags: W
AnchorPoint: "Anchor-10" 166.27 1497.79 basechar 0
AnchorPoint: "Anchor-7" 362.73 -119 basechar 0
LayerCount: 2
Fore
SplineSet
506.344 282.009 m 1,0,-1
 574.115 282.009 l 2,1,2
 724.249 282.009 724.249 282.009 825.522 292.825 c 128,-1,3
 926.795 303.642 926.795 303.642 961.061 320.016 c 0,4,5
 1055.56 365.175 1055.56 365.175 1064.89 413.645 c 1,6,7
 1073.24 471.405 1073.24 471.405 1050.46 503.009 c 0,8,9
 1026.23 536.64 1026.23 536.64 970.918 544.665 c 0,10,11
 859.27 561.939 859.27 561.939 749.461 487.607 c 0,12,13
 613.982 397.288 613.982 397.288 506.344 282.009 c 1,0,-1
1303.81 291.486 m 1,14,15
 1341.18 271.38 1341.18 271.38 1435.7 271.38 c 2,16,-1
 1521.5 271.38 l 1,17,-1
 1521.5 0.5 l 1,18,-1
 1376.85 0.5 l 2,19,20
 1202.87 0.5 1202.87 0.5 1112.9 83.4092 c 1,21,22
 961.216 0 961.216 0 635.898 0 c 2,23,-1
 -70.4004 0 l 5,24,-1
 -70.4004 270.98 l 5,25,-1
 89.1299 270.98 l 1,26,-1
 89.1299 1326.19 l 1,27,-1
 358.483 1444.53 l 1,28,-1
 312.219 446.279 l 1,29,30
 498.676 676.546 498.676 676.546 724.188 777.493 c 0,31,32
 976.53 890.452 976.53 890.452 1168.06 771.193 c 0,33,34
 1348.6 657.907 1348.6 657.907 1324.87 376.712 c 0,35,36
 1321.2 333.241 1321.2 333.241 1303.81 291.486 c 1,14,15
EndSplineSet
EndChar

StartChar: uniFECA
Encoding: 65226 65226 242
Width: 1189
VWidth: 2232
GlyphClass: 2
Flags: W
AnchorPoint: "Anchor-10" 568 1111.5 basechar 0
AnchorPoint: "Anchor-7" 611.69 -571.64 basechar 0
LayerCount: 2
Fore
SplineSet
636.904 742.788 m 0,0,1
 574.355 742.788 574.355 742.788 514.44 733.594 c 0,2,3
 452.937 724.164 452.937 724.164 434.442 707.537 c 1,4,5
 445.141 693.55 445.141 693.55 472.512 673.854 c 0,6,7
 523.734 636.992 523.734 636.992 636.904 573.664 c 1,8,9
 750.068 636.981 750.068 636.981 801.294 673.85 c 0,10,11
 829.083 693.847 829.083 693.847 839.689 707.966 c 1,12,13
 822.338 724.771 822.338 724.771 759.643 733.558 c 0,14,15
 693.783 742.788 693.783 742.788 636.904 742.788 c 0,0,1
830.915 415.694 m 1,16,17
 954.138 271.38 954.138 271.38 1049.5 271.38 c 2,18,-1
 1259.7 271.38 l 1,19,-1
 1259.7 0.5 l 1,20,-1
 1066.62 0.5 l 2,21,22
 843.377 0.5 843.377 0.5 597.007 279.81 c 1,23,24
 432.766 206.662 432.766 206.662 365.836 121.908 c 0,25,26
 314.744 57.8955 314.744 57.8955 307.491 -4.20801 c 128,-1,27
 300.238 -66.3105 300.238 -66.3105 335.084 -135.108 c 0,28,29
 415.9 -295.361 415.9 -295.361 744.878 -258.835 c 0,30,31
 869.69 -245.269 869.69 -245.269 1014.74 -178.775 c 2,32,-1
 1086.99 -145.651 l 1,33,-1
 1086.99 -410.549 l 1,34,-1
 1062.12 -425.387 l 2,35,36
 942.322 -496.86 942.322 -496.86 747.74 -507.101 c 0,37,38
 229.374 -534.38 229.374 -534.38 96.3232 -251.271 c 0,39,40
 39.1836 -127.521 39.1836 -127.521 54.4385 -5.11621 c 128,-1,41
 69.6934 117.288 69.6934 117.288 155.399 232.07 c 0,42,43
 235.913 339.899 235.913 339.899 403.678 435.441 c 1,44,45
 310.668 485.718 310.668 485.718 217.145 564.036 c 0,46,47
 176.95 597.964 176.95 597.964 156.45 628.113 c 128,-1,48
 135.949 658.263 135.949 658.263 139.652 695.924 c 0,49,50
 154.045 842.227 154.045 842.227 354.772 936.499 c 0,51,52
 475.168 993.681 475.168 993.681 634.765 993.681 c 128,-1,53
 794.364 993.681 794.364 993.681 914.836 936.465 c 0,54,55
 1134.49 833.304 1134.49 833.304 1134.49 691.561 c 0,56,57
 1134.49 684.154 1134.49 684.154 1133.16 676.758 c 128,-1,58
 1131.82 669.361 1131.82 669.361 1130.56 663.598 c 128,-1,59
 1129.3 657.834 1129.3 657.834 1125.12 650.185 c 128,-1,60
 1120.93 642.535 1120.93 642.535 1119.06 638.35 c 128,-1,61
 1117.19 634.163 1117.19 634.163 1110.54 625.947 c 128,-1,62
 1103.9 617.731 1103.9 617.731 1101.8 614.809 c 128,-1,63
 1099.7 611.885 1099.7 611.885 1090.99 602.788 c 128,-1,64
 1082.28 593.69 1082.28 593.69 1080.35 591.717 c 128,-1,65
 1078.42 589.742 1078.42 589.742 1068.03 579.449 c 128,-1,66
 1057.64 569.156 1057.64 569.156 1056.01 567.568 c 0,67,68
 967.949 480.035 967.949 480.035 830.915 415.694 c 1,16,17
EndSplineSet
EndChar

StartChar: uniFECB
Encoding: 65227 65227 243
Width: 1090
VWidth: 2232
GlyphClass: 2
Flags: W
AnchorPoint: "Anchor-10" 373.265 1267.23 basechar 0
AnchorPoint: "Anchor-7" 513.6 -65.5 basechar 0
LayerCount: 2
Fore
SplineSet
-54.4004 270.98 m 1,0,-1
 180.857 270.978 l 1,1,2
 148.497 317.609 148.497 317.609 131.146 366.985 c 0,3,4
 69.6455 547.815 69.6455 547.815 133.057 705.081 c 0,5,6
 183.799 833.285 183.799 833.285 287.894 901.313 c 128,-1,7
 391.989 969.343 391.989 969.343 539.65 972.696 c 0,8,9
 796.192 978.178 796.192 978.178 920.982 839.567 c 2,10,-1
 943.144 814.952 l 1,11,-1
 851.635 609.476 l 1,12,-1
 800.086 650.519 l 2,13,14
 697.6 732.119 697.6 732.119 543.095 719.012 c 0,15,16
 477.038 713.465 477.038 713.465 436.645 687.164 c 128,-1,17
 396.251 660.864 396.251 660.864 373.669 611.017 c 0,18,19
 332.459 520.051 332.459 520.051 380.014 413.87 c 0,20,21
 414.581 335.432 414.581 335.432 469.11 310.163 c 0,22,23
 479.352 305.417 479.352 305.417 502.062 303.614 c 128,-1,24
 524.771 301.812 524.771 301.812 565.688 305.008 c 128,-1,25
 606.604 308.203 606.604 308.203 655.016 317.587 c 2,26,-1
 1009 386.199 l 1,27,-1
 1009 114.77 l 1,28,-1
 970.716 104.913 l 2,29,30
 563.119 -0.0253906 563.119 -0.0253906 356.354 -0.015625 c 2,31,-1
 -54.4004 0.00195312 l 1,32,-1
 -54.4004 270.98 l 1,0,-1
EndSplineSet
EndChar

StartChar: uniFECC
Encoding: 65228 65228 244
Width: 1097
VWidth: 2232
GlyphClass: 2
Flags: W
AnchorPoint: "Anchor-10" 544.58 1111.5 basechar 0
AnchorPoint: "Anchor-7" 544.58 -65.5 basechar 0
LayerCount: 2
Fore
SplineSet
550.384 612.093 m 0,0,1
 487.836 612.093 487.836 612.093 427.92 602.899 c 0,2,3
 366.416 593.47 366.416 593.47 347.923 576.843 c 1,4,5
 358.622 562.854 358.622 562.854 385.991 543.158 c 0,6,7
 437.214 506.296 437.214 506.296 550.384 442.968 c 1,8,9
 663.537 506.279 663.537 506.279 714.773 543.155 c 0,10,11
 742.562 563.15 742.562 563.15 753.17 577.271 c 1,12,13
 735.817 594.075 735.817 594.075 673.121 602.862 c 0,14,15
 607.262 612.093 607.262 612.093 550.384 612.093 c 0,0,1
120.86 0 m 2,16,-1
 -68.4004 0 l 1,17,-1
 -68.4004 270.98 l 1,18,-1
 97.3203 270.98 l 2,19,20
 202.6 270.98 202.6 270.98 288.34 299.979 c 0,21,22
 300.173 303.981 300.173 303.981 311.366 307.896 c 1,23,24
 221.465 357.27 221.465 357.27 130.628 433.338 c 0,25,26
 90.4297 467.269 90.4297 467.269 69.9287 497.418 c 128,-1,27
 49.4277 527.566 49.4277 527.566 53.1318 565.228 c 0,28,29
 67.5225 711.53 67.5225 711.53 268.261 805.808 c 0,30,31
 375.739 856.854 375.739 856.854 546.382 862.951 c 0,32,33
 591.403 864.614 591.403 864.614 693.801 854.225 c 0,34,35
 871.52 835.85 871.52 835.85 941.542 748.179 c 0,36,37
 998.267 676.104 998.267 676.104 979.137 529.785 c 0,38,39
 970.82 467.982 970.82 467.982 920.159 415.108 c 128,-1,40
 869.498 362.233 869.498 362.233 779.609 309.478 c 1,41,42
 794.155 304.988 794.155 304.988 810.779 300.212 c 0,43,44
 913.373 270.74 913.373 270.74 991.707 270.979 c 2,45,-1
 1166.56 271.513 l 1,46,-1
 1166.56 0.5 l 1,47,-1
 968.3 0.5 l 2,48,49
 720.813 0.5 720.813 0.5 546.073 146.721 c 1,50,51
 370.7 0 370.7 0 120.86 0 c 2,16,-1
EndSplineSet
EndChar

StartChar: uniFEDA
Encoding: 65242 65242 258
Width: 1840
VWidth: 2232
GlyphClass: 2
Flags: W
AnchorPoint: "Anchor-10" 539 1418.5 basechar 0
AnchorPoint: "Anchor-7" 790 -172.5 basechar 0
LayerCount: 2
Fore
SplineSet
751.117 0 m 0,0,1
 513.317 0.457031 513.317 0.457031 410.082 33.8535 c 0,2,3
 246.687 86.7119 246.687 86.7119 154.031 204.525 c 128,-1,4
 61.376 322.339 61.376 322.339 45.5908 496.555 c 0,5,6
 34.5696 614.422 34.5696 614.422 78.751 767.869 c 2,7,-1
 92.5498 815.794 l 1,8,-1
 315.14 757.062 l 1,9,-1
 306.643 710.618 l 2,10,11
 281.791 574.78 281.791 574.78 284.478 528.762 c 0,12,13
 288.668 425.686 288.668 425.686 355.711 366.023 c 128,-1,14
 422.754 306.361 422.754 306.361 569.196 284.836 c 0,15,16
 662.684 271.094 662.684 271.094 812.524 269.478 c 0,17,18
 1012.83 267.417 1012.83 267.417 1126.4 278.238 c 0,19,20
 1450.84 307.862 1450.84 307.862 1462.7 446.446 c 2,21,-1
 1466.33 488.844 l 1,22,-1
 1424.98 1313.03 l 1,23,-1
 1685.3 1440.81 l 1,24,-1
 1685.3 457.814 l 2,25,26
 1685.3 437.259 1685.3 437.259 1682.52 399.731 c 0,27,28
 1679.33 356.633 1679.33 356.633 1666.31 311.412 c 1,29,30
 1709.36 271.38 1709.36 271.38 1795.97 271.38 c 2,31,-1
 1911.22 271.38 l 1,32,-1
 1911.22 0.5 l 1,33,-1
 1737.12 0.5 l 2,34,35
 1626.9 0.5 1626.9 0.5 1496.26 99.7061 c 1,36,37
 1404.69 52.0029 1404.69 52.0029 1270.74 29.1875 c 0,38,39
 1085.51 -1.46777 1085.51 -1.46777 751.117 0 c 0,0,1
1096.77 1286.4 m 1,40,-1
 1096.77 1132.74 l 1,41,-1
 1049.51 1129.26 l 2,42,43
 987.002 1124.66 987.002 1124.66 955.382 1113 c 0,44,45
 935.38 1105.5 935.38 1105.5 919.909 1096.74 c 128,-1,46
 904.438 1087.98 904.438 1087.98 898.602 1083.03 c 128,-1,47
 892.764 1078.07 892.764 1078.07 891.334 1075.59 c 1,48,49
 891.605 1058.7 891.605 1058.7 898.26 1049.07 c 1,50,51
 914.426 1039.41 914.426 1039.41 963.711 1032.16 c 0,52,53
 1028.56 1022.62 1028.56 1022.62 1065.01 989.321 c 0,54,55
 1106.05 951.844 1106.05 951.844 1106.05 889.298 c 0,56,57
 1106.05 828.158 1106.05 828.158 1076.02 778.82 c 128,-1,58
 1045.98 729.482 1045.98 729.482 990.944 698.358 c 0,59,60
 910.612 652.928 910.612 652.928 802.926 651.929 c 0,61,62
 738.524 651.929 738.524 651.929 681.746 661.412 c 2,63,-1
 639.148 668.526 l 1,64,-1
 639.148 828.331 l 1,65,-1
 696.812 820.729 l 2,66,67
 754.256 813.158 754.256 813.158 793.059 813.158 c 0,68,69
 858.19 813.158 858.19 813.158 897.611 828.678 c 0,70,71
 949.45 848.587 949.45 848.587 949.45 867.898 c 1,72,73
 950.605 884.885 950.605 884.885 894.576 894.014 c 0,74,75
 821.173 905.199 821.173 905.199 778.499 948.845 c 0,76,77
 732.684 995.704 732.684 995.704 734.387 1074.08 c 0,78,79
 735.652 1125.26 735.652 1125.26 762.045 1165.93 c 128,-1,80
 788.438 1206.59 788.438 1206.59 834.85 1230.11 c 0,81,82
 924.539 1275.48 924.539 1275.48 1042.54 1282.96 c 2,83,-1
 1096.77 1286.4 l 1,40,-1
EndSplineSet
EndChar

StartChar: uniFEDB
Encoding: 65243 65243 259
Width: 831
VWidth: 2232
GlyphClass: 2
Flags: W
AnchorPoint: "Anchor-10" 198.5 1439 basechar 0
AnchorPoint: "Anchor-7" 305 -179 basechar 0
LayerCount: 2
Fore
SplineSet
293.7 0 m 2,0,-1
 -71.4004 0 l 1,1,-1
 -71.4004 270.976 l 1,2,-1
 252.366 271.004 l 2,3,4
 490.98 271.025 490.98 271.025 507.496 376.698 c 0,5,6
 515.87 430.3 515.87 430.3 496.276 473.294 c 128,-1,7
 476.683 516.287 476.683 516.287 423.699 555.607 c 2,8,-1
 63.0244 823.27 l 2,9,10
 -24.6689 888.349 -24.6689 888.349 -33.3242 989.315 c 0,11,12
 -35.7705 1020.91 -35.7705 1020.91 -32.5391 1049.28 c 0,13,14
 -25.6758 1109.54 -25.6758 1109.54 7.72949 1156.4 c 128,-1,15
 41.1357 1203.25 41.1357 1203.25 96.583 1231.4 c 2,16,-1
 817.25 1597.17 l 1,17,-1
 817.25 1317.53 l 1,18,-1
 254.354 1023.34 l 5,19,20
 440.649 883.562 440.649 883.562 615.008 739.123 c 1,21,22
 783.713 596.721 783.713 596.721 755.683 322.49 c 0,23,24
 739.115 163.584 739.115 163.584 611.818 79.6025 c 0,25,26
 491.159 0 491.159 0 293.7 0 c 2,0,-1
EndSplineSet
EndChar

StartChar: uniFEDC
Encoding: 65244 65244 260
Width: 1009
VWidth: 2232
GlyphClass: 2
Flags: W
AnchorPoint: "Anchor-10" 206.5 1394 basechar 0
AnchorPoint: "Anchor-7" 317 -169 basechar 0
LayerCount: 2
Fore
SplineSet
615.262 223.925 m 1,0,1
 524.009 0 524.009 0 157.875 0 c 2,2,-1
 -71.4004 0 l 1,3,-1
 -71.4004 270.953 l 1,4,-1
 259.848 271.13 l 2,5,6
 337.997 271.172 337.997 271.172 372.118 290.326 c 128,-1,7
 406.241 309.479 406.241 309.479 413.968 344.631 c 0,8,9
 422.468 386.826 422.468 386.826 410.568 422.465 c 128,-1,10
 398.668 458.107 398.668 458.107 362.76 494.121 c 2,11,-1
 104.803 752.841 l 2,12,13
 24.4607 833.421 24.4607 833.421 20.5576 929.278 c 0,14,15
 19.3594 958.834 19.3594 958.834 23.6191 986.291 c 0,16,17
 43.7723 1116.18 43.7723 1116.18 179.502 1188.84 c 2,18,-1
 907.25 1578.41 l 1,19,-1
 907.25 1296.44 l 1,20,-1
 279.973 947.842 l 1,21,22
 933.002 271.177 933.002 271.177 1002.28 271.305 c 2,23,-1
 1080.15 271.448 l 1,24,-1
 1080.15 0.5 l 1,25,-1
 979.41 0.5 l 2,26,27
 807.82 0.5 807.82 0.5 615.262 223.925 c 1,0,1
EndSplineSet
EndChar

StartChar: uniFEDE
Encoding: 65246 65246 262
Width: 1448
VWidth: 2232
GlyphClass: 2
Flags: W
AnchorPoint: "Anchor-10" 452.5 931.5 basechar 0
AnchorPoint: "Anchor-7" 402.974 -723.619 basechar 0
LayerCount: 2
Fore
SplineSet
1018.96 88.3535 m 2,0,-1
 1019.13 322.316 l 1,1,-1
 983.295 1324.32 l 5,2,-1
 1244.28 1441.68 l 5,3,-1
 1244.28 451.31 l 2,4,5
 1244.28 351.553 1244.28 351.553 1287.04 308.797 c 0,6,7
 1324.46 271.38 1324.46 271.38 1406.72 271.38 c 2,8,-1
 1518.97 271.38 l 1,9,-1
 1518.97 0.5 l 1,10,-1
 1420.87 0.5 l 2,11,12
 1326.66 0.5 1326.66 0.5 1240.69 37.1182 c 1,13,14
 1220.76 -189.438 1220.76 -189.438 1115.59 -325.229 c 0,15,16
 977.32 -503.759 977.32 -503.759 684.293 -511.058 c 0,17,18
 359.326 -519.192 359.326 -519.192 199.705 -354.555 c 0,19,20
 52.2686 -203.478 52.2686 -203.478 55.8975 34.4619 c 0,21,22
 59.4513 267.29 59.4513 267.29 148.546 447.593 c 2,23,-1
 166.7 484.332 l 1,24,-1
 419.306 422.001 l 1,25,-1
 394.976 366.519 l 2,26,27
 316.529 187.628 316.529 187.628 321.542 41.5625 c 0,28,29
 326.404 -100.104 326.404 -100.104 399.736 -167.41 c 0,30,31
 491.876 -251.895 491.876 -251.895 669.631 -247.337 c 0,32,33
 837.265 -243.038 837.265 -243.038 920.11 -180.335 c 0,34,35
 1018.82 -105.629 1018.82 -105.629 1018.96 88.3535 c 2,0,-1
EndSplineSet
EndChar

StartChar: uniFEDF
Encoding: 65247 65247 263
Width: 582
VWidth: 2232
GlyphClass: 2
Flags: W
AnchorPoint: "Anchor-10" 297.73 1481 basechar 0
AnchorPoint: "Anchor-7" 230.73 -143.5 basechar 0
LayerCount: 2
Fore
SplineSet
444.17 487.69 m 2,0,1
 444.17 224.63 444.17 224.63 319.738 101.627 c 0,2,3
 216.93 0 216.93 0 61.7002 0 c 2,4,-1
 -71.4004 0 l 5,5,-1
 -71.4004 270.98 l 5,6,-1
 12.8506 270.98 l 2,7,8
 127.494 270.98 127.494 270.98 176.137 331.759 c 0,9,10
 227.233 395.612 227.233 395.612 222.339 498.309 c 2,11,-1
 182.823 1327.56 l 1,12,-1
 444.17 1443.43 l 1,13,-1
 444.17 487.69 l 2,0,1
EndSplineSet
EndChar

StartChar: uniFEE0
Encoding: 65248 65248 264
Width: 650
VWidth: 2232
GlyphClass: 2
Flags: W
AnchorPoint: "Anchor-10" 316.73 1477 basechar 0
AnchorPoint: "Anchor-7" 243.73 -193.5 basechar 0
LayerCount: 2
Fore
SplineSet
325.971 86.9678 m 1,0,1
 229.914 0 229.914 0 80.7002 0 c 2,2,-1
 -71.4004 0 l 5,3,-1
 -71.4004 270.98 l 5,4,-1
 21.8496 270.98 l 2,5,6
 110.948 270.98 110.948 270.98 151.256 309.51 c 0,7,8
 189.971 346.516 189.971 346.516 196.29 452.739 c 1,9,-1
 196.29 1327.05 l 1,10,-1
 458.448 1444.03 l 1,11,-1
 415.128 449.25 l 2,12,13
 411.137 357.597 411.137 357.597 459.933 308.795 c 0,14,15
 475.502 293.227 475.502 293.227 518.586 282.104 c 128,-1,16
 561.662 270.98 561.662 270.98 629.61 270.98 c 2,17,-1
 721.86 270.98 l 1,18,-1
 721.86 0 l 1,19,-1
 570.76 0 l 2,20,21
 423.824 0 423.824 0 325.971 86.9678 c 1,0,1
EndSplineSet
EndChar

StartChar: uniFEE2
Encoding: 65250 65250 266
Width: 1137
VWidth: 2232
GlyphClass: 2
Flags: W
AnchorPoint: "Anchor-10" 555.5 1042 basechar 0
AnchorPoint: "Anchor-7" 193.188 -707.422 basechar 0
LayerCount: 2
Fore
SplineSet
499.184 425.199 m 1,0,1
 511.277 253.025 511.277 253.025 608.181 185.163 c 0,2,3
 673.201 139.632 673.201 139.632 734.727 159.071 c 0,4,5
 751.025 164.1 751.025 164.1 762.029 184.838 c 128,-1,6
 773.033 205.577 773.033 205.577 778.481 257.356 c 128,-1,7
 783.93 309.136 783.93 309.136 768.635 394.976 c 0,8,9
 761.163 441.875 761.163 441.875 742.117 459.576 c 128,-1,10
 723.072 477.277 723.072 477.277 682.434 478.105 c 0,11,12
 568.122 480.391 568.122 480.391 499.184 425.199 c 1,0,1
1033.87 284.03 m 1,13,14
 1058.55 270.872 1058.55 270.872 1117.68 270.713 c 2,15,-1
 1207.99 270.47 l 1,16,-1
 1207.99 0.709961 l 1,17,-1
 1103.5 0.709961 l 2,18,19
 1014.26 0.709961 1014.26 0.709961 958.028 25.8711 c 1,20,21
 908.909 -75.0332 908.909 -75.0332 789.863 -97.7324 c 0,22,23
 656.238 -122.539 656.238 -122.539 532.389 -70.5098 c 1,24,25
 317.558 22.876 317.558 22.876 280.229 314.887 c 1,26,27
 261.158 293.516 261.158 293.516 247.626 260.715 c 0,28,29
 224.912 205.189 224.912 205.189 233.348 73.3516 c 2,30,-1
 272.507 -538.622 l 1,31,-1
 13.7158 -668.159 l 1,32,-1
 5.91699 129.012 l 2,33,34
 3.07812 419.156 3.07812 419.156 175.381 551.537 c 0,35,36
 348.569 684.592 348.569 684.592 550.18 726.05 c 0,37,38
 743.762 765.856 743.762 765.856 858.613 690.111 c 0,39,40
 973.032 614.657 973.032 614.657 1003.86 476.518 c 0,41,42
 1028.1 367.93 1028.1 367.93 1033.87 284.03 c 1,13,14
EndSplineSet
EndChar

StartChar: uniFEE3
Encoding: 65251 65251 267
Width: 970
VWidth: 2232
GlyphClass: 2
Flags: W
AnchorPoint: "Anchor-10" 374.69 962.5 basechar 0
AnchorPoint: "Anchor-7" 344.69 -123.5 basechar 0
LayerCount: 2
Fore
SplineSet
870.867 131.618 m 0,0,1
 838.108 28.8281 838.108 28.8281 749.923 -16.3193 c 128,-1,2
 661.736 -61.4678 661.736 -61.4678 532.551 -50.9268 c 0,3,4
 375.496 -38.1113 375.496 -38.1113 242.716 55.3506 c 1,5,6
 176.69 0 176.69 0 35.9805 0 c 2,7,-1
 -71.4004 0 l 5,8,-1
 -71.4004 270.979 l 5,9,-1
 50.959 270.979 l 2,10,11
 83.6465 270.979 83.6465 270.979 99.8291 276.628 c 1,12,13
 105.813 322.204 105.813 322.204 153.358 464.627 c 0,14,15
 194.808 588.793 194.808 588.793 267.937 665.588 c 128,-1,16
 341.065 742.383 341.065 742.383 444.271 764.034 c 0,17,18
 572.173 790.693 572.173 790.693 670.988 724.253 c 128,-1,19
 769.803 657.812 769.803 657.812 831.153 512.485 c 0,20,21
 922.784 294.055 922.784 294.055 870.867 131.618 c 0,0,1
461.905 220.549 m 0,22,23
 542.333 201.641 542.333 201.641 589.9 208.102 c 0,24,25
 626.574 213.082 626.574 213.082 637.777 230.139 c 128,-1,26
 648.979 247.195 648.979 247.195 642.154 297.104 c 0,27,28
 637.611 331.46 637.611 331.46 593.993 421.936 c 0,29,30
 557.685 498.331 557.685 498.331 511.672 503.841 c 0,31,32
 465.272 509.396 465.272 509.396 414.857 440.313 c 0,33,34
 386.276 401.54 386.276 401.54 352.753 277.712 c 1,35,36
 418.51 231.194 418.51 231.194 461.905 220.549 c 0,22,23
EndSplineSet
EndChar

StartChar: uniFEE4
Encoding: 65252 65252 268
Width: 1127
VWidth: 2232
GlyphClass: 2
Flags: W
AnchorPoint: "Anchor-10" 492.79 939.5 basechar 0
AnchorPoint: "Anchor-7" 468.79 -155.5 basechar 0
LayerCount: 2
Fore
SplineSet
556.605 216.449 m 0,0,1
 643.49 189.794 643.49 189.794 679.915 211.361 c 0,2,3
 750.396 255.093 750.396 255.093 661.221 426.092 c 0,4,5
 611.225 520.983 611.225 520.983 551.684 515.952 c 0,6,7
 451.992 507.531 451.992 507.531 420.412 290.994 c 1,8,9
 491.545 237.162 491.545 237.162 556.605 216.449 c 0,0,1
650.834 -58.8145 m 2,10,11
 430.481 -58.5723 430.481 -58.5723 294.968 62.4561 c 1,12,13
 204.001 0 204.001 0 85.5996 0 c 2,14,-1
 -71.4004 0 l 1,15,-1
 -71.4004 270.979 l 1,16,-1
 92.0195 270.979 l 2,17,18
 111.031 270.979 111.031 270.979 126.054 272.726 c 128,-1,19
 141.077 274.472 141.077 274.472 148.938 276.964 c 128,-1,20
 156.8 279.456 156.8 279.456 161.944 281.947 c 128,-1,21
 167.09 284.439 167.09 284.439 168.533 286.186 c 2,22,-1
 169.977 287.932 l 1,23,24
 171.573 302.814 171.573 302.814 187.834 395.28 c 0,25,26
 220.722 577.871 220.722 577.871 292.188 655.532 c 1,27,28
 404.141 779.709 404.141 779.709 572.352 776.762 c 0,29,30
 795.637 772.359 795.637 772.359 929.989 423.082 c 0,31,32
 988.465 271.09 988.465 271.09 1074.28 271.09 c 2,33,-1
 1198.18 271.09 l 5,34,-1
 1198.18 0.209961 l 5,35,-1
 1015.43 0.209961 l 2,36,37
 941.775 0.209961 941.775 0.209961 878.185 62.3311 c 1,38,39
 815.582 -34.6738 815.582 -34.6738 658.458 -58.25 c 2,40,-1
 654.667 -58.8184 l 1,41,-1
 650.834 -58.8145 l 2,10,11
EndSplineSet
EndChar

StartChar: uniFEEA
Encoding: 65258 65258 274
Width: 1181
VWidth: 2232
GlyphClass: 2
Flags: W
AnchorPoint: "Anchor-10" 458.95 1159.81 basechar 0
AnchorPoint: "Anchor-7" 435.88 -83 basechar 0
LayerCount: 2
Fore
SplineSet
674.213 476.08 m 1,0,1
 661.916 569.863 661.916 569.863 653.296 640.601 c 1,2,3
 572.024 632.324 572.024 632.324 508.099 619.384 c 128,-1,4
 444.173 606.444 444.173 606.444 406.432 592.777 c 128,-1,5
 368.691 579.111 368.691 579.111 344.282 563.719 c 128,-1,6
 319.874 548.326 319.874 548.326 311.292 535.749 c 128,-1,7
 302.711 523.172 302.711 523.172 303.449 511.805 c 0,8,9
 304.825 491.417 304.825 491.417 311.994 483.335 c 128,-1,10
 319.163 475.252 319.163 475.252 341.081 470.2 c 0,11,12
 465.756 443.882 465.756 443.882 674.213 476.08 c 1,0,1
708.654 235.06 m 1,13,14
 538.622 213.59 538.622 213.59 408.404 218.926 c 128,-1,15
 278.187 224.262 278.187 224.262 188.465 269.351 c 128,-1,16
 98.7432 314.438 98.7432 314.438 61.8848 399.708 c 0,17,18
 50.0117 426.956 50.0117 426.956 47.6611 482.659 c 0,19,20
 42.8545 572.087 42.8545 572.087 80.4629 643.114 c 128,-1,21
 118.072 714.143 118.072 714.143 194.407 764.143 c 128,-1,22
 270.743 814.144 270.743 814.144 377.722 846.442 c 128,-1,23
 484.699 878.742 484.699 878.742 624.195 894.847 c 1,24,25
 620.821 925.049 620.821 925.049 614.58 970.021 c 2,26,-1
 608.202 1015.98 l 1,27,-1
 857.354 1074.92 l 1,28,-1
 863.751 1017.62 l 2,29,30
 866.554 992.232 866.554 992.232 922.975 483.403 c 0,31,32
 932.867 394.2 932.867 394.2 956.389 346.021 c 128,-1,33
 979.91 297.842 979.91 297.842 1009.17 284.764 c 0,34,35
 1041.61 271.02 1041.61 271.02 1128.31 271 c 2,36,-1
 1252.26 270.971 l 1,37,-1
 1252.26 0 l 1,38,-1
 1109.34 0 l 2,39,40
 950.919 0 950.919 0 847.379 58.5088 c 128,-1,41
 743.838 117.018 743.838 117.018 708.654 235.06 c 1,13,14
EndSplineSet
EndChar

StartChar: uniFEEB
Encoding: 65259 65259 275
Width: 1275
VWidth: 2232
GlyphClass: 2
Flags: W
AnchorPoint: "Anchor-10" 601.801 1264.23 basechar 0
AnchorPoint: "Anchor-7" 425.542 -179.946 basechar 0
LayerCount: 2
Fore
SplineSet
812.163 502.732 m 1,0,1
 807.759 438.262 807.759 438.262 780.481 382.899 c 0,2,3
 741.447 302.531 741.447 302.531 650.836 230.654 c 1,4,5
 704.927 213.6 704.927 213.6 749.796 206.157 c 0,6,7
 924.718 177.138 924.718 177.138 946.529 309.655 c 0,8,9
 958.365 381.927 958.365 381.927 812.163 502.732 c 1,0,1
347.642 819.513 m 1,10,-1
 442.534 1038.03 l 1,11,-1
 841.39 784.736 l 1,12,13
 1003.7 676.324 1003.7 676.324 1091.84 573.238 c 128,-1,14
 1179.98 470.152 1179.98 470.152 1191.25 364.529 c 0,15,16
 1209.88 197.901 1209.88 197.901 1130.47 97.1211 c 128,-1,17
 1051.07 -3.65918 1051.07 -3.65918 886.378 -21.1602 c 0,18,19
 692.37 -41.7754 692.37 -41.7754 438.757 70.1416 c 1,20,21
 269.747 0 269.747 0 -7.37012 0 c 2,22,-1
 -71.4004 0 l 1,23,-1
 -71.4004 270.98 l 1,24,-1
 93.0898 270.98 l 2,25,26
 108.202 270.98 108.202 270.98 122.245 271.014 c 1,27,28
 92.3262 345.814 92.3262 345.814 96.5361 438.181 c 0,29,30
 101.165 553.842 101.165 553.842 166.472 657.178 c 1,31,32
 238.295 768.769 238.295 768.769 347.642 819.513 c 1,10,-1
625.675 472.702 m 1,33,34
 676.417 586.263 676.417 586.263 620.246 623.58 c 0,35,36
 494.75 708.746 494.75 708.746 393.085 586.231 c 0,37,38
 334.219 515.293 334.219 515.293 326.081 463.627 c 0,39,40
 314.492 392.442 314.492 392.442 335.129 352.855 c 128,-1,41
 355.767 313.271 355.767 313.271 413.947 289.229 c 1,42,43
 581.071 375.379 581.071 375.379 625.675 472.702 c 1,33,34
EndSplineSet
EndChar

StartChar: uniFEEC
Encoding: 65260 65260 276
Width: 1055
VWidth: 2232
GlyphClass: 2
Flags: W
AnchorPoint: "Anchor-7" 369.88 -572.244 basechar 0
AnchorPoint: "Anchor-10" 557.76 1125.74 basechar 0
LayerCount: 2
Fore
SplineSet
371.161 273.508 m 1,0,1
 416.866 278.297 416.866 278.297 441.104 313.42 c 0,2,3
 500.688 403.952 500.688 403.952 500.688 569.296 c 0,4,5
 500.688 629.59 500.688 629.59 492 648.072 c 1,6,7
 484.867 658.268 484.867 658.268 479.653 661.134 c 128,-1,8
 474.439 664 474.439 664 465.352 664 c 0,9,10
 458.029 664 458.029 664 450.095 659.376 c 128,-1,11
 442.161 654.751 442.161 654.751 431.726 642.919 c 128,-1,12
 421.291 631.087 421.291 631.087 410.332 605.053 c 128,-1,13
 399.374 579.019 399.374 579.019 390.177 541.704 c 0,14,15
 358.155 411.491 358.155 411.491 371.161 273.508 c 1,0,1
446 -298 m 1,16,17
 554.051 276.528 554.051 276.528 1017.88 271.982 c 26,18,-1
 1126.64 270.916 l 1,19,-1
 1126.64 0.583008 l 1,20,-1
 877.472 0 l 2,21,22
 783.005 -0.221036 783.005 -0.221036 698.338 -130.526 c 128,-1,23
 613.683 -260.813 613.683 -260.813 552.144 -538.286 c 2,24,-1
 539.715 -594.327 l 1,25,-1
 485.526 -575.389 l 2,26,27
 188.909 -471.727 188.909 -471.727 146.487 0 c 1,28,-1
 -71.9355 0 l 1,29,-1
 -71.9355 270.966 l 1,30,-1
 139.547 271.023 l 1,31,32
 133.479 574.96 133.479 574.96 190.156 705.65 c 0,33,34
 230.922 799.759 230.922 799.759 301.771 850.45 c 128,-1,35
 372.62 901.142 372.62 901.142 466.723 900.504 c 0,36,37
 600.401 899.533 600.401 899.533 669.777 820.04 c 0,38,39
 749.082 729.17 749.082 729.17 749.082 595.893 c 0,40,41
 749.082 301.381 749.082 301.381 636.72 172.466 c 0,42,43
 510.102 27.195 510.102 27.195 390.54 3.55566 c 1,44,45
 364.177 -169 364.177 -169 446 -298 c 1,16,17
EndSplineSet
EndChar

StartChar: uniFEEE
Encoding: 65262 65262 278
Width: 881
VWidth: 2232
GlyphClass: 2
Flags: W
AnchorPoint: "Anchor-10" 376 1110 basechar 0
AnchorPoint: "Anchor-7" 565.515 -527.238 basechar 0
LayerCount: 2
Fore
SplineSet
464.278 529.821 m 0,0,1
 412.456 528.698 412.456 528.698 378.534 499.325 c 128,-1,2
 344.613 469.951 344.613 469.951 322.507 401.247 c 0,3,4
 313.228 372.946 313.228 372.946 311.542 350.604 c 0,5,6
 308.371 308.553 308.371 308.553 333.893 287.074 c 128,-1,7
 359.415 265.596 359.415 265.596 437.723 259.864 c 0,8,9
 482.992 256.551 482.992 256.551 594.915 260.841 c 1,10,11
 592.473 339.589 592.473 339.589 579.62 398.967 c 0,12,13
 563.407 473.849 563.407 473.849 535.606 502.366 c 128,-1,14
 507.806 530.883 507.806 530.883 464.278 529.821 c 0,0,1
823.365 0.5 m 1,15,16
 787.275 -169.628 787.275 -169.628 671.692 -304.225 c 0,17,18
 498.433 -505.988 498.433 -505.988 145.291 -506.139 c 2,19,-1
 114.2 -506.152 l 1,20,-1
 -0.889648 -283.057 l 1,21,-1
 77.124 -278.236 l 2,22,23
 482.311 -253.198 482.311 -253.198 571.351 0.334961 c 1,24,25
 526.309 0.0683594 526.309 0.0683594 448.412 -1.20898 c 0,26,27
 237.883 -4.06738 237.883 -4.06738 143.392 103.156 c 0,28,29
 46.8701 211.246 46.8701 211.246 64.9062 362.067 c 0,30,31
 87.9727 554.57 87.9727 554.57 222.584 678.35 c 0,32,33
 344.364 790.33 344.364 790.33 488.943 781.915 c 0,34,35
 586.767 776.257 586.767 776.257 658.942 730.901 c 128,-1,36
 731.117 685.546 731.117 685.546 769.624 603.446 c 0,37,38
 822.911 490.148 822.911 490.148 837.837 311.617 c 0,39,40
 839.727 289.045 839.727 289.045 841.257 270.859 c 1,41,-1
 952.66 271.775 l 5,42,-1
 952.66 0.5 l 5,43,-1
 823.365 0.5 l 1,15,16
EndSplineSet
EndChar

StartChar: uniFEF0
Encoding: 65264 65264 280
Width: 1511
VWidth: 2232
GlyphClass: 2
Flags: W
AnchorPoint: "Anchor-10" 610.857 514.69 basechar 0
AnchorPoint: "Anchor-7" 324.067 -703.505 basechar 0
LayerCount: 2
Fore
SplineSet
966.159 226.145 m 0,0,1
 1140.05 299.342 1140.05 299.342 1508.91 271.522 c 1,2,-1
 1582.89 271.057 l 1,3,-1
 1582.89 0.489258 l 1,4,-1
 1345.59 0.544922 l 1,5,-1
 1344.41 0.599609 l 2,6,7
 1266.31 4.21913 1266.31 4.21913 1210.29 5.29785 c 1,8,9
 1305.84 -4.37695 1305.84 -4.37695 1366.32 -44.2627 c 128,-1,10
 1426.8 -84.1484 1426.8 -84.1484 1434.85 -157.931 c 0,11,12
 1447.25 -271.776 1447.25 -271.776 1379.29 -361.771 c 0,13,14
 1284.08 -486.726 1284.08 -486.726 1137.01 -552.992 c 0,15,16
 889.651 -663.121 889.651 -663.121 539.813 -633.27 c 0,17,18
 359.492 -617.894 359.492 -617.894 240.708 -537.813 c 128,-1,19
 121.924 -457.732 121.924 -457.732 75.2734 -314.84 c 0,20,21
 36.8594 -197.176 36.8594 -197.176 48.3633 -57.7021 c 0,22,23
 63.2312 135.382 63.2312 135.382 221.635 344.387 c 2,24,-1
 252.285 384.828 l 1,25,-1
 450.838 235.913 l 1,26,-1
 425.18 196.002 l 2,27,28
 341.52 65.8695 341.52 65.8695 327.291 -24.041 c 0,29,30
 303.095 -172.505 303.095 -172.505 351.687 -259.607 c 0,31,32
 414.871 -372.869 414.871 -372.869 607.502 -385.564 c 0,33,34
 867.424 -402.695 867.424 -402.695 1030.29 -332.916 c 0,35,36
 1107.23 -299.264 1107.23 -299.264 1156 -261.334 c 0,37,38
 1184 -238.834 1184 -238.834 1191.63 -227.333 c 0,39,40
 1212.81 -191.346 1212.81 -191.346 1151 -190.334 c 0,41,42
 1001.68 -187.89 1001.68 -187.89 971 -177.334 c 0,43,44
 900.632 -153.978 900.632 -153.978 867.669 -111.646 c 128,-1,45
 834.707 -69.3135 834.707 -69.3135 833.038 -0.431641 c 0,46,47
 830.79 78.7383 830.79 78.7383 864.799 138.144 c 128,-1,48
 898.809 197.55 898.809 197.55 966.159 226.145 c 0,0,1
EndSplineSet
EndChar

StartChar: uniFEFB
Encoding: 65275 65275 291
Width: 1070
VWidth: 2232
GlyphClass: 3
Flags: W
AnchorPoint: "Anchor-9" 857.69 1464 baselig 0
AnchorPoint: "Anchor-6" 922.69 -72.5 baselig 0
AnchorPoint: "Anchor-6" 218.5 -121.908 baselig 1
AnchorPoint: "Anchor-9" 174.565 1383.84 baselig 1
LayerCount: 2
Fore
SplineSet
680.674 358.584 m 1,0,1
 553.356 235.833 553.356 235.833 404.349 162.815 c 1,2,3
 461.043 162.76 461.043 162.76 532.35 166.978 c 0,4,5
 587.106 170.201 587.106 170.201 631.395 178.692 c 128,-1,6
 675.682 187.183 675.682 187.183 693.78 193.896 c 128,-1,7
 711.879 200.61 711.879 200.61 715.002 204.265 c 0,8,9
 748.203 246.624 748.203 246.624 680.674 358.584 c 1,0,1
985.081 998.608 m 2,10,11
 983.013 915.694 983.013 915.694 959.66 773.725 c 0,12,13
 939.434 652.709 939.434 652.709 842.795 522.695 c 1,14,15
 957.67 351.66 957.67 351.66 940.071 182.77 c 0,16,17
 929.286 77.8916 929.286 77.8916 864.988 14.5215 c 0,18,19
 812.42 -36.4092 812.42 -36.4092 713.182 -56.2295 c 128,-1,20
 613.943 -76.0498 613.943 -76.0498 456.988 -74.9336 c 0,21,22
 250.783 -73.4831 250.783 -73.4831 162.048 -49.085 c 2,23,-1
 157.821 -47.9229 l 1,24,-1
 153.854 -46.0566 l 2,25,26
 57.9482 -0.948317 57.9482 -0.948317 17.9951 97.1201 c 1,27,28
 -11.4756 172.137 -11.4756 172.137 14.1436 236.861 c 2,29,-1
 23.0908 259.466 l 1,30,-1
 46.2852 266.749 l 2,31,32
 290.573 343.457 290.573 343.457 521.927 539.308 c 1,33,-1
 17.3975 1127.43 l 1,34,-1
 164.678 1361.06 l 1,35,-1
 676.816 709.655 l 1,36,37
 719.328 785.46 719.328 785.46 730.479 880.859 c 1,38,39
 743.894 984.346 743.894 984.346 733.816 1292.33 c 2,40,-1
 732.678 1327.13 l 1,41,-1
 996.097 1440.19 l 1,42,-1
 985.081 998.608 l 2,10,11
EndSplineSet
LCarets2: 1 0 
Ligature2: "'rlig' Required Ligatures in Arabic lookup 16 subtable" uniFEDF uniFE8E
EndChar

StartChar: uniFEFC
Encoding: 65276 65276 292
Width: 1236
VWidth: 2232
GlyphClass: 3
Flags: W
AnchorPoint: "Anchor-9" 882.69 1462 baselig 0
AnchorPoint: "Anchor-6" 795.69 -65.5 baselig 0
AnchorPoint: "Anchor-6" 160 -119 baselig 1
AnchorPoint: "Anchor-9" 112.5 1412.5 baselig 1
LayerCount: 2
Fore
SplineSet
793.361 175.934 m 0,0,1
 634.484 0.5 634.484 0.5 333.99 0.5 c 0,2,3
 166.412 0.499999 166.412 0.499999 114.887 9.94336 c 2,4,-1
 73.0801 17.6055 l 1,5,-1
 73.0801 290.481 l 1,6,-1
 133.521 279.095 l 2,7,8
 334.937 241.149 334.937 241.149 433.987 254.303 c 1,9,-1
 39.4043 1220.12 l 5,10,-1
 261.053 1392.92 l 5,11,-1
 629.081 358.319 l 1,12,13
 695.894 426.488 695.894 426.488 736.351 553.044 c 1,14,15
 781.8 731.146 781.8 731.146 772.498 877.76 c 6,16,-1
 744.106 1325.25 l 5,17,-1
 1005.13 1441.71 l 5,18,-1
 1005.13 683.5 l 2,19,20
 1005.13 519.706 1005.13 519.706 1040 417.403 c 0,21,22
 1066.98 338.252 1066.98 338.252 1104.38 304.816 c 128,-1,23
 1141.79 271.38 1141.79 271.38 1193.59 271.38 c 2,24,-1
 1307.94 271.38 l 1,25,-1
 1307.94 0.5 l 1,26,-1
 1194.91 0.5 l 2,27,28
 1073.25 0.5 1073.25 0.5 984.369 65.4092 c 128,-1,29
 895.492 130.318 895.492 130.318 847.029 251.403 c 1,30,31
 821.887 208.041 821.887 208.041 793.361 175.934 c 0,0,1
EndSplineSet
LCarets2: 1 0 
Ligature2: "'rlig' Required Ligatures in Arabic lookup 16 subtable" uniFEE0 uniFE8E
EndChar

StartChar: arabic_dot
Encoding: 65536 -1 293
Width: 150
GlyphClass: 2
Flags: W
LayerCount: 2
Fore
SplineSet
74.5 210.84 m 1,0,-1
 202.84 82.5 l 1,1,-1
 74.5 -45.8397 l 1,2,-1
 -53.8397 82.5 l 1,3,-1
 74.5 210.84 l 1,0,-1
EndSplineSet
EndChar

StartChar: arabic_2dots
Encoding: 65537 -1 294
Width: 452
GlyphClass: 2
Flags: W
LayerCount: 2
Fore
SplineSet
383.25 210.84 m 5,0,-1
 511.59 82.5 l 5,1,-1
 383.25 -45.8398 l 5,2,-1
 254.91 82.5 l 5,3,-1
 383.25 210.84 l 5,0,-1
68.75 210.84 m 1,4,-1
 197.09 82.5 l 1,5,-1
 68.75 -45.84 l 1,6,-1
 -59.59 82.5 l 1,7,-1
 68.75 210.84 l 1,4,-1
EndSplineSet
EndChar

StartChar: arabic_3dots
Encoding: 65538 -1 295
Width: 455
GlyphClass: 2
Flags: W
LayerCount: 2
Fore
SplineSet
239.812 424.368 m 5,0,-1
 354.341 309.841 l 5,1,-1
 226 181.5 l 5,2,-1
 97.6602 309.841 l 5,3,-1
 226 438.181 l 5,4,-1
 239.469 424.712 l 5,5,-1
 239.812 424.368 l 5,0,-1
386.25 197.09 m 1,6,-1
 514.59 68.75 l 1,7,-1
 386.25 -59.5898 l 1,8,-1
 257.91 68.75 l 1,9,-1
 386.25 197.09 l 1,6,-1
68.75 197.09 m 1,10,-1
 197.09 68.75 l 1,11,-1
 68.75 -59.59 l 1,12,-1
 -59.59 68.75 l 1,13,-1
 68.75 197.09 l 1,10,-1
EndSplineSet
EndChar

StartChar: arabic_3dots_a
Encoding: 65539 -1 296
Width: 454
GlyphClass: 2
Flags: W
LayerCount: 2
Fore
SplineSet
226 0 m 5,0,-1
 354.341 -128.341 l 5,1,-1
 226 -256.682 l 5,2,-1
 97.6602 -128.341 l 5,3,-1
 226 0 l 5,0,-1
385.25 222.004 m 1,4,-1
 513.59 93.665 l 1,5,-1
 385.25 -34.6758 l 1,6,-1
 256.91 93.665 l 1,7,-1
 385.25 222.004 l 1,4,-1
68.75 222.004 m 1,8,-1
 197.09 93.6651 l 1,9,-1
 68.75 -34.676 l 1,10,-1
 -59.59 93.6651 l 1,11,-1
 68.75 222.004 l 1,8,-1
EndSplineSet
EndChar

StartChar: uni066E.fina
Encoding: 65540 -1 297
Width: 2051
VWidth: 2232
GlyphClass: 2
Flags: W
AnchorPoint: "Anchor-10" 703 1111.5 basechar 0
AnchorPoint: "Anchor-7" 703 -128 basechar 0
LayerCount: 2
Fore
SplineSet
751.211 0 m 0,0,1
 513.317 0.457031 513.317 0.457031 410.082 33.8535 c 0,2,3
 246.687 86.7119 246.687 86.7119 154.031 204.525 c 128,-1,4
 61.376 322.339 61.376 322.339 45.5908 496.555 c 0,5,6
 34.5693 614.425 34.5693 614.425 78.751 767.869 c 2,7,-1
 92.5498 815.794 l 1,8,-1
 315.14 757.062 l 1,9,-1
 306.643 710.618 l 2,10,11
 281.791 574.775 281.791 574.775 284.478 528.762 c 0,12,13
 288.633 426.535 288.633 426.535 355.742 366.816 c 128,-1,14
 422.852 307.098 422.852 307.098 569.505 284.789 c 0,15,16
 642.161 273.56 642.161 273.56 805.229 273.017 c 0,17,18
 1250.38 271.91 1250.38 271.91 1399.09 342.434 c 0,19,20
 1483 382.392 1483 382.392 1528.28 444.17 c 128,-1,21
 1573.56 505.949 1573.56 505.949 1584.7 595.123 c 2,22,-1
 1590.29 639.795 l 1,23,-1
 1791.37 639.795 l 1,24,-1
 1795.05 592.774 l 2,25,26
 1800.37 524.811 1800.37 524.811 1810.58 466.544 c 0,27,28
 1821.91 401.794 1821.91 401.794 1838.84 360.884 c 128,-1,29
 1855.78 319.973 1855.78 319.973 1871.28 306.951 c 0,30,31
 1913.63 271.38 1913.63 271.38 2004.97 271.38 c 2,32,-1
 2122.17 271.38 l 5,33,-1
 2122.17 0.5 l 5,34,-1
 1960.03 0.5 l 2,35,36
 1854.14 0.5 1854.14 0.5 1771.67 45.3682 c 128,-1,37
 1689.19 90.2373 1689.19 90.2373 1637.18 176.69 c 1,38,39
 1581.16 133.606 1581.16 133.606 1491.95 93.3809 c 0,40,41
 1283.4 -0.470703 1283.4 -0.470703 751.211 0 c 0,0,1
EndSplineSet
EndChar

StartChar: uni06A1.fina
Encoding: 65543 -1 300
Width: 1884
VWidth: 2232
GlyphClass: 2
Flags: W
AnchorPoint: "Anchor-10" 537 1218.5 basechar 0
AnchorPoint: "Anchor-7" 644 -172.5 basechar 0
LayerCount: 2
Fore
SplineSet
747.181 0 m 0,0,1
 509.319 0.456055 509.319 0.456055 406.082 33.8535 c 0,2,3
 242.686 86.7119 242.686 86.7119 150.03 204.525 c 128,-1,4
 57.376 322.339 57.376 322.339 41.5908 496.555 c 0,5,6
 30.5693 614.424 30.5693 614.424 74.751 767.869 c 2,7,-1
 88.5498 815.794 l 1,8,-1
 311.14 757.062 l 1,9,-1
 302.643 710.618 l 2,10,11
 277.791 574.775 277.791 574.775 280.451 529.211 c 0,12,13
 286.486 425.843 286.486 425.843 353.813 365.949 c 128,-1,14
 421.14 306.057 421.14 306.057 565.212 284.833 c 0,15,16
 612.17 277.916 612.17 277.916 802.414 273 c 0,17,18
 921.221 269.93 921.221 269.93 1033.11 279.237 c 0,19,20
 1107.41 285.803 1107.41 285.803 1158.26 294.267 c 1,21,22
 1141.55 311.236 1141.55 311.236 1127.9 328.835 c 0,23,24
 987.381 510.108 987.381 510.108 1067.81 709.092 c 1,25,26
 1134.51 857.072 1134.51 857.072 1287.87 909.581 c 0,27,28
 1457.88 968.253 1457.88 968.253 1613.74 883.833 c 0,29,30
 1767.26 799.75 1767.26 799.75 1799 630.408 c 0,31,32
 1834.54 439.599 1834.54 439.599 1692.02 303.185 c 1,33,34
 1749.94 271.38 1749.94 271.38 1832.89 271.38 c 2,35,-1
 1955.6 271.38 l 1,36,-1
 1955.6 0.5 l 1,37,-1
 1825.22 0.5 l 2,38,39
 1620.85 0.5 1620.85 0.5 1444.6 138.171 c 1,40,41
 1319.75 63.7246 1319.75 63.7246 1225.07 32.1406 c 0,42,43
 1125.67 -0.726562 1125.67 -0.726562 747.181 0 c 0,0,1
1291.06 555.84 m 128,-1,45
 1291.06 499.935 1291.06 499.935 1330.63 460.359 c 128,-1,46
 1370.21 420.782 1370.21 420.782 1426.12 420.782 c 128,-1,47
 1482.03 420.782 1482.03 420.782 1521.61 460.357 c 128,-1,48
 1561.18 499.927 1561.18 499.927 1561.18 555.84 c 128,-1,49
 1561.18 611.754 1561.18 611.754 1521.61 651.319 c 128,-1,50
 1482.03 690.896 1482.03 690.896 1426.12 690.896 c 128,-1,51
 1370.21 690.896 1370.21 690.896 1330.63 651.322 c 128,-1,44
 1291.06 611.741 1291.06 611.741 1291.06 555.84 c 128,-1,45
EndSplineSet
EndChar

StartChar: uni06A1.init
Encoding: 65544 -1 301
Width: 864
VWidth: 2232
GlyphClass: 2
Flags: W
AnchorPoint: "Anchor-10" 405.53 1267.5 basechar 0
AnchorPoint: "Anchor-7" 380.53 -119 basechar 0
LayerCount: 2
Fore
SplineSet
389.441 877.073 m 0,0,1
 338.41 871.08 338.41 871.08 306.695 825.453 c 128,-1,2
 274.981 779.826 274.981 779.826 264.227 677.522 c 0,3,4
 260.549 640.816 260.549 640.816 276.969 622.522 c 128,-1,5
 293.39 604.229 293.39 604.229 347.062 594.538 c 0,6,7
 448.613 575.468 448.613 575.468 526.783 621.972 c 1,8,9
 518.197 699.867 518.197 699.867 503.451 753.49 c 128,-1,10
 488.706 807.113 488.706 807.113 469.714 833.577 c 128,-1,11
 450.721 860.041 450.721 860.041 431.402 869.887 c 128,-1,12
 412.084 879.732 412.084 879.732 389.441 877.073 c 0,0,1
496.736 350.892 m 1,13,14
 445.678 339.616 445.678 339.616 373.863 338.524 c 0,15,16
 202.63 335.227 202.63 335.227 102.277 449.951 c 1,17,18
 3.83203 560.199 3.83203 560.199 23.9463 709.517 c 0,19,20
 49.4834 900.027 49.4834 900.027 169.055 1028.36 c 0,21,22
 229.235 1093.86 229.235 1093.86 309.198 1115.99 c 128,-1,23
 389.161 1138.11 389.161 1138.11 478.627 1115 c 0,24,25
 556.196 1095.32 556.196 1095.32 624.187 1033.49 c 0,26,27
 741.56 929.055 741.56 929.055 772.926 666.573 c 0,28,29
 788.767 534.009 788.767 534.009 762.479 367.768 c 1,30,31
 734.139 180.918 734.139 180.918 623.075 86.6846 c 0,32,33
 566.844 38.9746 566.844 38.9746 463.058 19.4873 c 128,-1,34
 359.272 0 359.272 0 196.23 0 c 2,35,-1
 -71.4004 0 l 5,36,-1
 -71.4004 270.98 l 5,37,-1
 82 270.98 l 2,38,39
 357.737 270.98 357.737 270.98 421.837 287.082 c 0,40,41
 449.973 293.931 449.973 293.931 467.472 308.871 c 128,-1,42
 484.971 323.812 484.971 323.812 496.736 350.892 c 1,13,14
EndSplineSet
EndChar

StartChar: uni06A1.medi
Encoding: 65545 -1 302
Width: 1108
VWidth: 2232
GlyphClass: 2
Flags: W
AnchorPoint: "Anchor-10" 554.26 1058 basechar 0
AnchorPoint: "Anchor-7" 554.26 -119 basechar 0
LayerCount: 2
Fore
SplineSet
416.427 539.602 m 128,-1,1
 416.427 484.629 416.427 484.629 456.473 445.483 c 0,2,3
 497.18 405.689 497.18 405.689 555.033 405.689 c 128,-1,4
 612.883 405.689 612.883 405.689 653.591 445.483 c 0,5,6
 693.636 484.629 693.636 484.629 693.636 539.602 c 128,-1,7
 693.636 594.568 693.636 594.568 653.591 633.715 c 0,8,9
 612.883 673.509 612.883 673.509 555.033 673.509 c 128,-1,10
 497.182 673.509 497.182 673.509 456.472 633.714 c 0,11,0
 416.427 594.57 416.427 594.57 416.427 539.602 c 128,-1,1
751.586 880.114 m 0,12,13
 915.053 787.356 915.053 787.356 942.27 641.832 c 0,14,15
 965.529 516.301 965.529 516.301 927.46 406.476 c 0,16,17
 902.984 335.864 902.984 335.864 841.417 273.486 c 1,18,19
 903.149 270.723 903.149 270.723 993.901 270.979 c 2,20,-1
 1179.92 271.508 l 1,21,-1
 1179.92 0.582031 l 1,22,-1
 857.813 0 l 2,23,24
 706.906 -0.272461 706.906 -0.272461 553.587 97.7715 c 1,25,26
 393.259 -0 393.259 -0 251.79 0 c 2,27,-1
 -71.4004 0 l 1,28,-1
 -71.4004 270.98 l 1,29,-1
 114.49 270.98 l 2,30,31
 203.545 270.98 203.545 270.98 266.938 277.81 c 1,32,33
 216.476 331.724 216.476 331.724 187.486 398.646 c 0,34,35
 137.302 514.502 137.302 514.502 175.647 645.845 c 1,36,37
 223.257 821.221 223.257 821.221 390.594 889.578 c 0,38,39
 465.094 920.013 465.094 920.013 558.492 920.013 c 0,40,41
 680.8 920.013 680.8 920.013 751.586 880.114 c 0,12,13
EndSplineSet
EndChar

StartChar: uni066F.fina
Encoding: 65546 -1 303
Width: 1494
VWidth: 2232
GlyphClass: 2
Flags: W
AnchorPoint: "Anchor-10" 353 951 basechar 0
AnchorPoint: "Anchor-7" 452.645 -619.82 basechar 0
LayerCount: 2
Fore
SplineSet
1042.73 503.648 m 0,0,1
 993.188 502.937 993.188 502.937 962.646 459.031 c 128,-1,2
 932.104 415.127 932.104 415.127 922.671 305.284 c 0,3,4
 919.801 271.526 919.801 271.526 929.962 259.771 c 128,-1,5
 940.123 248.017 940.123 248.017 977.785 244.006 c 0,6,7
 1104.22 231.487 1104.22 231.487 1183.47 244.395 c 1,8,9
 1178.29 319.068 1178.29 319.068 1165.46 371.404 c 128,-1,10
 1152.63 423.74 1152.63 423.74 1133.35 451.999 c 128,-1,11
 1114.07 480.257 1114.07 480.257 1092.13 492.226 c 128,-1,12
 1070.18 504.193 1070.18 504.193 1042.73 503.648 c 0,0,1
1433.72 271.437 m 1,13,14
 1444.77 271.38 1444.77 271.38 1457.55 271.38 c 2,15,-1
 1564.96 271.38 l 1,16,-1
 1564.96 0.5 l 1,17,-1
 1423.93 0.5 l 1,18,19
 1395.09 -251.075 1395.09 -251.075 1220.62 -414.249 c 0,20,21
 1046.42 -577.159 1046.42 -577.159 738.903 -582.941 c 0,22,23
 347.531 -590.3 347.531 -590.3 174.396 -418.096 c 0,24,25
 3.29199 -247.103 3.29199 -247.103 6.94922 38.042 c 0,26,27
 9.90625 255.378 9.90625 255.378 108.107 457.299 c 2,28,-1
 126.16 494.419 l 1,29,-1
 375.721 432.633 l 1,30,-1
 355.18 378.796 l 2,31,32
 273.043 163.523 273.043 163.523 273.875 36.2285 c 0,33,34
 273.917 30.0166 273.917 30.0166 274.072 23.9277 c 0,35,36
 278.8 -162.653 278.8 -162.653 386.461 -248.796 c 128,-1,37
 494.123 -334.939 494.123 -334.939 725.297 -329.075 c 0,38,39
 950.983 -323.433 950.983 -323.433 1075.29 -188.424 c 0,40,41
 1156.85 -100.325 1156.85 -100.325 1170.3 -0.0488281 c 1,42,43
 1125.89 -1.4248 1125.89 -1.4248 1048.46 -2.99219 c 0,44,45
 945.791 -4.50195 945.791 -4.50195 874.84 13.3506 c 128,-1,46
 803.889 31.2021 803.889 31.2021 761.865 75.5293 c 0,47,48
 654.687 189.237 654.687 189.237 676.408 337.121 c 0,49,50
 707.307 546.224 707.307 546.224 817.46 665.317 c 0,51,52
 875.159 727.398 875.159 727.398 952.915 749.181 c 128,-1,53
 1030.67 770.963 1030.67 770.963 1120.95 752.207 c 0,54,55
 1262.61 722.773 1262.61 722.773 1336.12 594.991 c 0,56,57
 1415.91 456.255 1415.91 456.255 1433.72 271.437 c 1,13,14
EndSplineSet
EndChar

StartChar: arabic_ring
Encoding: 65549 -1 306
Width: 438
GlyphClass: 2
Flags: W
LayerCount: 2
Fore
SplineSet
316 220 m 0,0,1
 316 260 316 260 288 288 c 0,2,3
 260 317 260 317 219 317 c 128,-1,4
 178 317 178 317 150 289 c 128,-1,5
 122 261 122 261 122 220 c 0,6,7
 122 178 122 178 150 150 c 0,8,9
 178 123 178 123 219 123 c 128,-1,10
 260 123 260 123 288 151 c 128,-1,11
 316 179 316 179 316 220 c 0,0,1
438 220 m 128,-1,13
 438 128 438 128 375 64 c 0,14,15
 311 0 311 0 219 0 c 128,-1,16
 127 0 127 0 64 64 c 0,17,18
 0 128 0 128 0 220 c 128,-1,19
 0 312 0 312 64 376 c 0,20,21
 127 439 127 439 219 439 c 128,-1,22
 311 439 311 439 375 376 c 1,23,12
 438 312 438 312 438 220 c 128,-1,13
EndSplineSet
EndChar

StartChar: arabic_gaf_bar
Encoding: 65550 -1 307
Width: 674
GlyphClass: 2
Flags: W
LayerCount: 2
Fore
SplineSet
666 1673 m 1,0,-1
 0 1333 l 1,1,-1
 0 1442 l 1,2,-1
 666 1782 l 1,3,-1
 666 1673 l 1,0,-1
EndSplineSet
EndChar

StartChar: uni066E.init.math
Encoding: 65560 -1 317
Width: 877
VWidth: 2232
GlyphClass: 2
Flags: W
LayerCount: 2
Fore
SplineSet
612.672 112.26 m 0,0,1
 525.089 8.5 525.089 8.5 342.4 8.5 c 2,2,-1
 -54.4004 8.5 l 1,3,-1
 -54.4004 271.38 l 1,4,-1
 283.55 271.38 l 2,5,6
 375.812 271.38 375.812 271.38 413.225 308.795 c 0,7,8
 455.99 351.558 455.99 351.558 455.99 451.31 c 2,9,-1
 455.99 716.5 l 1,10,-1
 718.87 716.5 l 1,11,-1
 718.87 451.31 l 2,12,13
 718.87 239.879 718.87 239.879 612.672 112.26 c 0,0,1
EndSplineSet
EndChar

StartChar: guillemotleft
Encoding: 171 171 318
Width: 1243
Flags: W
LayerCount: 2
Fore
SplineSet
611.94 999.22 m 1,0,-1
 611.94 771.74 l 1,1,-1
 336.52 564 l 1,2,-1
 611.94 356.26 l 1,3,-1
 611.94 128.78 l 1,4,-1
 148.52 475.64 l 1,5,-1
 148.52 650.48 l 1,6,-1
 611.94 999.22 l 1,0,-1
1062.2 999.22 m 1,7,-1
 1062.2 771.74 l 1,8,-1
 787.72 564 l 1,9,-1
 1062.2 356.26 l 1,10,-1
 1062.2 128.78 l 1,11,-1
 598.78 475.64 l 1,12,-1
 598.78 650.48 l 1,13,-1
 1062.2 999.22 l 1,7,-1
EndSplineSet
EndChar

StartChar: guillemotright
Encoding: 187 187 319
Width: 1243
Flags: W
LayerCount: 2
Fore
SplineSet
631.68 999.22 m 1,0,-1
 1095.1 650.48 l 1,1,-1
 1095.1 475.64 l 1,2,-1
 631.68 128.78 l 1,3,-1
 631.68 356.26 l 1,4,-1
 907.1 564 l 1,5,-1
 631.68 771.74 l 1,6,-1
 631.68 999.22 l 1,0,-1
181.42 999.22 m 1,7,-1
 642.96 650.48 l 1,8,-1
 642.96 475.64 l 1,9,-1
 181.42 128.78 l 1,10,-1
 181.42 356.26 l 1,11,-1
 455.9 564 l 1,12,-1
 181.42 771.74 l 1,13,-1
 181.42 999.22 l 1,7,-1
EndSplineSet
EndChar

StartChar: zero
Encoding: 48 48 320
Width: 1339
Flags: W
LayerCount: 2
Fore
SplineSet
885.48 703.12 m 0,0,1
 885.48 966.32 885.48 966.32 836.13 1073.95 c 128,-1,2
 786.78 1181.58 786.78 1181.58 670.22 1181.58 c 128,-1,3
 553.66 1181.58 553.66 1181.58 503.84 1073.95 c 128,-1,4
 454.02 966.32 454.02 966.32 454.02 703.12 c 0,5,6
 454.02 437.1 454.02 437.1 503.84 328.06 c 128,-1,7
 553.66 219.02 553.66 219.02 670.22 219.02 c 0,8,9
 785.84 219.02 785.84 219.02 835.66 328.06 c 128,-1,10
 885.48 437.1 885.48 437.1 885.48 703.12 c 0,0,1
1247.38 700.3 m 0,11,12
 1247.38 351.56 1247.38 351.56 1096.98 162.15 c 128,-1,13
 946.58 -27.26 946.58 -27.26 670.22 -27.26 c 0,14,15
 392.92 -27.26 392.92 -27.26 242.52 162.15 c 128,-1,16
 92.12 351.56 92.12 351.56 92.12 700.3 c 0,17,18
 92.12 1049.98 92.12 1049.98 242.52 1239.39 c 128,-1,19
 392.92 1428.8 392.92 1428.8 670.22 1428.8 c 0,20,21
 946.58 1428.8 946.58 1428.8 1096.98 1239.39 c 128,-1,22
 1247.38 1049.98 1247.38 1049.98 1247.38 700.3 c 0,11,12
EndSplineSet
EndChar

StartChar: one
Encoding: 49 49 321
Width: 1339
Flags: W
LayerCount: 2
Fore
SplineSet
225.6 250.04 m 1,0,-1
 545.2 250.04 l 1,1,-1
 545.2 1157.14 l 1,2,-1
 217.14 1089.46 l 1,3,-1
 217.14 1335.74 l 1,4,-1
 543.32 1403.42 l 1,5,-1
 887.36 1403.42 l 1,6,-1
 887.36 250.04 l 1,7,-1
 1206.96 250.04 l 1,8,-1
 1206.96 3.90625e-05 l 1,9,-1
 225.6 3.90625e-05 l 1,10,-1
 225.6 250.04 l 1,0,-1
EndSplineSet
EndChar

StartChar: two
Encoding: 50 50 322
Width: 1339
Flags: W
LayerCount: 2
Fore
SplineSet
554.6 266.02 m 1,0,-1
 1172.18 266.02 l 1,1,-1
 1172.18 -1.09863e-05 l 1,2,-1
 152.28 -1.09863e-05 l 1,3,-1
 152.28 266.02 l 1,4,-1
 664.58 718.16 l 1,5,6
 733.2 780.2 733.2 780.2 766.1 839.42 c 128,-1,7
 799 898.64 799 898.64 799 962.56 c 0,8,9
 799 1061.26 799 1061.26 732.73 1121.42 c 128,-1,10
 666.46 1181.58 666.46 1181.58 556.48 1181.58 c 0,11,12
 471.88 1181.58 471.88 1181.58 371.3 1145.39 c 128,-1,13
 270.72 1109.2 270.72 1109.2 156.04 1037.76 c 1,14,-1
 156.04 1346.08 l 1,15,16
 278.24 1386.5 278.24 1386.5 397.62 1407.65 c 128,-1,17
 517 1428.8 517 1428.8 631.68 1428.8 c 0,18,19
 883.6 1428.8 883.6 1428.8 1023.19 1317.88 c 128,-1,20
 1162.78 1206.96 1162.78 1206.96 1162.78 1008.62 c 0,21,22
 1162.78 893.94 1162.78 893.94 1103.56 794.77 c 128,-1,23
 1044.34 695.6 1044.34 695.6 854.46 529.22 c 2,24,-1
 554.6 266.02 l 1,0,-1
EndSplineSet
EndChar

StartChar: three
Encoding: 51 51 323
Width: 1339
Flags: W
LayerCount: 2
Fore
SplineSet
896.76 756.7 m 1,0,1
 1038.7 720.04 1038.7 720.04 1112.49 629.33 c 128,-1,2
 1186.28 538.62 1186.28 538.62 1186.28 398.56 c 0,3,4
 1186.28 189.88 1186.28 189.88 1026.48 81.31 c 128,-1,5
 866.68 -27.259 866.68 -27.259 560.24 -27.259 c 0,6,7
 452.14 -27.259 452.14 -27.259 343.57 -9.86927 c 128,-1,8
 235 7.52043 235 7.52043 128.78 42.3006 c 1,9,-1
 128.78 321.481 l 1,10,11
 230.3 270.721 230.3 270.721 330.41 244.871 c 128,-1,12
 430.52 219.021 430.52 219.021 527.34 219.021 c 0,13,14
 671.16 219.021 671.16 219.021 747.77 268.841 c 128,-1,15
 824.38 318.661 824.38 318.661 824.38 411.721 c 0,16,17
 824.38 507.601 824.38 507.601 745.89 556.951 c 128,-1,18
 667.4 606.301 667.4 606.301 514.18 606.301 c 2,19,-1
 369.42 606.301 l 1,20,-1
 369.42 839.421 l 1,21,-1
 521.7 839.421 l 2,22,23
 658 839.421 658 839.421 724.74 882.191 c 128,-1,24
 791.48 924.961 791.48 924.961 791.48 1012.38 c 0,25,26
 791.48 1093.22 791.48 1093.22 726.62 1137.4 c 128,-1,27
 661.76 1181.58 661.76 1181.58 543.32 1181.58 c 0,28,29
 455.9 1181.58 455.9 1181.58 366.6 1161.84 c 128,-1,30
 277.3 1142.1 277.3 1142.1 188.94 1103.56 c 1,31,-1
 188.94 1368.64 l 1,32,33
 296.1 1398.72 296.1 1398.72 401.38 1413.76 c 128,-1,34
 506.66 1428.8 506.66 1428.8 608.18 1428.8 c 0,35,36
 881.72 1428.8 881.72 1428.8 1017.55 1339.03 c 128,-1,37
 1153.38 1249.26 1153.38 1249.26 1153.38 1068.78 c 0,38,39
 1153.38 945.641 1153.38 945.641 1088.52 867.151 c 128,-1,40
 1023.66 788.661 1023.66 788.661 896.76 756.7 c 1,0,1
EndSplineSet
EndChar

StartChar: four
Encoding: 52 52 324
Width: 1339
Flags: W
LayerCount: 2
Fore
SplineSet
708.76 1105.44 m 1,0,-1
 312.08 517.94 l 1,1,-1
 708.76 517.94 l 1,2,-1
 708.76 1105.44 l 1,0,-1
648.6 1403.42 m 1,3,-1
 1050.92 1403.42 l 1,4,-1
 1050.92 517.94 l 1,5,-1
 1251.14 517.94 l 1,6,-1
 1251.14 255.68 l 1,7,-1
 1050.92 255.68 l 1,8,-1
 1050.92 6.89697e-05 l 1,9,-1
 708.76 6.89697e-05 l 1,10,-1
 708.76 255.68 l 1,11,-1
 86.4799 255.68 l 1,12,-1
 86.4799 565.88 l 1,13,-1
 648.6 1403.42 l 1,3,-1
EndSplineSet
EndChar

StartChar: five
Encoding: 53 53 325
Width: 1339
Flags: W
LayerCount: 2
Fore
SplineSet
203.98 1403.42 m 1,0,-1
 1103.56 1403.42 l 1,1,-1
 1103.56 1137.4 l 1,2,-1
 492.56 1137.4 l 1,3,-1
 492.56 920.26 l 1,4,5
 533.92 931.54 533.92 931.54 575.75 937.65 c 128,-1,6
 617.58 943.76 617.58 943.76 662.7 943.76 c 0,7,8
 919.32 943.76 919.32 943.76 1062.2 815.45 c 128,-1,9
 1205.08 687.14 1205.08 687.14 1205.08 457.78 c 0,10,11
 1205.08 230.3 1205.08 230.3 1049.51 101.52 c 128,-1,12
 893.94 -27.26 893.94 -27.26 617.58 -27.26 c 0,13,14
 498.2 -27.26 498.2 -27.26 381.17 -4.2307 c 128,-1,15
 264.14 18.7996 264.14 18.7996 148.52 65.7996 c 1,16,-1
 148.52 350.62 l 1,17,18
 263.2 284.82 263.2 284.82 366.13 251.92 c 128,-1,19
 469.06 219.02 469.06 219.02 560.24 219.02 c 0,20,21
 691.84 219.02 691.84 219.02 767.51 283.41 c 128,-1,22
 843.18 347.8 843.18 347.8 843.18 457.78 c 0,23,24
 843.18 568.7 843.18 568.7 767.51 632.62 c 128,-1,25
 691.84 696.54 691.84 696.54 560.24 696.54 c 0,26,27
 482.22 696.54 482.22 696.54 393.86 676.33 c 128,-1,28
 305.5 656.12 305.5 656.12 203.98 613.82 c 1,29,-1
 203.98 1403.42 l 1,0,-1
EndSplineSet
EndChar

StartChar: six
Encoding: 54 54 326
Width: 1339
Flags: W
LayerCount: 2
Fore
SplineSet
696.54 692.78 m 0,0,1
 601.6 692.78 601.6 692.78 554.13 631.21 c 128,-1,2
 506.66 569.64 506.66 569.64 506.66 446.5 c 128,-1,3
 506.66 323.36 506.66 323.36 554.13 261.79 c 128,-1,4
 601.6 200.22 601.6 200.22 696.54 200.22 c 0,5,6
 792.42 200.22 792.42 200.22 839.89 261.79 c 128,-1,7
 887.36 323.36 887.36 323.36 887.36 446.5 c 128,-1,8
 887.36 569.64 887.36 569.64 839.89 631.21 c 128,-1,9
 792.42 692.78 792.42 692.78 696.54 692.78 c 0,0,1
1143.98 1366.76 m 1,10,-1
 1143.98 1107.32 l 1,11,12
 1054.68 1149.62 1054.68 1149.62 975.72 1169.83 c 128,-1,13
 896.76 1190.04 896.76 1190.04 821.56 1190.04 c 0,14,15
 659.88 1190.04 659.88 1190.04 569.64 1100.27 c 128,-1,16
 479.4 1010.5 479.4 1010.5 464.36 833.78 c 1,17,18
 526.4 879.84 526.4 879.84 598.78 902.87 c 128,-1,19
 671.16 925.9 671.16 925.9 756.7 925.9 c 0,20,21
 971.96 925.9 971.96 925.9 1104.03 799.94 c 128,-1,22
 1236.1 673.98 1236.1 673.98 1236.1 470 c 0,23,24
 1236.1 244.4 1236.1 244.4 1088.52 108.57 c 128,-1,25
 940.94 -27.2598 940.94 -27.2598 692.78 -27.2598 c 0,26,27
 419.24 -27.2598 419.24 -27.2598 269.31 157.45 c 128,-1,28
 119.38 342.16 119.38 342.16 119.38 681.5 c 0,29,30
 119.38 1029.3 119.38 1029.3 294.69 1228.11 c 128,-1,31
 470 1426.92 470 1426.92 775.5 1426.92 c 0,32,33
 872.32 1426.92 872.32 1426.92 963.5 1411.88 c 128,-1,34
 1054.68 1396.84 1054.68 1396.84 1143.98 1366.76 c 1,10,-1
EndSplineSet
EndChar

StartChar: seven
Encoding: 55 55 327
Width: 1339
Flags: W
LayerCount: 2
Fore
SplineSet
128.78 1403.42 m 1,0,-1
 1186.28 1403.42 l 1,1,-1
 1186.28 1199.44 l 1,2,-1
 639.2 6.34766e-05 l 1,3,-1
 286.7 6.34766e-05 l 1,4,-1
 804.64 1137.4 l 1,5,-1
 128.78 1137.4 l 1,6,-1
 128.78 1403.42 l 1,0,-1
EndSplineSet
EndChar

StartChar: eight
Encoding: 56 56 328
Width: 1339
Flags: W
LayerCount: 2
Fore
SplineSet
670.22 627.92 m 0,0,1
 568.7 627.92 568.7 627.92 514.18 572.46 c 128,-1,2
 459.66 517 459.66 517 459.66 413.6 c 128,-1,3
 459.66 310.2 459.66 310.2 514.18 255.21 c 128,-1,4
 568.7 200.22 568.7 200.22 670.22 200.22 c 0,5,6
 770.8 200.22 770.8 200.22 824.38 255.21 c 128,-1,7
 877.96 310.2 877.96 310.2 877.96 413.6 c 0,8,9
 877.96 517.94 877.96 517.94 824.38 572.93 c 128,-1,10
 770.8 627.92 770.8 627.92 670.22 627.92 c 0,0,1
406.08 747.3 m 1,11,12
 278.24 785.84 278.24 785.84 213.38 865.74 c 128,-1,13
 148.52 945.64 148.52 945.64 148.52 1065.02 c 0,14,15
 148.52 1242.68 148.52 1242.68 281.06 1335.74 c 128,-1,16
 413.6 1428.8 413.6 1428.8 670.22 1428.8 c 0,17,18
 924.96 1428.8 924.96 1428.8 1057.5 1336.21 c 128,-1,19
 1190.04 1243.62 1190.04 1243.62 1190.04 1065.02 c 0,20,21
 1190.04 945.64 1190.04 945.64 1124.71 865.74 c 128,-1,22
 1059.38 785.84 1059.38 785.84 931.54 747.3 c 1,23,24
 1074.42 707.82 1074.42 707.82 1147.27 618.99 c 128,-1,25
 1220.12 530.16 1220.12 530.16 1220.12 394.8 c 0,26,27
 1220.12 186.12 1220.12 186.12 1081.47 79.43 c 128,-1,28
 942.82 -27.259 942.82 -27.259 670.22 -27.259 c 0,29,30
 396.68 -27.259 396.68 -27.259 257.09 79.43 c 128,-1,31
 117.5 186.12 117.5 186.12 117.5 394.8 c 0,32,33
 117.5 530.16 117.5 530.16 190.35 618.99 c 128,-1,34
 263.2 707.82 263.2 707.82 406.08 747.3 c 1,11,12
490.68 1028.36 m 0,35,36
 490.68 944.7 490.68 944.7 537.21 899.58 c 128,-1,37
 583.74 854.46 583.74 854.46 670.22 854.46 c 0,38,39
 754.82 854.46 754.82 854.46 800.88 899.58 c 128,-1,40
 846.94 944.7 846.94 944.7 846.94 1028.36 c 128,-1,41
 846.94 1112.02 846.94 1112.02 800.88 1156.67 c 128,-1,42
 754.82 1201.32 754.82 1201.32 670.22 1201.32 c 0,43,44
 583.74 1201.32 583.74 1201.32 537.21 1156.2 c 128,-1,45
 490.68 1111.08 490.68 1111.08 490.68 1028.36 c 0,35,36
EndSplineSet
EndChar

StartChar: nine
Encoding: 57 57 329
Width: 1339
Flags: W
LayerCount: 2
Fore
SplineSet
192.7 31.0195 m 1,0,-1
 192.7 290.46 l 1,1,2
 279.18 250.04 279.18 250.04 358.14 229.829 c 128,-1,3
 437.1 209.618 437.1 209.618 514.18 209.618 c 0,4,5
 675.86 209.618 675.86 209.618 766.1 299.388 c 128,-1,6
 856.34 389.158 856.34 389.158 872.32 565.88 c 1,7,8
 808.4 518.88 808.4 518.88 736.02 495.38 c 128,-1,9
 663.64 471.88 663.64 471.88 579.04 471.88 c 0,10,11
 363.78 471.88 363.78 471.88 231.71 597.37 c 128,-1,12
 99.64 722.859 99.64 722.859 99.64 927.779 c 0,13,14
 99.64 1154.32 99.64 1154.32 246.75 1290.62 c 128,-1,15
 393.86 1426.92 393.86 1426.92 641.08 1426.92 c 0,16,17
 915.56 1426.92 915.56 1426.92 1065.96 1241.74 c 128,-1,18
 1216.36 1056.56 1216.36 1056.56 1216.36 718.159 c 0,19,20
 1216.36 370.359 1216.36 370.359 1040.58 171.549 c 128,-1,21
 864.8 -27.2605 864.8 -27.2605 558.36 -27.2605 c 0,22,23
 459.66 -27.2605 459.66 -27.2605 369.42 -12.6911 c 128,-1,24
 279.18 1.87921 279.18 1.87921 192.7 31.0188 c 1,25,-1
 192.7 31.0195 l 1,0,-1
639.2 706.88 m 128,-1,27
 734.14 706.88 734.14 706.88 782.08 768.45 c 128,-1,28
 830.02 830.02 830.02 830.02 830.02 953.16 c 0,29,30
 830.02 1075.36 830.02 1075.36 782.08 1137.4 c 128,-1,31
 734.14 1199.44 734.14 1199.44 639.2 1199.44 c 128,-1,32
 544.26 1199.44 544.26 1199.44 496.32 1137.4 c 128,-1,33
 448.38 1075.36 448.38 1075.36 448.38 953.16 c 0,34,35
 448.38 830.02 448.38 830.02 496.32 768.45 c 128,-1,26
 544.26 706.88 544.26 706.88 639.2 706.88 c 128,-1,27
EndSplineSet
EndChar

